<?xml version="1.0" encoding="UTF-8" standalone="no"?>
<!-- Generator: Adobe Illustrator 16.2.1, SVG Export Plug-In . SVG Version: 6.00 Build 0)  -->

<svg
   xmlns:dc="http://purl.org/dc/elements/1.1/"
   xmlns:cc="http://creativecommons.org/ns#"
   xmlns:rdf="http://www.w3.org/1999/02/22-rdf-syntax-ns#"
   xmlns:svg="http://www.w3.org/2000/svg"
   xmlns="http://www.w3.org/2000/svg"
   xmlns:sodipodi="http://sodipodi.sourceforge.net/DTD/sodipodi-0.dtd"
   xmlns:inkscape="http://www.inkscape.org/namespaces/inkscape"
   version="1.1"
   id="Layer_1"
   x="0px"
   y="0px"
   width="177.845"
   height="177.84599"
   viewBox="0 0 177.845 177.846"
   enable-background="new 0 0 512 177.846"
   xml:space="preserve"
   inkscape:version="0.91 r13725"
   sodipodi:docname="lotto-ionic-mono-icon.svg"><metadata
     id="metadata27"><rdf:RDF><cc:Work
         rdf:about=""><dc:format>image/svg+xml</dc:format><dc:type
           rdf:resource="http://purl.org/dc/dcmitype/StillImage" /><dc:title /></cc:Work></rdf:RDF></metadata><defs
     id="defs25" /><sodipodi:namedview
     pagecolor="#ffffff"
     bordercolor="#666666"
     borderopacity="1"
     objecttolerance="10"
     gridtolerance="10"
     guidetolerance="10"
     inkscape:pageopacity="0"
     inkscape:pageshadow="2"
     inkscape:window-width="1680"
     inkscape:window-height="986"
     id="namedview23"
     showgrid="false"
     showguides="true"
     inkscape:guide-bbox="true"
     fit-margin-top="0"
     fit-margin-left="0"
     fit-margin-right="0"
     fit-margin-bottom="0"
     inkscape:zoom="6.9116106"
     inkscape:cx="86.417242"
     inkscape:cy="76.254073"
     inkscape:window-x="0"
     inkscape:window-y="27"
     inkscape:window-maximized="1"
     inkscape:current-layer="Layer_1"><sodipodi:guide
       position="88.95408,84.445103"
       orientation="1,0"
       id="guide4203" /><sodipodi:guide
       position="59.749999,88.937503"
       orientation="0,1"
       id="guide4205" /><sodipodi:guide
       position="5.2644787,86.08398"
       orientation="1,0"
       id="guide4142" /><sodipodi:guide
       position="52.839768,84.329154"
       orientation="1,0"
       id="guide4144" /><sodipodi:guide
       position="58.006756,103.72973"
       orientation="1,0"
       id="guide4146" /><sodipodi:guide
       position="55.569498,88.937503"
       orientation="1,0"
       id="guide4148" /><sodipodi:guide
       position="-9.6342299,101.84758"
       orientation="0,1"
       id="guide4869" /><sodipodi:guide
       position="68.265401,66.063294"
       orientation="0,1"
       id="guide4871" /></sodipodi:namedview><circle
     style="fill:#61616b;fill-opacity:1"
     id="circle19"
     r="36.306"
     cy="88.921997"
     cx="88.923004" /><path
     style="fill:#a4bbd7;fill-opacity:1"
     inkscape:connector-curvature="0"
     id="path21"
     d="m 163.014,27.317 c 0,-6.896 -5.592,-12.484 -12.486,-12.484 -3.129,0 -5.979,1.158 -8.171,3.06 C 127.47,6.665 108.961,0 88.922,0 39.89,0 0,39.891 0,88.923 c 0,49.031 39.891,88.923 88.923,88.923 49.032,0 88.922,-39.892 88.922,-88.923 0,-20.039 -6.665,-38.548 -17.892,-53.436 1.902,-2.19 3.061,-5.042 3.061,-8.17 z M 88.922,174.854 C 41.54,174.854 2.99,136.304 2.99,88.922 2.99,41.54 41.54,2.99 88.922,2.99 c 19.266,0 37.069,6.374 51.417,17.123 -1.442,2.036 -2.297,4.518 -2.297,7.203 0,6.895 5.59,12.483 12.484,12.483 2.686,0 5.165,-0.855 7.202,-2.297 10.749,14.348 17.123,32.151 17.123,51.419 0.002,47.383 -38.546,85.933 -85.929,85.933 z" /><path
     style="fill:none;fill-opacity:1;stroke:none;stroke-width:1.886518;stroke-linejoin:round;stroke-miterlimit:4;stroke-dasharray:none;stroke-opacity:1;image-rendering:auto"
     d="M 169.20914,89.414856 A 80.471258,80.003709 0 0 0 88.737882,9.4111468 80.471258,80.003709 0 0 0 8.2666238,89.414856 80.471258,80.003709 0 0 0 88.737882,169.41857 80.471258,80.003709 0 0 0 169.20914,89.414856 Z"
     id="path3374"
     inkscape:connector-curvature="0" /><path
     d="m 160.93086,29.049113 c 0,-6.702113 -5.4348,-12.133 -12.13496,-12.133 -3.04102,0 -5.8109,1.125441 -7.94127,2.973965 C 126.3862,8.9777635 108.39759,2.5001561 88.922014,2.5001561 c -47.653418,0 -86.4218728,38.7694269 -86.4218728,86.4228449 0,47.652449 38.7694258,86.422839 86.4228448,86.422839 47.653414,0 86.421874,-38.77039 86.421874,-86.422839 0,-19.475584 -6.4776,-37.464186 -17.38895,-51.933595 1.84852,-2.128427 2.97495,-4.90024 2.97495,-7.940293 z M 88.922014,172.43797 c -46.04981,0 -83.5159397,-37.46614 -83.5159397,-83.515941 0,-46.04981 37.4661297,-83.5159399 83.5159397,-83.5159399 18.724306,0 36.026786,6.1947889 49.971366,16.6415719 -1.40145,1.978755 -2.23241,4.390971 -2.23241,7.00048 0,6.70114 5.43283,12.132028 12.13299,12.132028 2.61047,0 5.01978,-0.83096 6.9995,-2.232418 10.44679,13.944592 16.64157,31.247044 16.64157,49.973306 0.001,46.050773 -37.46223,83.516913 -83.513016,83.516913 z"
     id="path4140"
     inkscape:connector-curvature="0"
     style="fill:#61616b;fill-opacity:1" /><circle
     cx="88.923004"
     cy="88.921997"
     r="33.38129"
     id="circle4150"
     style="fill:#a4bbd7;fill-opacity:1" /><ellipse
     style="fill:none;fill-opacity:1;stroke:none;stroke-width:2.0999999;stroke-linejoin:round;stroke-miterlimit:4;stroke-dasharray:none;stroke-opacity:1"
     id="path4193"
     cx="88.570511"
     cy="-88.882187"
     rx="71.831398"
     ry="70.176933"
     transform="scale(1,-1)" /><g
     transform="matrix(-0.00376935,-0.9999929,0.9999929,-0.00376935,0.79621868,178.00268)"
     inkscape:transform-center-x="-0.62125872"
     inkscape:transform-center-y="45.79989"
     style="font-style:normal;font-variant:normal;font-weight:normal;font-stretch:normal;font-size:35px;line-height:125%;font-family:'OCR A Extended';-inkscape-font-specification:'OCR A Extended, Normal';text-align:center;letter-spacing:0px;word-spacing:0px;writing-mode:lr-tb;text-anchor:middle;fill:#273582;fill-opacity:1;stroke:none;stroke-width:1px;stroke-linecap:butt;stroke-linejoin:miter;stroke-opacity:1"
     id="text4195"><path
       d="m 46.089321,31.106831 2.034442,2.074045 q -2.084994,3.170317 -0.878772,5.913133 2.026141,4.188823 9.206523,11.508981 L 59.491209,53.701856 48.657376,64.328822 30.790192,46.11383 33.254645,43.696434 49.087388,59.837382 55.004515,54.03324 52.802531,51.788391 q -6.773494,-6.905348 -8.688435,-11.346883 -1.832102,-4.259462 1.975225,-9.334677 z"
       style="font-style:normal;font-variant:normal;font-weight:normal;font-stretch:normal;font-size:35px;line-height:125%;font-family:'OCR A Extended';-inkscape-font-specification:'OCR A Extended, Normal';text-align:center;writing-mode:lr-tb;text-anchor:middle"
       id="path4154" /><path
       d="m 41.49973,76.911164 q 0.986303,-3.628092 -1.135459,-6.507207 -2.126246,-2.862624 -6.79329,-4.131368 -4.650553,-1.26426 -7.933462,0.127877 -3.287392,1.408628 -4.273695,5.036719 -0.986302,3.628092 1.144426,6.474225 2.126246,2.862624 6.776799,4.126884 4.667044,1.268744 7.949953,-0.123394 3.278426,-1.375645 4.264728,-5.003736 z m 2.704577,0.735243 q -1.407722,5.178276 -5.730232,7.332691 -4.306018,2.158898 -10.143946,0.571848 -5.821437,-1.582567 -8.458266,-5.628889 -2.620338,-4.04184 -1.212616,-9.220115 1.412206,-5.194767 5.722707,-7.370157 4.306018,-2.158898 10.143947,-0.571848 5.837928,1.58705 8.458266,5.62889 2.632346,4.062813 1.22014,9.25758 z"
       style="font-style:normal;font-variant:normal;font-weight:normal;font-stretch:normal;font-size:35px;line-height:125%;font-family:'OCR A Extended';-inkscape-font-specification:'OCR A Extended, Normal';text-align:center;writing-mode:lr-tb;text-anchor:middle"
       id="path4156" /><path
       d="m 40.928715,89.776903 5.636617,20.835497 -2.804462,0.75869 -2.365326,-8.74332 -21.825309,5.90439 -0.905964,-3.34886 21.825308,-5.904387 -2.365326,-8.743321 2.804462,-0.758689 z"
       style="font-style:normal;font-variant:normal;font-weight:normal;font-stretch:normal;font-size:35px;line-height:125%;font-family:'OCR A Extended';-inkscape-font-specification:'OCR A Extended, Normal';text-align:center;writing-mode:lr-tb;text-anchor:middle"
       id="path4158" /><path
       d="m 53.656781,121.61744 q -2.662429,-2.65467 -6.214624,-2.23862 -3.540092,0.42811 -6.954971,3.85296 -3.402813,3.41275 -3.820602,6.95408 -0.405686,3.55339 2.256743,6.20807 2.66243,2.65467 6.19042,2.21449 3.540093,-0.42811 6.942905,-3.84086 3.414879,-3.42485 3.832668,-6.96618 0.429891,-3.52926 -2.232539,-6.18394 z m 1.978941,-1.98472 q 3.800013,3.78895 3.529104,8.611 -0.258843,4.80996 -4.530458,9.09405 -4.259549,4.27199 -9.080792,4.55696 -4.809176,0.27287 -8.609189,-3.51608 -3.812115,-3.80102 -3.565375,-8.62303 0.258842,-4.80996 4.530458,-9.09405 4.271615,-4.28409 9.080792,-4.55696 4.833345,-0.2729 8.64546,3.52811 z"
       style="font-style:normal;font-variant:normal;font-weight:normal;font-stretch:normal;font-size:35px;line-height:125%;font-family:'OCR A Extended';-inkscape-font-specification:'OCR A Extended, Normal';text-align:center;writing-mode:lr-tb;text-anchor:middle"
       id="path4160" /></g><path
     style="fill:#ffffff;stroke:none;stroke-width:1px;stroke-linecap:butt;stroke-linejoin:miter;stroke-opacity:1;fill-opacity:1"
     d="M 80.711391,171.83412 C 68.832375,170.68836 55.527082,166.17436 45.295743,159.81886 31.618085,151.32258 21.043433,139.59755 14.039706,125.16257 -7.1697026,81.449087 13.293802,29.243697 58.647064,11.362683 66.839338,8.1327894 74.304416,6.4829757 83.480192,5.8744575 101.45048,4.6827048 119.77478,9.5023983 134.5941,19.318543 l 4.01931,2.662338 -0.90552,1.774956 c -1.26599,2.481542 -1.5238,5.76963 -0.67999,8.672245 1.33946,4.607595 5.10341,7.925311 9.89658,8.723294 2.74599,0.457161 4.32462,0.157642 8.26774,-1.568668 0.55383,-0.242466 1.24868,0.497953 3.09837,3.301564 7.02284,10.644631 11.38172,22.221255 13.16029,34.952061 0.88971,6.368469 0.66209,19.598306 -0.43923,25.528407 -3.32122,17.88335 -11.94293,33.74357 -25.09438,46.16281 -17.47322,16.50038 -41.21096,24.62093 -65.205879,22.30657 z m -1.41725,-13.14205 c 4.39947,-2.04873 7.20839,-6.8233 7.522938,-12.78739 0.223706,-4.24172 -0.528137,-6.7135 -2.810476,-9.23977 -3.125501,-3.45956 -9.944994,-4.80144 -13.861944,-2.72765 -2.540379,1.34499 -5.144759,4.38105 -6.297324,7.34112 -1.480303,3.80179 -1.472724,9.20115 0.01699,12.09771 2.72757,5.30346 10.043838,7.8241 15.429826,5.31598 l -1.3e-5,0 z M 109.197,157.14393 c -0.1541,-0.61828 -1.49399,-5.52455 -2.97755,-10.90283 l -2.69736,-9.7787 2.44384,-0.72924 c 1.34411,-0.40108 3.28813,-0.94997 4.32005,-1.21977 1.8181,-0.47534 1.86701,-0.53351 1.57901,-1.87841 -0.16346,-0.76334 -0.37463,-1.47186 -0.46926,-1.57449 -0.0946,-0.10263 -4.81445,1.07802 -10.48849,2.62368 l -10.316436,2.8103 0.121929,1.48216 c 0.06706,0.81518 0.19294,1.55316 0.279727,1.63995 0.08679,0.0868 2.053444,-0.35863 4.370347,-0.98983 2.316903,-0.63119 4.282556,-1.07761 4.368122,-0.99205 0.08556,0.0856 1.476201,4.95467 3.090311,10.82024 l 2.93473,10.66466 1.86061,-0.42576 c 1.71752,-0.39303 1.83906,-0.51222 1.58042,-1.54991 z M 56.143074,138.09726 65.1638,129.0842 59.847562,123.75517 c -2.92393,-2.93096 -5.491594,-5.32903 -5.705917,-5.32903 -0.214323,0 -2.439233,1.97407 -4.944244,4.38683 -4.533102,4.36616 -8.678801,7.43842 -10.733128,7.95403 -0.592923,0.14881 -1.912579,-0.017 -2.932568,-0.36836 -1.757391,-0.60548 -1.90627,-0.59033 -2.842453,0.28917 -0.543361,0.51046 -0.987928,1.05358 -0.987928,1.20693 0,0.64117 3.601827,2.23306 5.58362,2.46778 3.616902,0.42837 7.393238,-1.77333 14.4344,-8.4156 1.670137,-1.57552 3.08092,-2.78282 3.135076,-2.68289 0.05416,0.0999 1.252078,1.38532 2.66204,2.85641 l 2.563569,2.67471 -7.996178,7.81124 -7.996179,7.81124 1.276485,1.34634 c 0.702067,0.74049 1.38487,1.34634 1.517339,1.34634 0.13247,0 4.300181,-4.05587 9.261578,-9.01305 z m 79.516096,5.05751 c 5.74465,-2.9307 8.20967,-8.89992 6.15972,-14.9162 -0.95619,-2.80628 -5.14273,-7.24827 -8.27643,-8.78145 -4.49157,-2.19751 -9.19773,-1.48329 -12.87194,1.9535 -3.06584,2.86774 -3.97757,4.82409 -3.9765,8.53265 8.6e-4,3.71138 1.34461,6.628 4.51252,9.79591 4.44801,4.44801 9.90227,5.73702 14.45263,3.41559 z m -40.939584,-18.2346 c 14.218544,-2.28075 25.832764,-12.93022 29.596364,-27.137944 1.28288,-4.84291 1.27953,-12.926758 -0.007,-17.795497 C 118.66467,58.634416 96.113229,47.087482 75.546032,55.019033 65.510278,58.889228 56.872187,68.391617 53.858306,78.876747 c -1.313001,4.567868 -1.641126,12.546236 -0.702602,17.083712 2.400292,11.604681 9.725305,20.959251 20.268908,25.884851 6.894949,3.22109 13.993478,4.24607 21.294979,3.07486 l -5e-6,0 z"
     id="path4873"
     inkscape:connector-curvature="0" /><path
     style="fill:#ffffff;stroke:none;stroke-width:1px;stroke-linecap:butt;stroke-linejoin:miter;stroke-opacity:1;fill-opacity:1"
     d="m 72.702415,156.23832 c -2.283095,-0.5154 -4.141638,-1.86116 -5.103484,-3.6954 -2.230494,-4.25355 -0.306432,-12.07672 3.680519,-14.96485 3.478906,-2.52011 8.581622,-1.3911 10.711824,2.37006 1.788976,3.15867 1.108975,8.91244 -1.527072,12.92117 -1.793501,2.72744 -4.807897,4.03585 -7.761787,3.36902 z"
     id="path4875"
     inkscape:connector-curvature="0" /><path
     style="fill:#ffffff;stroke:none;stroke-width:1px;stroke-linecap:butt;stroke-linejoin:miter;stroke-opacity:1;fill-opacity:1"
     d="m 127.83652,139.66533 c -2.31763,-1.1472 -5.48536,-4.26625 -6.64864,-6.54646 -2.68808,-5.26908 0.67215,-11.21586 6.33753,-11.21586 3.81704,0 8.72664,3.65865 10.67837,7.95755 3.07059,6.76335 -3.65724,13.12616 -10.36726,9.80477 z"
     id="path4877"
     inkscape:connector-curvature="0" /></svg>