<?xml version="1.0" encoding="UTF-8" standalone="no"?>
<!-- Generator: Adobe Illustrator 16.2.1, SVG Export Plug-In . SVG Version: 6.00 Build 0)  -->

<svg
   xmlns:dc="http://purl.org/dc/elements/1.1/"
   xmlns:cc="http://creativecommons.org/ns#"
   xmlns:rdf="http://www.w3.org/1999/02/22-rdf-syntax-ns#"
   xmlns:svg="http://www.w3.org/2000/svg"
   xmlns="http://www.w3.org/2000/svg"
   xmlns:sodipodi="http://sodipodi.sourceforge.net/DTD/sodipodi-0.dtd"
   xmlns:inkscape="http://www.inkscape.org/namespaces/inkscape"
   version="1.1"
   id="Layer_1"
   x="0px"
   y="0px"
   width="177.845"
   height="177.84599"
   viewBox="0 0 177.845 177.846"
   enable-background="new 0 0 512 177.846"
   xml:space="preserve"
   inkscape:version="0.91 r13725"
   sodipodi:docname="Ionic_Logo-2-w.svg"><metadata
     id="metadata27"><rdf:RDF><cc:Work
         rdf:about=""><dc:format>image/svg+xml</dc:format><dc:type
           rdf:resource="http://purl.org/dc/dcmitype/StillImage" /><dc:title /></cc:Work></rdf:RDF></metadata><defs
     id="defs25" /><sodipodi:namedview
     pagecolor="#ffffff"
     bordercolor="#666666"
     borderopacity="1"
     objecttolerance="10"
     gridtolerance="10"
     guidetolerance="10"
     inkscape:pageopacity="0"
     inkscape:pageshadow="2"
     inkscape:window-width="1680"
     inkscape:window-height="986"
     id="namedview23"
     showgrid="false"
     showguides="true"
     inkscape:guide-bbox="true"
     fit-margin-top="0"
     fit-margin-left="0"
     fit-margin-right="0"
     fit-margin-bottom="0"
     inkscape:zoom="3.7060089"
     inkscape:cx="123.72309"
     inkscape:cy="87.975592"
     inkscape:window-x="0"
     inkscape:window-y="27"
     inkscape:window-maximized="1"
     inkscape:current-layer="Layer_1"><sodipodi:guide
       position="88.95408,84.445103"
       orientation="1,0"
       id="guide4203" /><sodipodi:guide
       position="130.7875,88.549898"
       orientation="0,1"
       id="guide4205" /><sodipodi:guide
       position="117.21928,80.630801"
       orientation="0,1"
       id="guide4209" /></sodipodi:namedview><circle
     style="fill:#4e8ef7"
     id="circle19"
     r="36.306"
     cy="88.921997"
     cx="88.923004" /><path
     style="fill:#4e8ef7"
     inkscape:connector-curvature="0"
     id="path21"
     d="m 163.014,27.317 c 0,-6.896 -5.592,-12.484 -12.486,-12.484 -3.129,0 -5.979,1.158 -8.171,3.06 C 127.47,6.665 108.961,0 88.922,0 39.89,0 0,39.891 0,88.923 c 0,49.031 39.891,88.923 88.923,88.923 49.032,0 88.922,-39.892 88.922,-88.923 0,-20.039 -6.665,-38.548 -17.892,-53.436 1.902,-2.19 3.061,-5.042 3.061,-8.17 z M 88.922,174.854 C 41.54,174.854 2.99,136.304 2.99,88.922 2.99,41.54 41.54,2.99 88.922,2.99 c 19.266,0 37.069,6.374 51.417,17.123 -1.442,2.036 -2.297,4.518 -2.297,7.203 0,6.895 5.59,12.483 12.484,12.483 2.686,0 5.165,-0.855 7.202,-2.297 10.749,14.348 17.123,32.151 17.123,51.419 0.002,47.383 -38.546,85.933 -85.929,85.933 z" /><path
     style="fill:none;fill-opacity:1;stroke:none;stroke-width:1.886518;stroke-linejoin:round;stroke-miterlimit:4;stroke-dasharray:none;stroke-opacity:1;image-rendering:auto"
     d="M 169.20914,89.414856 A 80.471258,80.003709 0 0 0 88.737882,9.4111468 80.471258,80.003709 0 0 0 8.2666238,89.414856 80.471258,80.003709 0 0 0 88.737882,169.41857 80.471258,80.003709 0 0 0 169.20914,89.414856 Z"
     id="path3374"
     inkscape:connector-curvature="0" /><g
     transform="matrix(0.01016294,-0.99994835,0.99994835,0.01016294,-1.6175638,178.47079)"
     inkscape:transform-center-x="0.81622507"
     inkscape:transform-center-y="58.899594"
     style="font-style:normal;font-variant:normal;font-weight:500;font-stretch:normal;font-size:50px;line-height:125%;font-family:Cursor;-inkscape-font-specification:'Cursor, Medium';text-align:center;letter-spacing:0px;word-spacing:0px;writing-mode:lr-tb;text-anchor:middle;fill:#4e8ef7;fill-opacity:1;stroke:none;stroke-width:1px;stroke-linecap:butt;stroke-linejoin:miter;stroke-opacity:1"
     id="text4193"><path
       d="m 81.493552,7.9856419 1.195721,3.9744181 q -4.742646,2.625111 -5.038621,6.895341 -0.219285,6.643691 4.000904,20.671047 l 1.786547,5.938248 -20.760488,6.24588 -10.501237,-34.904739 4.722543,-1.420797 9.305517,30.930321 11.33878,-3.41132 -1.294191,-4.301722 Q 72.267981,25.369846 72.795749,18.480377 73.30737,11.876211 81.493552,7.9856419 Z"
       style=""
       id="path4145" /><path
       d="m 45.058027,71.223684 q 2.103158,-4.942203 -0.338254,-9.430405 -2.450972,-4.465737 -8.808442,-7.171164 -6.335006,-2.695867 -11.25241,-1.365748 -4.926963,1.352584 -7.030122,6.294787 -2.103158,4.942203 0.357373,9.385476 2.450972,4.465737 8.785978,7.161604 6.357471,2.705427 11.274874,1.375308 4.907844,-1.307654 7.011003,-6.249858 z m 3.684187,1.56781 q -3.001781,7.053871 -9.539047,9.260088 -6.514803,2.215777 -14.467257,-1.168397 -7.929989,-3.374613 -10.872767,-9.615071 -2.920313,-6.230898 0.08147,-13.284769 3.011341,-7.076337 9.535703,-9.314578 6.514802,-2.215777 14.467257,1.168397 7.952454,3.384173 10.872767,9.615071 2.933217,6.262922 -0.07812,13.339259 z"
       style=""
       id="path4147" /><path
       d="m 42.217973,93.68462 13.047346,27.93853 -3.76053,1.75618 -5.475134,-11.72401 -29.265778,13.66717 -2.097079,-4.49051 29.265778,-13.66718 -5.475133,-11.724005 3.76053,-1.756175 z"
       style=""
       id="path4149" /><path
       d="m 74.50314,134.1675 q -5.127104,-1.60046 -9.349822,1.27584 -4.199413,2.88358 -6.258178,9.4789 -2.051491,6.57201 -0.238209,11.33248 1.836587,4.76775 6.963691,6.3682 5.127104,1.60046 9.303211,-1.29039 4.199413,-2.88358 6.250904,-9.45559 2.058766,-6.59532 0.245484,-11.35579 -1.789977,-4.7532 -6.917081,-6.35365 z m 1.193066,-3.82203 q 7.317775,2.28429 10.164138,8.56931 2.853638,6.26171 0.278362,14.51169 -2.568001,8.22667 -8.484325,11.77637 -5.909049,3.52639 -13.226825,1.24211 -7.341081,-2.29156 -10.218023,-8.56055 -2.853638,-6.26172 -0.278362,-14.51169 2.575275,-8.24998 8.484325,-11.77637 5.939629,-3.54243 13.28071,-1.25087 z"
       style=""
       id="path4151" /></g><path
     style="fill:#000000;stroke:none;stroke-width:1px;stroke-linecap:butt;stroke-linejoin:miter;stroke-opacity:1;fill-opacity:0"
     d="M 82.93653,174.50122 C 62.175459,172.93403 43.14413,164.19504 28.41426,149.46517 4.4880084,125.53892 -3.1776403,90.533321 8.6045374,59.003002 19.665235,29.403439 46.051085,8.32588 77.539484,3.9363561 84.223901,3.004539 97.851344,3.3033107 104.2966,4.5229865 c 11.654,2.2053559 23.47091,7.0696565 32.83139,13.5146845 l 2.92518,2.014096 -0.8675,1.680755 c -0.60441,1.17102 -0.9225,2.682202 -1.04882,4.982836 -0.15829,2.882825 -0.0542,3.579823 0.82017,5.489597 1.32564,2.89557 3.02894,4.77103 5.65351,6.224922 1.93843,1.073807 2.52293,1.19408 5.80295,1.19408 3.45065,0 4.36042,-0.219005 7.15967,-1.723514 0.41725,-0.224255 5.36326,7.478029 7.60947,11.850009 4.33164,8.431025 7.49834,18.589318 8.73442,28.018685 0.70249,5.358898 0.80005,15.826089 0.19416,20.831797 -2.70596,22.355936 -13.84887,42.718166 -31.08353,56.801116 -16.57863,13.54689 -39.04593,20.68782 -60.09114,19.09917 z m -12.786174,-9.21683 c 4.925108,-2.40963 9.32412,-8.4903 11.007193,-15.21504 0.852131,-3.40469 0.584788,-7.89013 -0.664682,-11.15199 -2.47619,-6.46434 -11.582142,-11.34856 -18.49519,-9.92038 -6.73005,1.39037 -11.795353,6.53797 -14.54177,14.77802 -0.940673,2.82229 -1.058942,3.73578 -0.918226,7.09217 0.128766,3.07131 0.37672,4.31904 1.222663,6.15256 1.41582,3.06869 3.829452,5.60385 6.886531,7.23325 3.853052,2.05366 5.385691,2.4262 9.467434,2.30128 3.074441,-0.0941 4.054089,-0.30019 6.036047,-1.26987 z m 51.583574,-1.13971 c 1.1664,-0.50286 2.12385,-1.06011 2.12765,-1.23833 0.004,-0.17822 -2.93561,-6.79493 -6.53203,-14.7038 -3.59641,-7.90887 -6.45761,-14.46109 -6.35822,-14.56048 0.0994,-0.0994 2.63158,-1.29466 5.62709,-2.65615 2.99551,-1.36149 5.51364,-2.54224 5.59585,-2.6239 0.28539,-0.28345 -1.36762,-3.8316 -1.78577,-3.83311 -0.23127,-8.1e-4 -6.24949,2.65906 -13.37381,5.91087 -7.124327,3.25181 -13.356583,6.07135 -13.849461,6.26563 l -0.896138,0.35325 0.847377,1.94102 c 0.466057,1.06756 0.892268,1.99437 0.947137,2.05957 0.05486,0.0652 2.708954,-1.07462 5.897976,-2.53292 3.189019,-1.45831 5.834919,-2.65146 5.879779,-2.65146 0.0449,0 3.06444,6.56532 6.71018,14.58961 3.64574,8.02429 6.72155,14.59071 6.83514,14.59205 0.11358,0.001 1.16084,-0.40898 2.32725,-0.91185 z m 34.58808,-37.93808 c 8.3332,-3.22533 12.61807,-14.60953 8.5833,-22.80444 -1.42233,-2.88886 -4.01107,-5.600424 -7.04321,-7.377378 -4.75133,-2.784468 -11.85628,-4.129886 -16.60138,-3.143701 -7.5088,1.560578 -12.72933,8.559449 -12.73008,17.066509 -2.7e-4,3.09495 0.14001,3.73959 1.34749,6.19233 2.45444,4.98568 7.35772,8.65504 13.9358,10.42885 3.88664,1.04804 9.26707,0.89226 12.50808,-0.36217 z M 34.0168,121.34211 c 9.09199,-2.64962 16.603744,-4.89034 16.692793,-4.97939 0.164303,-0.16431 -5.666516,-20.542728 -5.962531,-20.838743 -0.08859,-0.08859 -2.700373,0.564594 -5.803954,1.451533 -6.994624,1.998914 -11.849167,3.06143 -16.658702,3.64609 -5.08303,0.61792 -6.596063,0.18712 -9.298883,-2.647642 L 10.916738,95.804187 9.1564077,96.32395 c -0.968182,0.285867 -1.820854,0.70133 -1.8948274,0.923251 -0.2212118,0.663636 3.0301687,5.221779 4.5536287,6.383779 2.480013,1.8916 4.131452,2.35312 8.304937,2.32095 4.417328,-0.034 10.278239,-1.07848 17.1206,-3.05092 l 4.759956,-1.37216 0.402382,1.46891 c 0.221311,0.8079 0.928178,3.29262 1.570818,5.52159 0.642636,2.22896 1.146322,4.0777 1.119298,4.1083 -0.02703,0.0306 -6.79683,1.99898 -15.044013,4.37418 -8.247183,2.37519 -15.208385,4.39055 -15.469338,4.47857 -0.353685,0.11929 -0.327001,0.65642 0.104828,2.1101 0.914013,3.07685 0.908942,3.06933 1.893159,2.80914 0.499441,-0.13202 8.346975,-2.40792 17.438964,-5.05753 z m 64.84534,2.61017 c 14.40987,-4.25772 24.35178,-15.9612 26.2356,-30.88418 C 126.90353,78.763204 119.42486,64.288307 106.43356,56.943698 101.05005,53.900143 92.567104,52.055996 86.292412,52.565121 70.6028,53.83817 57.635488,64.709971 53.575706,79.994823 c -0.920698,3.466382 -1.251464,10.742238 -0.661124,14.542811 2.194667,14.129116 13.051449,26.123836 26.779812,29.586686 4.59176,1.15822 4.682746,1.1672 10.334308,1.01924 4.203364,-0.11005 5.989186,-0.35088 8.833438,-1.19128 z"
     id="path4140"
     inkscape:connector-curvature="0" /><path
     style="fill:#000000;stroke:none;stroke-width:1px;stroke-linecap:butt;stroke-linejoin:miter;stroke-opacity:1;fill-opacity:0"
     d="m 58.776681,161.56184 c -2.209082,-0.78346 -4.842599,-3.085 -5.907954,-5.16322 -1.201723,-2.34423 -1.442413,-6.70052 -0.542364,-9.81635 1.615795,-5.59363 5.269866,-10.56621 9.080912,-12.35761 1.524976,-0.71683 2.378536,-0.84222 4.705233,-0.69125 4.2539,0.27602 7.395976,2.24786 9.220185,5.78623 3.329448,6.45803 -1.594991,18.86669 -8.782982,22.13146 -1.978716,0.89873 -5.413196,0.94766 -7.77303,0.11074 z"
     id="path4142"
     inkscape:connector-curvature="0" /><path
     style="fill:#000000;stroke:none;stroke-width:1px;stroke-linecap:butt;stroke-linejoin:miter;stroke-opacity:1;fill-opacity:0"
     d="m 145.42939,121.3005 c -10.08519,-2.72475 -14.74636,-9.73752 -11.46132,-17.24364 0.92753,-2.11936 3.01269,-4.173816 5.29602,-5.218062 2.73274,-1.249774 8.11122,-1.1148 12.12128,0.304185 6.9573,2.461887 10.57822,6.474587 10.57822,11.722757 0,8.30941 -7.31457,12.92565 -16.5342,10.43476 z"
     id="path4144"
     inkscape:connector-curvature="0" /><path
     style="fill:#ffffff;stroke:none;stroke-width:1px;stroke-linecap:butt;stroke-linejoin:miter;stroke-opacity:1;fill-opacity:0"
     d="M 81.167344,174.42847 C 55.07916,171.90756 31.919931,158.03408 17.442945,136.25453 10.013552,125.07756 5.5551368,113.12646 3.7361386,99.512464 3.0778467,94.585582 3.086072,83.076535 3.7513412,78.24064 5.2086954,67.647014 8.1789009,58.16174 12.795327,49.358903 26.599438,23.036521 52.728794,5.7154887 82.155434,3.3803998 102.08659,1.7988048 122.32989,7.3810543 138.49878,18.917523 l 1.68884,1.204981 -0.65574,1.13145 c -1.15457,1.992157 -1.5907,4.053383 -1.4454,6.831207 0.11259,2.152488 0.26375,2.774634 1.104,4.543961 1.30096,2.739467 3.26772,4.699384 6.03413,6.013145 1.82972,0.868932 2.39709,1.005955 4.55634,1.100394 2.7144,0.118718 4.75956,-0.314635 6.79414,-1.439624 l 1.14673,-0.634068 1.1897,1.667422 c 8.09341,11.343303 13.1811,24.391418 15.16945,38.904249 0.66667,4.865949 0.67781,16.681743 0.0202,21.373033 -1.71542,12.236787 -5.58542,23.420487 -11.51202,33.267957 -12.20206,20.27462 -32.0459,34.6346 -54.99251,39.7953 -5.95146,1.33849 -10.038281,1.78835 -17.19776,1.89307 -3.710191,0.0543 -7.86436,-0.009 -9.231489,-0.14153 l 3e-6,0 z m -12.787981,-8.46483 c 4.803445,-1.62512 8.807939,-5.74242 11.297604,-11.61585 1.420207,-3.35045 1.952324,-5.77768 1.952324,-8.90544 0,-4.83479 -1.327706,-8.22399 -4.44895,-11.35672 -2.187178,-2.19523 -5.722836,-4.12712 -8.907737,-4.86721 -2.49518,-0.57982 -6.370082,-0.39185 -8.694739,0.42179 -5.652048,1.97822 -10.096587,7.39446 -12.402493,15.11403 -0.88536,2.96395 -0.999129,7.37485 -0.253734,9.83735 1.054355,3.48318 2.892225,6.24525 5.42908,8.15917 5.022214,3.78898 10.864491,4.96004 16.028645,3.21288 z m 53.518087,-1.99195 2.08693,-1.00378 -6.60662,-14.51798 c -3.63363,-7.98489 -6.60611,-14.60252 -6.60549,-14.70585 5.3e-4,-0.10333 2.56169,-1.3414 5.69129,-2.75127 3.1296,-1.40988 5.73918,-2.642 5.79907,-2.73806 0.16382,-0.26276 -1.5199,-3.73791 -1.81102,-3.73791 -0.34462,0 -27.545314,12.36028 -27.832337,12.6473 -0.231333,0.23134 1.383696,3.81245 1.719356,3.81245 0.09968,0 2.700825,-1.15045 5.780321,-2.55655 3.0795,-1.40611 5.68219,-2.5052 5.78374,-2.44244 0.10156,0.0628 3.13949,6.61661 6.75095,14.56409 3.61146,7.94747 6.69918,14.44632 6.86159,14.44187 0.16241,-0.004 1.23441,-0.45978 2.38222,-1.01187 z m 32.46199,-37.17533 c 3.64447,-0.94926 6.92734,-3.24979 8.92613,-6.25513 2.31808,-3.48542 3.65295,-8.85152 3.09555,-12.44399 -1.04359,-6.72615 -5.65611,-11.571353 -13.49439,-14.175143 -5.95334,-1.977634 -10.69221,-1.867802 -15.32504,0.355188 -3.88295,1.863169 -6.49284,4.962824 -8.02395,9.529695 -3.13071,9.33804 0.98847,17.6158 10.70132,21.50501 5.22732,2.09313 9.89812,2.58413 14.12038,1.48437 z M 33.50357,121.42874 c 9.435271,-2.73731 17.194654,-5.01654 17.243075,-5.06496 0.06503,-0.065 -5.764986,-20.568053 -5.946591,-20.913001 -0.01711,-0.03251 -2.392534,0.611653 -5.278703,1.431476 -9.608315,2.729262 -15.413614,3.884775 -19.9637,3.973685 -2.397403,0.0468 -2.707003,-0.01 -4.174619,-0.75962 -1.450617,-0.741443 -3.614712,-2.890839 -3.963191,-3.936276 -0.0935,-0.280496 -0.531541,-0.2398 -2.1235397,0.197279 -2.3335632,0.640676 -2.3613125,0.722157 -1.0227328,3.003099 1.2917538,2.201148 3.9390025,4.793338 5.7347185,5.615448 3.978384,1.82136 11.77122,1.12108 23.017789,-2.06844 2.61474,-0.74154 4.841448,-1.25225 4.94824,-1.13491 0.353884,0.38883 3.216579,10.72139 3.017864,10.89264 -0.107232,0.0924 -7.055445,2.14582 -15.440476,4.56315 -8.385031,2.41732 -15.268289,4.41121 -15.296127,4.43086 -0.02784,0.0196 0.267189,1.09564 0.655617,2.3911 0.435965,1.45401 0.846126,2.35539 1.071785,2.35539 0.201054,0 8.085319,-2.23961 17.520591,-4.97692 z m 60.773198,3.47707 c 5.31282,-0.77905 11.300132,-3.17676 15.684892,-6.28128 2.4259,-1.71759 6.22948,-5.43756 8.10703,-7.92882 3.08387,-4.09189 5.33948,-9.10185 6.53332,-14.511238 0.76783,-3.479094 0.82629,-10.66565 0.11387,-13.997471 -1.66564,-7.789774 -4.80276,-13.65385 -10.1296,-18.934766 -5.34259,-5.296523 -11.1733,-8.459054 -18.457922,-10.01143 -3.922797,-0.835962 -10.504406,-0.835962 -14.427203,0 -7.302958,1.556283 -13.11027,4.712196 -18.435997,10.018821 -5.26138,5.24251 -8.439378,11.091012 -10.012324,18.425779 -0.78918,3.680004 -0.847081,10.522557 -0.118124,13.959402 1.100691,5.189473 2.9141,9.575833 5.689258,13.761433 1.72608,2.60335 6.980204,7.85747 9.583552,9.58355 7.813052,5.18025 16.82775,7.24181 25.869248,5.91602 z"
     id="path4701"
     inkscape:connector-curvature="0" /><path
     style="fill:#ffffff;stroke:none;stroke-width:1px;stroke-linecap:butt;stroke-linejoin:miter;stroke-opacity:1;fill-opacity:0"
     d="m 59.448474,161.77233 c -3.205961,-1.02507 -5.603935,-3.07462 -6.893864,-5.8922 -0.91404,-1.99652 -1.136569,-5.80049 -0.498199,-8.51632 1.352864,-5.75551 5.001469,-11.08751 8.888258,-12.98914 3.113607,-1.52335 6.264942,-1.4688 9.60134,0.16621 6.079988,2.9795 7.649791,10.18401 3.959391,18.1714 -3.476911,7.52531 -9.160638,10.94533 -15.056926,9.06005 z"
     id="path4703"
     inkscape:connector-curvature="0" /><path
     style="fill:#ffffff;stroke:none;stroke-width:1px;stroke-linecap:butt;stroke-linejoin:miter;stroke-opacity:1;fill-opacity:0"
     d="m 146.55731,121.64647 c -5.95978,-1.27805 -10.84545,-4.48487 -12.75133,-8.36966 -0.70244,-1.43178 -0.77368,-1.83789 -0.77368,-4.41023 0,-2.65831 0.0566,-2.95407 0.91725,-4.79029 2.61602,-5.581528 8.70528,-7.568863 16.33869,-5.332417 5.14598,1.507677 9.16324,4.412477 10.82748,7.829137 0.71872,1.47552 0.78861,1.87006 0.78861,4.45222 0,2.62119 -0.0639,2.96814 -0.85389,4.63561 -2.48122,5.23732 -7.77924,7.42539 -14.49313,5.98563 z"
     id="path4705"
     inkscape:connector-curvature="0" /><path
     style="fill:#ffffff;stroke:none;stroke-width:1px;stroke-linecap:butt;stroke-linejoin:miter;stroke-opacity:1;fill-opacity:1"
     d="M 81.167344,174.42847 C 55.07916,171.90756 31.919931,158.03408 17.442945,136.25453 10.013552,125.07756 5.5551368,113.12646 3.7361386,99.512464 3.0778467,94.585582 3.086072,83.076535 3.7513412,78.24064 5.2086954,67.647014 8.1789009,58.16174 12.795327,49.358903 26.599438,23.036521 52.728794,5.7154887 82.155434,3.3803998 102.08659,1.7988048 122.32989,7.3810543 138.49878,18.917523 l 1.68884,1.204981 -0.65574,1.13145 c -1.15457,1.992157 -1.5907,4.053383 -1.4454,6.831207 0.11259,2.152488 0.26375,2.774634 1.104,4.543961 1.30096,2.739467 3.26772,4.699384 6.03413,6.013145 1.82972,0.868932 2.39709,1.005955 4.55634,1.100394 2.7144,0.118718 4.75956,-0.314635 6.79414,-1.439624 l 1.14673,-0.634068 1.1897,1.667422 c 8.09341,11.343303 13.1811,24.391418 15.16945,38.904249 0.66667,4.865949 0.67781,16.681743 0.0202,21.373033 -1.71542,12.236787 -5.58542,23.420487 -11.51202,33.267957 -12.20206,20.27462 -32.0459,34.6346 -54.99251,39.7953 -5.95146,1.33849 -10.038281,1.78835 -17.19776,1.89307 -3.710191,0.0543 -7.86436,-0.009 -9.231489,-0.14153 l 3e-6,0 z m -12.787981,-8.46483 c 4.803445,-1.62512 8.807939,-5.74242 11.297604,-11.61585 1.420207,-3.35045 1.952324,-5.77768 1.952324,-8.90544 0,-4.83479 -1.327706,-8.22399 -4.44895,-11.35672 -2.187178,-2.19523 -5.722836,-4.12712 -8.907737,-4.86721 -2.49518,-0.57982 -6.370082,-0.39185 -8.694739,0.42179 -5.652048,1.97822 -10.096587,7.39446 -12.402493,15.11403 -0.88536,2.96395 -0.999129,7.37485 -0.253734,9.83735 1.054355,3.48318 2.892225,6.24525 5.42908,8.15917 5.022214,3.78898 10.864491,4.96004 16.028645,3.21288 z m 53.518087,-1.99195 2.08693,-1.00378 -6.60662,-14.51798 c -3.63363,-7.98489 -6.60611,-14.60252 -6.60549,-14.70585 5.3e-4,-0.10333 2.56169,-1.3414 5.69129,-2.75127 3.1296,-1.40988 5.73918,-2.642 5.79907,-2.73806 0.16382,-0.26276 -1.5199,-3.73791 -1.81102,-3.73791 -0.34462,0 -27.545314,12.36028 -27.832337,12.6473 -0.231333,0.23134 1.383696,3.81245 1.719356,3.81245 0.09968,0 2.700825,-1.15045 5.780321,-2.55655 3.0795,-1.40611 5.68219,-2.5052 5.78374,-2.44244 0.10156,0.0628 3.13949,6.61661 6.75095,14.56409 3.61146,7.94747 6.69918,14.44632 6.86159,14.44187 0.16241,-0.004 1.23441,-0.45978 2.38222,-1.01187 z m 32.46199,-37.17533 c 3.64447,-0.94926 6.92734,-3.24979 8.92613,-6.25513 2.31808,-3.48542 3.65295,-8.85152 3.09555,-12.44399 -1.04359,-6.72615 -5.65611,-11.571353 -13.49439,-14.175143 -5.95334,-1.977634 -10.69221,-1.867802 -15.32504,0.355188 -3.88295,1.863169 -6.49284,4.962824 -8.02395,9.529695 -3.13071,9.33804 0.98847,17.6158 10.70132,21.50501 5.22732,2.09313 9.89812,2.58413 14.12038,1.48437 z M 33.50357,121.42874 c 9.435271,-2.73731 17.194654,-5.01654 17.243075,-5.06496 0.06503,-0.065 -5.764986,-20.568053 -5.946591,-20.913001 -0.01711,-0.03251 -2.392534,0.611653 -5.278703,1.431476 -9.608315,2.729262 -15.413614,3.884775 -19.9637,3.973685 -2.397403,0.0468 -2.707003,-0.01 -4.174619,-0.75962 -1.450617,-0.741443 -3.614712,-2.890839 -3.963191,-3.936276 -0.0935,-0.280496 -0.531541,-0.2398 -2.1235397,0.197279 -2.3335632,0.640676 -2.3613125,0.722157 -1.0227328,3.003099 1.2917538,2.201148 3.9390025,4.793338 5.7347185,5.615448 3.978384,1.82136 11.77122,1.12108 23.017789,-2.06844 2.61474,-0.74154 4.841448,-1.25225 4.94824,-1.13491 0.353884,0.38883 3.216579,10.72139 3.017864,10.89264 -0.107232,0.0924 -7.055445,2.14582 -15.440476,4.56315 -8.385031,2.41732 -15.268289,4.41121 -15.296127,4.43086 -0.02784,0.0196 0.267189,1.09564 0.655617,2.3911 0.435965,1.45401 0.846126,2.35539 1.071785,2.35539 0.201054,0 8.085319,-2.23961 17.520591,-4.97692 z m 60.773198,3.47707 c 5.31282,-0.77905 11.300132,-3.17676 15.684892,-6.28128 2.4259,-1.71759 6.22948,-5.43756 8.10703,-7.92882 3.08387,-4.09189 5.33948,-9.10185 6.53332,-14.511238 0.76783,-3.479094 0.82629,-10.66565 0.11387,-13.997471 -1.66564,-7.789774 -4.80276,-13.65385 -10.1296,-18.934766 -5.34259,-5.296523 -11.1733,-8.459054 -18.457922,-10.01143 -3.922797,-0.835962 -10.504406,-0.835962 -14.427203,0 -7.302958,1.556283 -13.11027,4.712196 -18.435997,10.018821 -5.26138,5.24251 -8.439378,11.091012 -10.012324,18.425779 -0.78918,3.680004 -0.847081,10.522557 -0.118124,13.959402 1.100691,5.189473 2.9141,9.575833 5.689258,13.761433 1.72608,2.60335 6.980204,7.85747 9.583552,9.58355 7.813052,5.18025 16.82775,7.24181 25.869248,5.91602 z"
     id="path4707"
     inkscape:connector-curvature="0" /><path
     style="fill:#ffffff;stroke:none;stroke-width:1px;stroke-linecap:butt;stroke-linejoin:miter;stroke-opacity:1;fill-opacity:1"
     d="M 82.303871,174.54067 C 72.525678,173.53363 65.431796,171.88954 57.749154,168.84981 32.859397,159.0019 14.364349,138.86806 6.6075411,113.17667 4.1703109,105.1043 3.2767545,98.700666 3.2575128,89.168838 3.23934,80.166558 3.7760162,75.628298 5.8102524,67.582273 8.7261902,56.048852 14.396229,44.744835 22.121907,35.062705 24.847732,31.646593 31.609743,24.872775 34.948345,22.213872 54.556984,6.5973128 78.8946,0.22028597 103.21364,4.3267626 c 11.60366,1.9593783 22.67285,6.2746324 32.36651,12.6178764 5.05945,3.310757 4.72465,2.891062 3.78355,4.743024 -2.69191,5.297329 -1.16211,11.977832 3.55482,15.523612 2.12787,1.599551 4.18693,2.354379 6.85175,2.511775 2.46144,0.145382 4.92612,-0.36314 6.77882,-1.398632 1.38428,-0.773686 1.06824,-1.060121 4.33017,3.924635 16.57613,25.331099 18.3836,57.920727 4.72162,85.133527 -11.69586,23.29654 -33.56677,40.15727 -59.07662,45.54335 -5.69574,1.20258 -8.992551,1.53355 -16.260343,1.63235 -3.784395,0.0515 -7.366415,0.0435 -7.960046,-0.0176 l 0,1e-5 z m -14.717372,-8.37654 c 4.922436,-1.37249 8.801445,-5.02089 11.574528,-10.88644 1.714788,-3.62707 2.469486,-6.63842 2.464276,-9.83278 -0.01217,-7.45551 -3.96179,-12.85397 -11.39358,-15.57308 -5.739469,-2.09993 -11.689784,-0.90621 -16.172946,3.24451 -2.23095,2.06552 -3.649767,4.079 -5.230257,7.42242 -3.702479,7.83234 -3.074758,15.26931 1.726682,20.45701 4.334496,4.68319 11.247466,6.78101 17.031297,5.16836 z m 54.296541,-2.20032 2.07252,-0.9959 -6.59221,-14.51777 c -3.62571,-7.98477 -6.5922,-14.60295 -6.5922,-14.70706 0,-0.1041 2.51956,-1.3304 5.59902,-2.72509 3.07946,-1.39469 5.68647,-2.61085 5.79337,-2.70259 0.22899,-0.1965 -1.39229,-3.79856 -1.70973,-3.79856 -0.28374,0 -27.572368,12.4031 -27.804151,12.63742 -0.09771,0.0988 0.192886,1.00188 0.645781,2.00688 0.684666,1.51933 0.910281,1.79972 1.338707,1.66374 0.283396,-0.0899 2.898325,-1.24872 5.810953,-2.57506 2.91263,-1.32634 5.39625,-2.31096 5.51917,-2.18805 0.12291,0.12292 2.8757,6.04494 6.11731,13.16006 6.36874,13.97895 7.22889,15.77824 7.53112,15.75385 0.1088,-0.009 1.13046,-0.46413 2.27034,-1.01187 z m 32.46599,-37.20114 c 5.54868,-1.3811 9.88963,-5.97265 11.48901,-12.15225 1.3548,-5.23464 0.37449,-10.10593 -2.85449,-14.18429 -4.30624,-5.438992 -14.89874,-9.097197 -21.72137,-7.501656 -4.55289,1.064738 -8.36376,3.991599 -10.46784,8.039606 -4.17777,8.03751 -2.40674,16.6843 4.41418,21.5516 5.65272,4.0337 13.23671,5.71647 19.14051,4.24699 z M 32.95556,121.56541 c 9.184246,-2.66215 16.956613,-4.93885 17.271923,-5.05935 0.560983,-0.2144 0.508574,-0.44209 -2.441692,-10.60763 -1.658239,-5.7137 -3.130464,-10.369238 -3.271611,-10.345649 -0.141146,0.02358 -2.927966,0.787591 -6.192934,1.697783 -10.104853,2.816986 -18.168994,4.164806 -21.058066,3.519586 -1.88036,-0.41994 -3.467836,-1.426266 -4.69104,-2.973734 -0.577143,-0.730141 -1.097555,-1.472139 -1.15647,-1.648887 -0.148675,-0.446025 -3.7199029,0.531269 -3.9285862,1.075089 -0.3430375,0.893943 2.5723462,4.964292 4.7136002,6.580952 2.048272,1.54647 4.071552,2.09487 7.728564,2.0948 4.548887,-8e-5 11.0049,-1.20012 19.034778,-3.53818 1.54079,-0.44863 2.894977,-0.71639 3.009302,-0.59501 0.308362,0.32737 3.240637,10.64133 3.093179,10.87992 -0.06952,0.11249 -0.401399,0.26282 -0.73751,0.33407 -1.071576,0.22717 -29.748048,8.61027 -29.87021,8.73207 -0.32249,0.32154 1.122314,4.69442 1.551042,4.69442 0.135904,0 7.761482,-2.17811 16.945731,-4.84025 z m 62.839914,3.08407 c 7.313426,-1.4942 13.481896,-4.81389 18.768886,-10.10088 5.27542,-5.27542 8.46329,-11.15016 10.00412,-18.435993 0.83427,-3.944853 0.83666,-10.530579 0.005,-14.427202 C 121.64929,67.97979 111.37701,57.18028 97.945469,53.690474 92.391783,52.247504 85.710358,52.244307 79.990013,53.681867 66.311354,57.119435 55.623692,68.593636 53.108034,82.542178 c -0.601825,3.336938 -0.593277,9.772084 0.01713,12.905612 0.984544,5.05405 3.252539,10.41175 6.137271,14.4981 1.742505,2.46834 5.95678,6.72362 8.335565,8.41666 5.029991,3.57998 10.68998,5.81958 16.864504,6.67311 2.587282,0.35765 8.71404,0.14887 11.332946,-0.38619 l 1.9e-5,1e-5 z"
     id="path4709"
     inkscape:connector-curvature="0" /><path
     style="fill:#ffffff;stroke:none;stroke-width:1px;stroke-linecap:butt;stroke-linejoin:miter;stroke-opacity:1;fill-opacity:1"
     d="m 59.448474,161.77233 c -3.205961,-1.02507 -5.603935,-3.07462 -6.893864,-5.8922 -0.91404,-1.99652 -1.136569,-5.80049 -0.498199,-8.51632 1.352864,-5.75551 5.001469,-11.08751 8.888258,-12.98914 3.113607,-1.52335 6.264942,-1.4688 9.60134,0.16621 6.079988,2.9795 7.649791,10.18401 3.959391,18.1714 -3.476911,7.52531 -9.160638,10.94533 -15.056926,9.06005 z"
     id="path4711"
     inkscape:connector-curvature="0" /><path
     style="fill:#ffffff;stroke:none;stroke-width:1px;stroke-linecap:butt;stroke-linejoin:miter;stroke-opacity:1;fill-opacity:1"
     d="m 146.55731,121.64647 c -5.95978,-1.27805 -10.84545,-4.48487 -12.75133,-8.36966 -0.70244,-1.43178 -0.77368,-1.83789 -0.77368,-4.41023 0,-2.65831 0.0566,-2.95407 0.91725,-4.79029 2.61602,-5.581528 8.70528,-7.568863 16.33869,-5.332417 5.14598,1.507677 9.16324,4.412477 10.82748,7.829137 0.71872,1.47552 0.78861,1.87006 0.78861,4.45222 0,2.62119 -0.0639,2.96814 -0.85389,4.63561 -2.48122,5.23732 -7.77924,7.42539 -14.49313,5.98563 z"
     id="path4713"
     inkscape:connector-curvature="0" /></svg>