<?xml version="1.0" encoding="UTF-8" standalone="no"?>
<!-- Generator: Adobe Illustrator 16.2.1, SVG Export Plug-In . SVG Version: 6.00 Build 0)  -->

<svg
   xmlns:dc="http://purl.org/dc/elements/1.1/"
   xmlns:cc="http://creativecommons.org/ns#"
   xmlns:rdf="http://www.w3.org/1999/02/22-rdf-syntax-ns#"
   xmlns:svg="http://www.w3.org/2000/svg"
   xmlns="http://www.w3.org/2000/svg"
   xmlns:sodipodi="http://sodipodi.sourceforge.net/DTD/sodipodi-0.dtd"
   xmlns:inkscape="http://www.inkscape.org/namespaces/inkscape"
   version="1.1"
   id="Layer_1"
   x="0px"
   y="0px"
   width="177.845"
   height="177.84599"
   viewBox="0 0 177.845 177.846"
   enable-background="new 0 0 512 177.846"
   xml:space="preserve"
   inkscape:version="0.91 r13725"
   sodipodi:docname="Ionic_Logo-6-w.svg"><metadata
     id="metadata27"><rdf:RDF><cc:Work
         rdf:about=""><dc:format>image/svg+xml</dc:format><dc:type
           rdf:resource="http://purl.org/dc/dcmitype/StillImage" /><dc:title></dc:title></cc:Work></rdf:RDF></metadata><defs
     id="defs25" /><sodipodi:namedview
     pagecolor="#ffffff"
     bordercolor="#666666"
     borderopacity="1"
     objecttolerance="10"
     gridtolerance="10"
     guidetolerance="10"
     inkscape:pageopacity="0"
     inkscape:pageshadow="2"
     inkscape:window-width="1680"
     inkscape:window-height="986"
     id="namedview23"
     showgrid="false"
     showguides="true"
     inkscape:guide-bbox="true"
     fit-margin-top="0"
     fit-margin-left="0"
     fit-margin-right="0"
     fit-margin-bottom="0"
     inkscape:zoom="2.4675092"
     inkscape:cx="170.69981"
     inkscape:cy="128.81837"
     inkscape:window-x="0"
     inkscape:window-y="27"
     inkscape:window-maximized="1"
     inkscape:current-layer="Layer_1"><sodipodi:guide
       position="88.95408,84.445103"
       orientation="1,0"
       id="guide4203" /><sodipodi:guide
       position="130.7875,88.549898"
       orientation="0,1"
       id="guide4205" /><sodipodi:guide
       position="117.21928,80.630801"
       orientation="0,1"
       id="guide4209" /></sodipodi:namedview><circle
     style="fill:#4e8ef7"
     id="circle19"
     r="36.306"
     cy="88.921997"
     cx="88.923004" /><path
     style="fill:#4e8ef7"
     inkscape:connector-curvature="0"
     id="path21"
     d="m 163.014,27.317 c 0,-6.896 -5.592,-12.484 -12.486,-12.484 -3.129,0 -5.979,1.158 -8.171,3.06 C 127.47,6.665 108.961,0 88.922,0 39.89,0 0,39.891 0,88.923 c 0,49.031 39.891,88.923 88.923,88.923 49.032,0 88.922,-39.892 88.922,-88.923 0,-20.039 -6.665,-38.548 -17.892,-53.436 1.902,-2.19 3.061,-5.042 3.061,-8.17 z M 88.922,174.854 C 41.54,174.854 2.99,136.304 2.99,88.922 2.99,41.54 41.54,2.99 88.922,2.99 c 19.266,0 37.069,6.374 51.417,17.123 -1.442,2.036 -2.297,4.518 -2.297,7.203 0,6.895 5.59,12.483 12.484,12.483 2.686,0 5.165,-0.855 7.202,-2.297 10.749,14.348 17.123,32.151 17.123,51.419 0.002,47.383 -38.546,85.933 -85.929,85.933 z" /><path
     style="fill:none;fill-opacity:1;stroke:none;stroke-width:1.886518;stroke-linejoin:round;stroke-miterlimit:4;stroke-dasharray:none;stroke-opacity:1;image-rendering:auto"
     d="M 169.20914,89.414856 A 80.471258,80.003709 0 0 0 88.737882,9.4111468 80.471258,80.003709 0 0 0 8.2666238,89.414856 80.471258,80.003709 0 0 0 88.737882,169.41857 80.471258,80.003709 0 0 0 169.20914,89.414856 Z"
     id="path3374"
     inkscape:connector-curvature="0" /><g
     transform="matrix(0.0297159,-0.99955838,0.99955838,0.0297159,-3.711686,176.66351)"
     inkscape:transform-center-x="1.3615323"
     inkscape:transform-center-y="58.249415"
     style="font-style:normal;font-variant:normal;font-weight:600;font-stretch:normal;font-size:50px;line-height:125%;font-family:'URW Gothic L';-inkscape-font-specification:'URW Gothic L, Semi-Bold';text-align:center;letter-spacing:2px;word-spacing:0px;writing-mode:lr-tb;text-anchor:middle;fill:#4e8ef7;fill-opacity:1;stroke:none;stroke-width:1px;stroke-linecap:butt;stroke-linejoin:miter;stroke-opacity:1"
     id="text4193"><path
       d="M 70.53519,50.188952 75.769393,48.198195 75.999858,8.5782579 69.690774,10.977832 69.959449,40.939438 49.735374,18.567596 43.940364,20.77165 70.53519,50.188952 Z"
       style=""
       id="path4141" /><path
       d="m 49.841769,71.536834 c 4.741495,-9.925635 0.870917,-21.194669 -8.874252,-25.849954 -9.609819,-4.590629 -20.941498,-0.472917 -25.618336,9.317369 -4.633733,9.700052 -0.676946,20.78862 9.068223,25.443906 9.519586,4.547524 20.876841,0.608266 25.424365,-8.911321 z M 43.929493,68.601705 C 40.976835,74.782668 33.707927,77.239389 27.301381,74.17897 20.894834,71.118551 18.3088,64.120342 21.326115,57.804029 c 3.017314,-6.316313 10.350879,-8.908384 16.667192,-5.891069 6.451663,3.081971 8.996605,10.282198 5.936186,16.688745 z"
       style=""
       id="path4143" /><path
       d="m 12.208917,114.43579 2.417525,6.40922 28.443828,-10.72887 3.299833,8.74835 6.128522,-2.31165 -9.017191,-23.905916 -6.128522,2.311647 3.299833,8.748349 -28.443828,10.72887 z"
       style=""
       id="path4145" /><path
       d="m 70.765616,127.93451 c -9.975309,-4.63608 -21.202707,-0.64633 -25.754493,9.14761 -4.488567,9.65791 -0.25104,20.94533 9.588241,25.51819 9.748597,4.53071 20.794626,0.45668 25.346412,-9.33726 4.44642,-9.56723 0.387067,-20.88212 -9.18016,-25.32854 z m -2.872332,5.94304 c 6.211896,2.88701 8.745485,10.12949 5.753107,16.5681 -2.992378,6.4386 -9.962799,9.09863 -16.310722,6.1484 -6.347924,-2.95023 -9.017539,-10.25593 -6.067307,-16.60385 3.013451,-6.48395 10.186314,-9.10503 16.624922,-6.11265 z"
       style=""
       id="path4147" /></g><path
     style="fill:#ffffff;stroke:none;stroke-width:1px;stroke-linecap:butt;stroke-linejoin:miter;stroke-opacity:1;fill-opacity:1"
     d="M 82.338534,174.43291 C 64.964807,173.00303 48.505152,166.4156 34.901361,155.44776 31.051973,152.34426 23.634608,144.69689 20.674805,140.78007 11.626872,128.80659 5.8633919,114.79976 3.9488007,100.1313 3.151186,94.020454 3.1493044,83.814724 3.9446613,77.680498 8.5309432,42.308592 35.419742,12.949095 70.255089,5.2770815 77.125977,3.7638623 81.8075,3.2830009 89.443784,3.3061205 c 13.866616,0.041983 26.000336,2.9736384 38.297726,9.2532025 6.11826,3.124234 11.98811,7.008525 11.8725,7.856455 -0.0456,0.334346 -0.4754,1.702122 -0.95514,3.039503 -3.56469,9.937408 6.82968,19.511994 16.75271,15.43146 l 2.34089,-0.962614 0.95853,1.276184 c 7.35235,9.788885 12.83386,23.366067 15.07727,37.344945 0.99398,6.193622 0.99748,18.620057 0.007,24.721284 -4.03662,24.86399 -17.02061,45.29888 -37.50968,59.0347 -15.54164,10.41907 -35.50761,15.64925 -53.947018,14.13167 l -8e-6,0 z m 32.023956,-7.51134 c 1.6355,-0.55627 3.04632,-1.08409 3.13517,-1.17294 0.0888,-0.0888 -2.03801,-6.58075 -4.72635,-14.42646 -2.68833,-7.8457 -4.88788,-14.30324 -4.88788,-14.35008 0,-0.0468 1.91489,-0.70406 4.25531,-1.46049 2.34041,-0.75642 4.2553,-1.57746 4.2553,-1.82452 0,-0.24706 -0.43468,-1.71572 -0.96595,-3.26369 -0.63036,-1.83669 -1.15835,-2.77332 -1.51975,-2.69599 -1.21048,0.25903 -23.269168,7.9062 -23.56015,8.16769 -0.171266,0.1539 0.182548,1.6532 0.786258,3.33176 l 1.097658,3.05193 4.363959,-1.44173 c 2.400174,-0.79296 4.431725,-1.35813 4.514555,-1.25594 0.0828,0.10219 2.31761,6.52316 4.9662,14.26882 2.64858,7.74567 4.9273,14.08303 5.06382,14.08303 0.13653,0 1.58636,-0.45513 3.22185,-1.01139 z M 68.272041,163.5873 c 6.924477,-3.25803 11.25839,-10.06672 11.280185,-17.72147 0.02529,-8.87771 -5.519587,-16.13145 -14.163275,-18.52828 -9.207411,-2.55314 -18.489735,1.71462 -22.612868,10.39676 -1.276073,2.68705 -1.498557,3.60353 -1.669871,6.87873 -0.16153,3.08815 -0.04066,4.29551 0.66146,6.60708 1.880691,6.19176 6.683085,11.05362 12.959471,13.11993 1.773412,0.58384 3.262796,0.73069 6.550585,0.64582 3.812071,-0.0984 4.540599,-0.24407 6.994313,-1.39857 z m 79.516019,-26.26533 c 12.58862,-3.27892 18.84171,-18.30535 12.05275,-28.96326 -7.90423,-12.408736 -25.62067,-12.192493 -33.20295,0.40527 -2.55368,4.24286 -3.30019,10.87114 -1.77595,15.76855 2.95523,9.49515 13.33753,15.28696 22.92615,12.78944 z M 33.922207,120.32235 c 7.578492,-6.42236 14.004162,-11.88193 14.279266,-12.13236 0.394126,-0.35878 0.314248,-1.02724 -0.376724,-3.15249 l -0.876909,-2.69715 -3.270683,-0.23314 c -3.412229,-0.24322 -36.434849,-1.38759 -36.5932305,-1.2681 -0.049862,0.0376 0.3991733,1.56255 0.9978572,3.38873 l 1.0885168,3.32034 5.2837805,0.0549 c 2.90608,0.0302 9.579711,0.16699 14.830292,0.30395 l 9.54651,0.24903 -10.15441,8.63532 c -5.584927,4.74942 -10.685848,9.0977 -11.33538,9.66283 l -1.180968,1.02753 0.737323,2.0899 c 0.405527,1.14945 0.89695,2.52679 1.092051,3.06075 l 0.354727,0.97085 0.899452,-0.80195 c 0.494698,-0.44107 7.100036,-6.0566 14.678529,-12.47896 z m 64.754305,3.66949 C 115.4161,119.0652 125.984,104.43371 125.18893,87.284831 124.68122,76.334043 120.04113,67.17184 111.60051,60.453526 99.935506,51.168754 83.86072,49.942611 70.725369,57.335678 66.410471,59.764265 59.71632,66.435142 57.345646,70.668885 c -3.777721,6.74656 -5.508859,15.021691 -4.633175,22.147318 1.989444,16.188427 13.801473,28.967747 29.531271,31.949587 4.724189,0.89555 11.910172,0.5571 16.43277,-0.77395 z"
     id="path4149"
     inkscape:connector-curvature="0" /><path
     style="fill:#ffffff;stroke:none;stroke-width:1px;stroke-linecap:butt;stroke-linejoin:miter;stroke-opacity:1;fill-opacity:1"
     d="m 56.24866,157.59329 c -5.605451,-2.13985 -9.104389,-8.16235 -7.955993,-13.69415 0.862331,-4.15382 3.163193,-7.2812 6.678065,-9.07694 5.799079,-2.96275 13.237313,-0.51804 16.22884,5.33389 1.052334,2.05855 1.219847,2.8204 1.200414,5.45954 -0.01627,2.21008 -0.260987,3.59665 -0.875737,4.96204 -1.081377,2.40179 -3.851049,5.4225 -5.973001,6.51438 -2.13229,1.0972 -7.047649,1.36205 -9.302588,0.50124 z"
     id="path4151"
     inkscape:connector-curvature="0" /><path
     style="fill:#ffffff;stroke:none;stroke-width:1px;stroke-linecap:butt;stroke-linejoin:miter;stroke-opacity:1;fill-opacity:1"
     d="m 139.44655,130.0889 c -6.65669,-2.37878 -9.90667,-8.83099 -7.81981,-15.52476 0.9935,-3.18674 4.29342,-6.57134 7.41915,-7.60954 5.90807,-1.96235 13.04011,1.07406 15.58776,6.63636 1.17861,2.57326 1.18189,7.21864 0.007,9.78322 -1.24717,2.72215 -3.13599,4.65064 -5.91522,6.03944 -2.02435,1.01158 -2.95379,1.23156 -5.14184,1.21699 -1.46895,-0.01 -3.33058,-0.25355 -4.13696,-0.54171 z"
     id="path4153"
     inkscape:connector-curvature="0" /></svg>