<?xml version="1.0" encoding="UTF-8" standalone="no"?>
<!-- Generator: Adobe Illustrator 16.2.1, SVG Export Plug-In . SVG Version: 6.00 Build 0)  -->

<svg
   xmlns:dc="http://purl.org/dc/elements/1.1/"
   xmlns:cc="http://creativecommons.org/ns#"
   xmlns:rdf="http://www.w3.org/1999/02/22-rdf-syntax-ns#"
   xmlns:svg="http://www.w3.org/2000/svg"
   xmlns="http://www.w3.org/2000/svg"
   xmlns:sodipodi="http://sodipodi.sourceforge.net/DTD/sodipodi-0.dtd"
   xmlns:inkscape="http://www.inkscape.org/namespaces/inkscape"
   version="1.1"
   id="Layer_1"
   x="0px"
   y="0px"
   width="177.845"
   height="177.84599"
   viewBox="0 0 177.845 177.846"
   enable-background="new 0 0 512 177.846"
   xml:space="preserve"
   inkscape:version="0.91 r13725"
   sodipodi:docname="Ionic_Logo-3.svg"><metadata
     id="metadata27"><rdf:RDF><cc:Work
         rdf:about=""><dc:format>image/svg+xml</dc:format><dc:type
           rdf:resource="http://purl.org/dc/dcmitype/StillImage" /><dc:title /></cc:Work></rdf:RDF></metadata><defs
     id="defs25" /><sodipodi:namedview
     pagecolor="#ffffff"
     bordercolor="#666666"
     borderopacity="1"
     objecttolerance="10"
     gridtolerance="10"
     guidetolerance="10"
     inkscape:pageopacity="0"
     inkscape:pageshadow="2"
     inkscape:window-width="1680"
     inkscape:window-height="986"
     id="namedview23"
     showgrid="false"
     showguides="true"
     inkscape:guide-bbox="true"
     fit-margin-top="0"
     fit-margin-left="0"
     fit-margin-right="0"
     fit-margin-bottom="0"
     inkscape:zoom="4.9350182"
     inkscape:cx="83.817777"
     inkscape:cy="83.469228"
     inkscape:window-x="0"
     inkscape:window-y="27"
     inkscape:window-maximized="1"
     inkscape:current-layer="Layer_1"><sodipodi:guide
       position="88.95408,84.445103"
       orientation="1,0"
       id="guide4203" /><sodipodi:guide
       position="130.7875,88.549898"
       orientation="0,1"
       id="guide4205" /><sodipodi:guide
       position="117.21928,80.630801"
       orientation="0,1"
       id="guide4209" /></sodipodi:namedview><circle
     style="fill:#4e8ef7"
     id="circle19"
     r="36.306"
     cy="88.921997"
     cx="88.923004" /><path
     style="fill:#4e8ef7"
     inkscape:connector-curvature="0"
     id="path21"
     d="m 163.014,27.317 c 0,-6.896 -5.592,-12.484 -12.486,-12.484 -3.129,0 -5.979,1.158 -8.171,3.06 C 127.47,6.665 108.961,0 88.922,0 39.89,0 0,39.891 0,88.923 c 0,49.031 39.891,88.923 88.923,88.923 49.032,0 88.922,-39.892 88.922,-88.923 0,-20.039 -6.665,-38.548 -17.892,-53.436 1.902,-2.19 3.061,-5.042 3.061,-8.17 z M 88.922,174.854 C 41.54,174.854 2.99,136.304 2.99,88.922 2.99,41.54 41.54,2.99 88.922,2.99 c 19.266,0 37.069,6.374 51.417,17.123 -1.442,2.036 -2.297,4.518 -2.297,7.203 0,6.895 5.59,12.483 12.484,12.483 2.686,0 5.165,-0.855 7.202,-2.297 10.749,14.348 17.123,32.151 17.123,51.419 0.002,47.383 -38.546,85.933 -85.929,85.933 z" /><path
     style="fill:none;fill-opacity:1;stroke:none;stroke-width:1.886518;stroke-linejoin:round;stroke-miterlimit:4;stroke-dasharray:none;stroke-opacity:1;image-rendering:auto"
     d="M 169.20914,89.414856 A 80.471258,80.003709 0 0 0 88.737882,9.4111468 80.471258,80.003709 0 0 0 8.2666238,89.414856 80.471258,80.003709 0 0 0 88.737882,169.41857 80.471258,80.003709 0 0 0 169.20914,89.414856 Z"
     id="path3374"
     inkscape:connector-curvature="0" /><g
     transform="matrix(0.01016294,-0.99994835,0.99994835,0.01016294,-1.6175638,178.47079)"
     inkscape:transform-center-x="0.81622507"
     inkscape:transform-center-y="58.899594"
     style="font-style:normal;font-variant:normal;font-weight:normal;font-stretch:semi-condensed;font-size:50px;line-height:125%;font-family:'DejaVu Sans';-inkscape-font-specification:'DejaVu Sans, Semi-Condensed';text-align:center;letter-spacing:0px;word-spacing:0px;writing-mode:lr-tb;text-anchor:middle;fill:#4e8ef7;fill-opacity:1;stroke:none;stroke-width:1px;stroke-linecap:butt;stroke-linejoin:miter;stroke-opacity:1"
     id="text4193"><path
       d="m 69.389229,10.293284 1.700758,3.785917 q -3.87246,2.997564 -3.478855,7.210109 0.844082,6.526034 6.846755,19.888093 l 2.541132,5.656605 -17.79381,7.99356 L 44.268557,21.57831 48.321715,19.757499 61.55761,49.22084 71.267373,44.858898 69.426553,40.7612 Q 63.764032,28.156323 63.171704,21.356607 62.600346,14.84188 69.389229,10.293284 Z"
       style=""
       id="path4141" /><path
       d="m 44.355384,72.972472 q 1.708271,-4.522081 -1.027858,-8.609151 -2.744757,-4.064231 -9.208135,-6.505851 -6.440539,-2.432993 -11.186906,-1.198625 -4.754995,1.257207 -6.463266,5.779288 -1.708271,4.522081 1.036485,8.586313 2.744757,4.064231 9.185296,6.497223 6.463378,2.44162 11.209745,1.207252 4.746367,-1.234368 6.454639,-5.756449 z m 3.745561,1.414932 q -2.44162,6.463378 -8.718674,8.502703 -6.254217,2.047953 -14.339149,-1.006228 -8.062093,-3.045555 -11.423009,-8.725741 -3.338076,-5.671558 -0.896456,-12.134936 2.44162,-6.463379 8.704464,-8.53417 6.254216,-2.047953 14.339148,1.006228 8.084932,3.054182 11.423009,8.725741 3.352287,5.703025 0.910667,12.166403 z"
       style=""
       id="path4143" /><path
       d="m 42.688936,93.129052 10.597114,25.629998 -3.835475,1.58583 -4.449668,-10.76189 -29.849019,12.34154 -1.697777,-4.10622 29.849018,-12.34153 -4.449668,-10.761893 3.835475,-1.585835 z"
       style=""
       id="path4145" /><path
       d="m 68.773788,131.96481 q -4.39004,-2.0236 -8.660267,0.41684 -4.248055,2.45065 -7.14037,8.7253 -2.882094,6.25248 -1.986264,11.07422 0.918003,4.83196 5.308044,6.85556 4.39004,2.0236 8.638095,-0.42706 4.248054,-2.45065 7.130149,-8.70313 2.892315,-6.27465 1.996484,-11.09639 -0.895831,-4.82174 -5.285871,-6.84534 z m 1.676112,-3.63619 q 6.274654,2.89231 7.865247,9.2978 1.600814,6.38332 -2.017135,14.23218 -3.607729,7.82669 -9.511244,10.77775 -5.893296,2.92889 -12.167949,0.0366 -6.274654,-2.89231 -7.89764,-9.28585 -1.600813,-6.38331 2.017136,-14.23217 3.617948,-7.84886 9.511244,-10.77775 5.925687,-2.94085 12.200341,-0.0485 z"
       style=""
       id="path4147" /></g><path
     style="fill:#ffffff;stroke:none;stroke-width:1px;stroke-linecap:butt;stroke-linejoin:miter;stroke-opacity:1;fill-opacity:1"
     d="M 82.804609,174.5731 C 70.626231,173.49603 60.719412,170.75711 50.503326,165.64283 26.831908,153.79266 9.9758036,131.6948 4.705081,105.60266 3.694119,100.598 3.3505134,97.16562 3.22957,90.863317 3.0761524,82.868808 3.5079763,77.984497 4.9899091,70.952333 11.189829,41.532065 33.060937,17.082377 61.730725,7.5218395 80.263668,1.341644 100.19969,1.6271572 118.50748,8.3349666 c 4.29179,1.5724708 8.81357,3.6796504 12.84623,5.9864264 2.31302,1.323098 8.18941,5.181665 8.54629,5.611677 0.1917,0.230983 0.1007,0.55526 -0.44675,1.591939 -1.08159,2.0482 -1.41353,3.43321 -1.40471,5.861122 0.006,1.742569 0.10511,2.423924 0.54579,3.764608 1.66951,5.079238 6.37289,8.597971 11.58592,8.667756 2.30252,0.03082 3.93089,-0.326009 5.92387,-1.298131 1.12782,-0.55012 1.64325,-0.707633 1.82418,-0.557469 0.13871,0.115116 0.97095,1.270266 1.84944,2.566999 11.59456,17.114812 16.63279,37.036722 14.50368,57.34976 -2.6605,25.382946 -16.6175,48.382116 -37.98157,62.588276 -11.204,7.45017 -23.32689,11.89494 -37.487195,13.74441 -2.419877,0.31606 -13.651501,0.56918 -16.008046,0.36076 z m -14.792245,-7.41119 c 1.369383,-0.32539 3.729082,-1.45785 5.149061,-2.47113 3.314472,-2.36515 6.222757,-6.73872 7.991354,-12.01763 2.821471,-8.42152 0.963371,-16.17613 -4.789111,-19.98693 -2.768581,-1.83408 -5.422403,-2.64266 -8.655254,-2.63712 -1.889112,0.003 -2.476137,0.0881 -3.850037,0.55631 -4.398589,1.4991 -7.94533,4.87709 -10.52436,10.02361 -2.018929,4.02882 -3.015655,7.97165 -3.004036,11.88329 0.0094,3.16378 0.422783,4.96288 1.712782,7.45423 2.810636,5.42811 9.922199,8.63234 15.969601,7.19537 z m 50.515616,-1.72686 c 1.44828,-0.55798 1.96302,-0.8469 1.90397,-1.06868 -0.0445,-0.16717 -2.70359,-6.82368 -5.90905,-14.79224 -3.20546,-7.96856 -5.86844,-14.59063 -5.91772,-14.7157 -0.0539,-0.13686 1.99253,-1.05641 5.13995,-2.30959 2.87626,-1.1452 5.30297,-2.14668 5.3927,-2.2255 0.12524,-0.11002 -0.97691,-3.1627 -1.40024,-3.87831 -0.0676,-0.11422 -25.538734,10.0199 -25.773061,10.25423 -0.07778,0.0778 1.301271,3.74129 1.476016,3.92111 0.0339,0.0349 2.453513,-0.90638 5.376917,-2.09172 2.923398,-1.18532 5.379648,-2.08013 5.458328,-1.98844 0.0787,0.0917 2.68264,6.50405 5.78659,14.24972 3.10395,7.74567 5.76474,14.37938 5.91287,14.74159 0.14813,0.3622 0.33649,0.66074 0.41858,0.66341 0.0821,0.003 1.04246,-0.33928 2.13415,-0.75988 z M 37.230674,127.16471 c 9.072816,-3.96655 16.530964,-7.24616 16.573665,-7.28802 0.07294,-0.0715 -7.328811,-17.1564 -7.676364,-17.71875 -0.12215,-0.19764 -1.310824,0.23557 -4.893232,1.78337 -9.903362,4.27878 -16.701862,6.57893 -20.82338,7.04523 -2.25176,0.25476 -5.006128,-0.9104 -6.552268,-2.77175 l -0.659981,-0.79453 -1.924574,0.84225 c -1.058515,0.46323 -1.9480584,0.86043 -1.9767625,0.88266 -0.028704,0.0222 0.3905195,0.62483 0.9316085,1.33911 1.739292,2.29602 3.804623,3.86258 6.134421,4.65298 1.146186,0.38885 1.583701,0.42648 3.827052,0.32918 1.393105,-0.0604 3.216632,-0.26129 4.052283,-0.44637 3.862079,-0.85538 9.095391,-2.69571 15.598207,-5.48521 2.170517,-0.93109 4.012425,-1.62682 4.09313,-1.54608 0.302192,0.30233 4.158149,9.27069 4.03956,9.39539 -0.06804,0.0715 -6.643441,2.97411 -14.612003,6.45016 -7.968562,3.47605 -14.555047,6.38396 -14.636633,6.46201 -0.199045,0.19043 1.504744,4.08028 1.787197,4.08028 0.122126,0 7.645259,-3.24536 16.718074,-7.21191 z m 115.786446,5.99824 c 4.52754,-1.4477 7.72806,-4.63943 9.30687,-9.28132 1.54718,-4.5489 0.93777,-8.6049 -1.9279,-12.83135 -2.85464,-4.21018 -9.48271,-8.24006 -15.82117,-9.61929 -2.18708,-0.47591 -5.93305,-0.43061 -7.92976,0.0959 -4.06328,1.07143 -6.99281,3.40291 -8.94042,7.11527 -2.53497,4.83196 -2.43077,9.63096 0.30934,14.24632 1.07547,1.8115 4.01476,4.79263 6.02496,6.11072 3.01141,1.97458 6.93474,3.66658 10.16352,4.38319 2.42721,0.5387 6.78265,0.43027 8.81456,-0.21944 z m -57.881477,-8.38658 c 7.422457,-1.39111 13.598327,-4.51891 18.848147,-9.54572 9.29763,-8.90269 13.19878,-21.660152 10.43458,-34.122971 -2.43824,-10.993132 -9.65452,-20.106614 -19.72934,-24.916266 -4.44391,-2.12149 -7.970649,-3.07283 -13.020192,-3.512196 -9.582504,-0.833786 -19.696845,2.593115 -26.931966,9.124979 -6.022713,5.437306 -9.935756,12.316002 -11.555479,20.313253 -0.410926,2.028918 -0.466557,2.877132 -0.457159,6.970582 0.01216,5.293014 0.261209,6.927917 1.725333,11.325719 3.638752,10.92975 12.183651,19.44862 23.105408,23.035 2.074813,0.68131 5.374316,1.42356 7.478603,1.68237 1.577599,0.19404 8.464309,-0.0478 10.102065,-0.35475 z"
     id="path4149"
     inkscape:connector-curvature="0" /><path
     style="fill:#ffffff;stroke:none;stroke-width:1px;stroke-linecap:butt;stroke-linejoin:miter;stroke-opacity:1;fill-opacity:1"
     d="m 61.62704,162.77037 c -3.587786,-1.31714 -5.699928,-3.72203 -6.391243,-7.2771 -0.338643,-1.74146 -0.138474,-5.38847 0.406395,-7.40435 2.510491,-9.28822 8.399137,-14.89575 14.327081,-13.64313 4.016956,0.84881 6.746787,3.52091 7.547216,7.38758 0.511305,2.47 0.160435,5.99067 -0.922692,9.25839 -1.812415,5.46792 -4.749274,9.42297 -8.300318,11.17799 -1.45838,0.72078 -1.696146,0.77501 -3.606114,0.82254 -1.578656,0.0393 -2.276292,-0.0341 -3.060325,-0.32192 z"
     id="path4151"
     inkscape:connector-curvature="0" /><path
     style="fill:#ffffff;stroke:none;stroke-width:1px;stroke-linecap:butt;stroke-linejoin:miter;stroke-opacity:1;fill-opacity:1"
     d="m 146.04923,128.87951 c -2.57839,-0.42819 -6.49719,-2.07763 -9.4282,-3.96838 -3.94607,-2.54556 -6.40018,-6.28088 -6.40018,-9.74152 0,-4.32279 2.79471,-8.00032 6.88954,-9.06587 1.75773,-0.4574 5.55005,-0.31292 7.6449,0.29125 3.73859,1.07823 7.55727,3.1591 10.00672,5.45285 1.9118,1.79026 3.07686,3.47698 3.62301,5.24523 1.3014,4.21343 -0.71321,9.01975 -4.60165,10.97834 -1.8679,0.94085 -4.97796,1.2658 -7.73414,0.8081 z"
     id="path4153"
     inkscape:connector-curvature="0" /></svg>