<?xml version="1.0" encoding="UTF-8" standalone="no"?>
<!-- Generator: Adobe Illustrator 16.2.1, SVG Export Plug-In . SVG Version: 6.00 Build 0)  -->

<svg
   xmlns:dc="http://purl.org/dc/elements/1.1/"
   xmlns:cc="http://creativecommons.org/ns#"
   xmlns:rdf="http://www.w3.org/1999/02/22-rdf-syntax-ns#"
   xmlns:svg="http://www.w3.org/2000/svg"
   xmlns="http://www.w3.org/2000/svg"
   xmlns:sodipodi="http://sodipodi.sourceforge.net/DTD/sodipodi-0.dtd"
   xmlns:inkscape="http://www.inkscape.org/namespaces/inkscape"
   version="1.1"
   id="Layer_1"
   x="0px"
   y="0px"
   width="177.845"
   height="177.84599"
   viewBox="0 0 177.845 177.846"
   enable-background="new 0 0 512 177.846"
   xml:space="preserve"
   inkscape:version="0.91 r13725"
   sodipodi:docname="Ionic_Logo-6-splash.svg"><metadata
     id="metadata27"><rdf:RDF><cc:Work
         rdf:about=""><dc:format>image/svg+xml</dc:format><dc:type
           rdf:resource="http://purl.org/dc/dcmitype/StillImage" /><dc:title></dc:title></cc:Work></rdf:RDF></metadata><defs
     id="defs25" /><sodipodi:namedview
     pagecolor="#ffffff"
     bordercolor="#666666"
     borderopacity="1"
     objecttolerance="10"
     gridtolerance="10"
     guidetolerance="10"
     inkscape:pageopacity="0"
     inkscape:pageshadow="2"
     inkscape:window-width="1680"
     inkscape:window-height="986"
     id="namedview23"
     showgrid="false"
     showguides="true"
     inkscape:guide-bbox="true"
     fit-margin-top="0"
     fit-margin-left="0"
     fit-margin-right="0"
     fit-margin-bottom="0"
     inkscape:zoom="3.3782609"
     inkscape:cx="83"
     inkscape:cy="134.36165"
     inkscape:window-x="0"
     inkscape:window-y="27"
     inkscape:window-maximized="1"
     inkscape:current-layer="Layer_1"
     showborder="false"><sodipodi:guide
       position="88.95408,84.44531"
       orientation="1,0"
       id="guide4203" /><sodipodi:guide
       position="130.7875,88.550105"
       orientation="0,1"
       id="guide4205" /><sodipodi:guide
       position="117.21928,80.631008"
       orientation="0,1"
       id="guide4209" /></sodipodi:namedview><circle
     style="fill:#4e8ef7"
     id="circle19"
     r="36.306"
     cy="88.921928"
     cx="88.923004" /><path
     style="fill:#4e8ef7"
     inkscape:connector-curvature="0"
     id="path21"
     d="m 163.014,27.317 c 0,-6.896 -5.592,-12.484 -12.486,-12.484 -3.129,0 -5.979,1.158 -8.171,3.06 C 127.47,6.665 108.961,0 88.922,0 39.89,0 0,39.891 0,88.923 c 0,49.031 39.891,88.923 88.923,88.923 49.032,0 88.922,-39.892 88.922,-88.923 0,-20.039 -6.665,-38.548 -17.892,-53.436 1.902,-2.19 3.061,-5.042 3.061,-8.17 z M 88.922,174.854 C 41.54,174.854 2.99,136.304 2.99,88.922 2.99,41.54 41.54,2.99 88.922,2.99 c 19.266,0 37.069,6.374 51.417,17.123 -1.442,2.036 -2.297,4.518 -2.297,7.203 0,6.895 5.59,12.483 12.484,12.483 2.686,0 5.165,-0.855 7.202,-2.297 10.749,14.348 17.123,32.151 17.123,51.419 0.002,47.383 -38.546,85.933 -85.929,85.933 z" /><path
     style="fill:none;fill-opacity:1;stroke:none;stroke-width:1.886518;stroke-linejoin:round;stroke-miterlimit:4;stroke-dasharray:none;stroke-opacity:1;image-rendering:auto"
     d="M 169.20914,89.4149 A 80.471258,80.003709 0 0 0 88.737882,9.4112 80.471258,80.003709 0 0 0 8.2666238,89.4149 80.471258,80.003709 0 0 0 88.737882,169.4186 80.471258,80.003709 0 0 0 169.20914,89.4149 Z"
     id="path3374"
     inkscape:connector-curvature="0" /><g
     transform="matrix(0.0297159,-0.99955838,0.99955838,0.0297159,-3.7116862,176.6635)"
     inkscape:transform-center-x="1.3615323"
     inkscape:transform-center-y="58.249415"
     style="font-style:normal;font-variant:normal;font-weight:600;font-stretch:normal;font-size:50px;line-height:125%;font-family:'URW Gothic L';-inkscape-font-specification:'URW Gothic L, Semi-Bold';text-align:center;letter-spacing:2px;word-spacing:0px;writing-mode:lr-tb;text-anchor:middle;fill:#4e8ef7;fill-opacity:1;stroke:none;stroke-width:1px;stroke-linecap:butt;stroke-linejoin:miter;stroke-opacity:1"
     id="text4193"><path
       d="M 70.53519,50.188952 75.769393,48.198195 75.999858,8.5782579 69.690774,10.977832 69.959449,40.939438 49.735374,18.567596 43.940364,20.77165 70.53519,50.188952 Z"
       id="path4141"
       inkscape:connector-curvature="0" /><path
       d="m 49.841769,71.536834 c 4.741495,-9.925635 0.870917,-21.194669 -8.874252,-25.849954 -9.609819,-4.590629 -20.941498,-0.472917 -25.618336,9.317369 -4.633733,9.700052 -0.676946,20.78862 9.068223,25.443906 9.519586,4.547524 20.876841,0.608266 25.424365,-8.911321 z M 43.929493,68.601705 C 40.976835,74.782668 33.707927,77.239389 27.301381,74.17897 20.894834,71.118551 18.3088,64.120342 21.326115,57.804029 c 3.017314,-6.316313 10.350879,-8.908384 16.667192,-5.891069 6.451663,3.081971 8.996605,10.282198 5.936186,16.688745 z"
       id="path4143"
       inkscape:connector-curvature="0" /><path
       d="m 12.208917,114.43579 2.417525,6.40922 28.443828,-10.72887 3.299833,8.74835 6.128522,-2.31165 -9.017191,-23.905916 -6.128522,2.311647 3.299833,8.748349 -28.443828,10.72887 z"
       id="path4145"
       inkscape:connector-curvature="0" /><path
       d="m 70.765616,127.93451 c -9.975309,-4.63608 -21.202707,-0.64633 -25.754493,9.14761 -4.488567,9.65791 -0.25104,20.94533 9.588241,25.51819 9.748597,4.53071 20.794626,0.45668 25.346412,-9.33726 4.44642,-9.56723 0.387067,-20.88212 -9.18016,-25.32854 z m -2.872332,5.94304 c 6.211896,2.88701 8.745485,10.12949 5.753107,16.5681 -2.992378,6.4386 -9.962799,9.09863 -16.310722,6.1484 -6.347924,-2.95023 -9.017539,-10.25593 -6.067307,-16.60385 3.013451,-6.48395 10.186314,-9.10503 16.624922,-6.11265 z"
       id="path4147"
       inkscape:connector-curvature="0" /></g></svg>