<?xml version="1.0" encoding="UTF-8" standalone="no"?>
<!-- Generator: Adobe Illustrator 16.2.1, SVG Export Plug-In . SVG Version: 6.00 Build 0)  -->

<svg
   xmlns:dc="http://purl.org/dc/elements/1.1/"
   xmlns:cc="http://creativecommons.org/ns#"
   xmlns:rdf="http://www.w3.org/1999/02/22-rdf-syntax-ns#"
   xmlns:svg="http://www.w3.org/2000/svg"
   xmlns="http://www.w3.org/2000/svg"
   xmlns:sodipodi="http://sodipodi.sourceforge.net/DTD/sodipodi-0.dtd"
   xmlns:inkscape="http://www.inkscape.org/namespaces/inkscape"
   version="1.1"
   id="Layer_1"
   x="0px"
   y="0px"
   width="177.845"
   height="177.84599"
   viewBox="0 0 177.845 177.846"
   enable-background="new 0 0 512 177.846"
   xml:space="preserve"
   inkscape:version="0.91 r13725"
   sodipodi:docname="Ionic_Logo-4-w.svg"><metadata
     id="metadata27"><rdf:RDF><cc:Work
         rdf:about=""><dc:format>image/svg+xml</dc:format><dc:type
           rdf:resource="http://purl.org/dc/dcmitype/StillImage" /><dc:title></dc:title></cc:Work></rdf:RDF></metadata><defs
     id="defs25" /><sodipodi:namedview
     pagecolor="#ffffff"
     bordercolor="#666666"
     borderopacity="1"
     objecttolerance="10"
     gridtolerance="10"
     guidetolerance="10"
     inkscape:pageopacity="0"
     inkscape:pageshadow="2"
     inkscape:window-width="1680"
     inkscape:window-height="986"
     id="namedview23"
     showgrid="false"
     showguides="true"
     inkscape:guide-bbox="true"
     fit-margin-top="0"
     fit-margin-left="0"
     fit-margin-right="0"
     fit-margin-bottom="0"
     inkscape:zoom="3.4895849"
     inkscape:cx="94.018703"
     inkscape:cy="71.524393"
     inkscape:window-x="0"
     inkscape:window-y="27"
     inkscape:window-maximized="1"
     inkscape:current-layer="Layer_1"><sodipodi:guide
       position="88.95408,84.445103"
       orientation="1,0"
       id="guide4203" /><sodipodi:guide
       position="130.7875,88.549898"
       orientation="0,1"
       id="guide4205" /><sodipodi:guide
       position="117.21928,80.630801"
       orientation="0,1"
       id="guide4209" /></sodipodi:namedview><circle
     style="fill:#4e8ef7"
     id="circle19"
     r="36.306"
     cy="88.921997"
     cx="88.923004" /><path
     style="fill:#4e8ef7"
     inkscape:connector-curvature="0"
     id="path21"
     d="m 163.014,27.317 c 0,-6.896 -5.592,-12.484 -12.486,-12.484 -3.129,0 -5.979,1.158 -8.171,3.06 C 127.47,6.665 108.961,0 88.922,0 39.89,0 0,39.891 0,88.923 c 0,49.031 39.891,88.923 88.923,88.923 49.032,0 88.922,-39.892 88.922,-88.923 0,-20.039 -6.665,-38.548 -17.892,-53.436 1.902,-2.19 3.061,-5.042 3.061,-8.17 z M 88.922,174.854 C 41.54,174.854 2.99,136.304 2.99,88.922 2.99,41.54 41.54,2.99 88.922,2.99 c 19.266,0 37.069,6.374 51.417,17.123 -1.442,2.036 -2.297,4.518 -2.297,7.203 0,6.895 5.59,12.483 12.484,12.483 2.686,0 5.165,-0.855 7.202,-2.297 10.749,14.348 17.123,32.151 17.123,51.419 0.002,47.383 -38.546,85.933 -85.929,85.933 z" /><path
     style="fill:none;fill-opacity:1;stroke:none;stroke-width:1.886518;stroke-linejoin:round;stroke-miterlimit:4;stroke-dasharray:none;stroke-opacity:1;image-rendering:auto"
     d="M 169.20914,89.414856 A 80.471258,80.003709 0 0 0 88.737882,9.4111468 80.471258,80.003709 0 0 0 8.2666238,89.414856 80.471258,80.003709 0 0 0 88.737882,169.41857 80.471258,80.003709 0 0 0 169.20914,89.414856 Z"
     id="path3374"
     inkscape:connector-curvature="0" /><g
     transform="matrix(0.01016294,-0.99994835,0.99994835,0.01016294,-1.6175638,178.47079)"
     inkscape:transform-center-x="0.81622507"
     inkscape:transform-center-y="58.899594"
     style="font-style:normal;font-variant:normal;font-weight:normal;font-stretch:normal;font-size:50px;line-height:125%;font-family:'Droid Sans';-inkscape-font-specification:'Droid Sans, Normal';text-align:center;letter-spacing:0px;word-spacing:0px;writing-mode:lr-tb;text-anchor:middle;fill:#4e8ef7;fill-opacity:1;stroke:none;stroke-width:1px;stroke-linecap:butt;stroke-linejoin:miter;stroke-opacity:1"
     id="text4193"><path
       d="m 42.400136,22.93993 4.072897,-2.008067 14.013283,28.422691 8.299075,-4.091706 q -0.891495,-2.636335 -1.858257,-5.480542 -0.98866,-2.833411 -1.89034,-5.600825 -0.923578,-2.756618 -1.695706,-5.261264 -0.772129,-2.504647 -1.296252,-4.451065 -0.674048,-2.471342 -0.957302,-4.536517 -0.305151,-2.054378 -0.03384,-3.712469 0.260211,-1.625398 1.14068,-2.8761 0.891266,-1.228805 2.599255,-2.070897 0.766406,-0.377862 1.652178,-0.624035 0.885772,-0.246173 1.617653,-0.307593 l 1.662593,3.372184 q -0.643986,-0.03636 -1.365377,0.101552 -0.72139,0.137907 -1.422103,0.483381 -1.05107,0.518211 -1.395209,1.531705 -0.333342,1.035391 -0.264178,2.335076 0.06916,1.299684 0.41067,2.710076 0.352302,1.432289 0.672522,2.744296 0.352608,1.377699 1.081857,3.740165 0.729249,2.362467 1.727484,5.436138 0.976337,3.084467 2.211475,6.749059 1.213241,3.675389 2.56683,7.635443 L 58.183973,54.953777 42.400136,22.93993 Z"
       style=""
       id="path4141" /><path
       d="m 24.581065,82.82943 q -3.877429,-1.410399 -6.724389,-3.511109 -2.855306,-2.077768 -4.459055,-4.739447 -1.603748,-2.66168 -1.849569,-5.842601 -0.254166,-3.157977 1.039396,-6.714199 1.360326,-3.739769 3.600734,-6.042313 2.232064,-2.279601 5.162756,-3.265917 2.922347,-0.963372 6.428606,-0.675187 3.529203,0.29653 7.429575,1.715275 3.900373,1.418744 6.749426,3.442279 2.871997,2.031881 4.461148,4.662271 1.589151,2.630391 1.803683,5.82591 0.237475,3.203864 -1.122851,6.943633 -1.293562,3.556222 -3.508934,5.789936 -2.200774,2.265003 -5.139812,3.274262 -2.916095,1.017605 -6.439045,0.775307 -3.508353,-0.211009 -7.431669,-1.6381 z m 8.938093,-24.572346 q -3.143242,-1.143342 -5.883997,-1.464825 -2.717811,-0.313139 -4.926765,0.260252 -2.194356,0.604679 -3.81937,2.143868 -1.610416,1.570477 -2.561809,4.186021 -0.951394,2.615544 -0.717995,4.830722 0.247997,2.246467 1.549378,4.096728 1.315979,1.88155 3.608167,3.3648 2.315132,1.491596 5.458373,2.634937 3.166185,1.151687 5.875651,1.487769 2.709466,0.336081 4.872533,-0.254 2.186011,-0.581737 3.788081,-2.12927 1.625014,-1.539189 2.576407,-4.154733 0.951394,-2.615543 0.703397,-4.862011 -0.225053,-2.238122 -1.518089,-4.111326 -1.270092,-1.864859 -3.553935,-3.371052 -2.283843,-1.506193 -5.450027,-2.65788 z"
       style=""
       id="path4143" /><path
       d="m 14.565605,120.58152 -1.666268,-4.2505 29.50343,-11.56585 -3.724598,-9.501109 3.727706,-1.461325 9.106554,23.229974 -3.727707,1.46132 -3.715687,-9.47837 -29.50343,11.56586 z"
       style=""
       id="path4145" /><path
       d="m 73.384888,151.58241 q -1.907079,3.65878 -4.363257,6.20542 -2.43453,2.55792 -5.283665,3.79848 -2.849135,1.24055 -6.034804,1.06678 -3.16402,-0.16249 -6.519713,-1.91159 -3.528891,-1.83937 -5.517486,-4.36259 -1.966944,-2.51193 -2.560101,-5.54672 -0.571508,-3.0235 0.17435,-6.46161 0.757142,-3.45976 2.675504,-7.1402 1.918363,-3.68044 4.298309,-6.23928 2.391229,-2.58049 5.207431,-3.81068 2.816201,-1.23019 6.012235,-1.02348 3.207319,0.18506 6.73621,2.02443 3.355693,1.74909 5.279339,4.23846 1.956579,2.479 2.571386,5.52507 0.626091,3.02442 -0.07647,6.4851 -0.669624,3.45032 -2.599271,7.15241 z M 50.198126,139.49672 q -1.545975,2.966 -2.224378,5.64086 -0.667118,2.6532 -0.388593,4.9183 0.31146,2.25474 1.624066,4.0677 1.34554,1.8026 3.813599,3.08903 2.468059,1.28643 4.694708,1.34578 2.259584,0.049 4.264636,-0.99832 2.037986,-1.05766 3.809236,-3.13536 1.782534,-2.09935 3.328509,-5.06535 1.557259,-2.98765 2.246027,-5.62957 0.688769,-2.64192 0.387674,-4.86372 -0.289809,-2.24345 -1.6137,-4.03477 -1.312607,-1.81296 -3.780665,-3.09939 -2.468059,-1.28643 -4.727643,-1.33541 -2.248299,-0.0706 -4.275001,0.96538 -2.015417,1.01436 -3.808316,3.08078 -1.7929,2.06641 -3.350159,5.05406 z"
       style=""
       id="path4147" /></g><path
     style="fill:#ffffff;stroke:none;stroke-width:1px;stroke-linecap:butt;stroke-linejoin:miter;stroke-opacity:1;fill-opacity:1"
     d="M 81.553037,174.44374 C 64.367151,172.95799 47.711043,166.08574 34.123066,154.87429 30.581201,151.9519 24.212127,145.42336 21.534498,141.97054 9.4369391,126.37065 3.1914543,108.37977 3.1802599,89.098921 3.1722436,75.292026 5.9518143,63.357254 12.056754,50.985505 24.146411,26.485637 47.242988,9.1199936 73.959011,4.4430013 79.427206,3.4857217 82.982955,3.1981464 89.147064,3.2146502 c 18.631776,0.049885 34.852666,5.3812533 50.764626,16.6849608 0.11607,0.08245 -0.1727,0.924122 -0.64171,1.870375 -3.75599,7.577985 0.92718,16.529382 9.3897,17.94741 2.55324,0.427834 4.91241,0.05261 7.39416,-1.176039 0.94202,-0.466371 1.78023,-0.754921 1.86268,-0.641223 0.0825,0.113699 1.26301,1.879344 2.62345,3.923659 7.6082,11.43271 12.09075,23.915475 13.73492,38.248266 0.73001,6.3637 0.41139,16.092195 -0.7602,23.211931 -3.89531,23.67153 -18.50965,45.48393 -39.10849,58.37078 -10.79066,6.75074 -23.22422,11.07166 -36.088991,12.54166 -3.504001,0.40039 -13.318687,0.54518 -16.764172,0.24731 z m -10.698163,-7.47768 c 5.275868,-1.87554 9.643491,-7.66142 11.734636,-15.54513 0.885283,-3.33755 0.887263,-7.99014 0.0044,-10.43048 -0.91547,-2.53058 -1.828074,-3.91657 -3.75124,-5.69708 -4.232177,-3.91825 -11.218274,-5.49926 -16.124225,-3.64905 -4.726825,1.78266 -8.713153,6.88512 -10.944081,14.0083 -2.073298,6.61988 -1.509348,12.09153 1.661315,16.11874 3.763219,4.77985 11.824054,7.18373 17.419156,5.1947 z m 46.093856,-0.8933 c 1.53663,-0.59406 2.12133,-0.95697 2.06255,-1.28014 -0.0451,-0.24807 -2.54094,-6.9111 -5.54626,-14.80672 -3.00532,-7.89562 -5.41855,-14.3906 -5.36273,-14.43328 0.0558,-0.0427 1.84238,-0.73389 3.97014,-1.536 2.12776,-0.80212 4.21916,-1.59259 4.64757,-1.75659 l 0.77892,-0.2982 -0.67299,-1.79018 c -0.37014,-0.9846 -0.81171,-1.83643 -0.98127,-1.89295 -0.26324,-0.0877 -22.916636,8.39204 -23.225579,8.69396 -0.150771,0.14735 1.134382,3.5444 1.403918,3.71098 0.119037,0.0736 2.240814,-0.63938 4.71506,-1.58433 2.474241,-0.94496 4.591771,-1.66053 4.705621,-1.59017 0.11385,0.0704 2.70803,6.71251 5.76485,14.76033 3.05682,8.04782 5.56635,14.6324 5.57673,14.6324 0.0104,0 0.98394,-0.3731 2.16347,-0.82911 z m 34.41498,-29.55764 c 4.19174,-1.4121 7.22657,-4.5871 9.36353,-9.79603 1.05174,-2.56366 1.21455,-6.31906 0.39144,-9.02896 -0.76833,-2.52957 -2.3562,-4.95982 -4.58488,-7.0172 -2.35465,-2.17367 -3.80065,-3.14115 -6.9858,-4.67401 -9.58311,-4.61191 -17.75167,-2.70801 -22.15366,5.1635 -2.90025,5.18612 -3.12302,9.89748 -0.68434,14.47291 2.35519,4.4188 9.10722,9.10321 15.73853,10.91903 2.66033,0.72847 6.6889,0.71074 8.91518,-0.0392 z M 37.994446,128.63951 c 8.668433,-4.17228 15.795985,-7.69156 15.83901,-7.82063 0.08181,-0.24542 -6.990092,-15.20135 -7.392446,-15.63383 -0.127474,-0.13701 -2.841089,0.5923 -6.057936,1.62812 -20.194396,6.50263 -24.516462,7.4174 -26.258542,5.5576 -0.698902,-0.74612 -1.2043,-1.97429 -1.2043,-2.92657 l 0,-0.68009 -1.791044,0.81539 c -1.9886678,0.90536 -2.003506,0.94866 -1.1922544,3.47909 0.5485944,1.71115 2.1009354,3.50809 3.5216604,4.07655 3.616003,1.44684 8.074701,0.5972 23.713428,-4.51876 3.645353,-1.19252 6.749863,-2.16821 6.898906,-2.16821 0.372695,0 4.134366,7.81909 3.875332,8.05535 -0.114472,0.10441 -6.462459,3.18515 -14.106635,6.8461 -7.644175,3.66094 -13.954537,6.70838 -14.023027,6.77207 -0.216823,0.20166 1.797374,4.11783 2.114216,4.11064 0.166565,-0.004 7.3952,-3.42055 16.063632,-7.59282 z m 58.603361,-4.12064 c 10.919223,-2.48306 19.864163,-9.44778 24.804473,-19.31328 6.66943,-13.318424 4.5982,-29.372568 -5.20566,-40.349249 C 110.41641,58.384648 103.20294,54.417417 94.600466,52.97898 90.745707,52.334419 84.433529,52.532583 80.83662,53.411083 60.561113,58.363119 48.550822,78.207505 53.740503,98.1815 c 3.654139,14.06402 15.870564,24.86104 30.391638,26.86049 2.972408,0.40928 9.585905,0.13175 12.465666,-0.52312 z"
     id="path4149"
     inkscape:connector-curvature="0" /><path
     style="fill:#ffffff;stroke:none;stroke-width:1px;stroke-linecap:butt;stroke-linejoin:miter;stroke-opacity:1;fill-opacity:1"
     d="m 62.724923,162.92713 c -3.408546,-1.12607 -5.168037,-2.58529 -6.421345,-5.32548 -2.754223,-6.02175 2.062355,-18.74336 8.172329,-21.58488 3.999622,-1.86007 10.215943,0.0357 12.637416,3.85394 1.787624,2.81879 1.829689,6.6836 0.128486,11.80479 -1.849257,5.56688 -4.451406,9.33592 -7.462693,10.80921 -2.091405,1.02322 -4.784815,1.19215 -7.054193,0.44242 z"
     id="path4151"
     inkscape:connector-curvature="0" /><path
     style="fill:#ffffff;stroke:none;stroke-width:1px;stroke-linecap:butt;stroke-linejoin:miter;stroke-opacity:1;fill-opacity:1"
     d="m 143.88137,131.81646 c -3.98248,-1.11039 -9.24025,-4.18266 -11.54498,-6.74608 -2.06517,-2.29696 -2.64009,-3.7353 -2.64009,-6.60496 0,-2.19853 0.0973,-2.63996 0.97402,-4.42037 3.01564,-6.12379 8.38037,-7.41796 16.0225,-3.86521 6.85969,3.189 10.65151,7.39105 10.6601,11.8134 0.008,4.02831 -3.39193,8.98341 -6.81611,9.93438 -1.42509,0.39579 -5.05468,0.33516 -6.65544,-0.11116 z"
     id="path4153"
     inkscape:connector-curvature="0" /></svg>