<?xml version="1.0" encoding="UTF-8" standalone="no"?>
<!-- Generator: Adobe Illustrator 16.2.1, SVG Export Plug-In . SVG Version: 6.00 Build 0)  -->

<svg
   xmlns:dc="http://purl.org/dc/elements/1.1/"
   xmlns:cc="http://creativecommons.org/ns#"
   xmlns:rdf="http://www.w3.org/1999/02/22-rdf-syntax-ns#"
   xmlns:svg="http://www.w3.org/2000/svg"
   xmlns="http://www.w3.org/2000/svg"
   xmlns:sodipodi="http://sodipodi.sourceforge.net/DTD/sodipodi-0.dtd"
   xmlns:inkscape="http://www.inkscape.org/namespaces/inkscape"
   version="1.1"
   id="Layer_1"
   x="0px"
   y="0px"
   width="177.845"
   height="177.84599"
   viewBox="0 0 177.845 177.846"
   enable-background="new 0 0 512 177.846"
   xml:space="preserve"
   inkscape:version="0.91 r13725"
   sodipodi:docname="lotto-ionic-mono.svg"><metadata
     id="metadata27"><rdf:RDF><cc:Work
         rdf:about=""><dc:format>image/svg+xml</dc:format><dc:type
           rdf:resource="http://purl.org/dc/dcmitype/StillImage" /><dc:title></dc:title></cc:Work></rdf:RDF></metadata><defs
     id="defs25" /><sodipodi:namedview
     pagecolor="#ffffff"
     bordercolor="#666666"
     borderopacity="1"
     objecttolerance="10"
     gridtolerance="10"
     guidetolerance="10"
     inkscape:pageopacity="0"
     inkscape:pageshadow="2"
     inkscape:window-width="1680"
     inkscape:window-height="986"
     id="namedview23"
     showgrid="false"
     showguides="true"
     inkscape:guide-bbox="true"
     fit-margin-top="0"
     fit-margin-left="0"
     fit-margin-right="0"
     fit-margin-bottom="0"
     inkscape:zoom="3.6265477"
     inkscape:cx="105.86774"
     inkscape:cy="89.644205"
     inkscape:window-x="0"
     inkscape:window-y="27"
     inkscape:window-maximized="1"
     inkscape:current-layer="Layer_1"><sodipodi:guide
       position="88.95408,84.445103"
       orientation="1,0"
       id="guide4203" /><sodipodi:guide
       position="59.749999,88.937503"
       orientation="0,1"
       id="guide4205" /><sodipodi:guide
       position="5.2644787,86.08398"
       orientation="1,0"
       id="guide4142" /><sodipodi:guide
       position="52.839768,84.329154"
       orientation="1,0"
       id="guide4144" /><sodipodi:guide
       position="58.006756,103.72973"
       orientation="1,0"
       id="guide4146" /><sodipodi:guide
       position="55.569498,88.937503"
       orientation="1,0"
       id="guide4148" /></sodipodi:namedview><circle
     style="fill:#273547;fill-opacity:1"
     id="circle19"
     r="36.306"
     cy="88.921997"
     cx="88.923004" /><path
     style="fill:#a4bbd7;fill-opacity:1"
     inkscape:connector-curvature="0"
     id="path21"
     d="m 163.014,27.317 c 0,-6.896 -5.592,-12.484 -12.486,-12.484 -3.129,0 -5.979,1.158 -8.171,3.06 C 127.47,6.665 108.961,0 88.922,0 39.89,0 0,39.891 0,88.923 c 0,49.031 39.891,88.923 88.923,88.923 49.032,0 88.922,-39.892 88.922,-88.923 0,-20.039 -6.665,-38.548 -17.892,-53.436 1.902,-2.19 3.061,-5.042 3.061,-8.17 z M 88.922,174.854 C 41.54,174.854 2.99,136.304 2.99,88.922 2.99,41.54 41.54,2.99 88.922,2.99 c 19.266,0 37.069,6.374 51.417,17.123 -1.442,2.036 -2.297,4.518 -2.297,7.203 0,6.895 5.59,12.483 12.484,12.483 2.686,0 5.165,-0.855 7.202,-2.297 10.749,14.348 17.123,32.151 17.123,51.419 0.002,47.383 -38.546,85.933 -85.929,85.933 z" /><path
     style="fill:none;fill-opacity:1;stroke:none;stroke-width:1.886518;stroke-linejoin:round;stroke-miterlimit:4;stroke-dasharray:none;stroke-opacity:1;image-rendering:auto"
     d="M 169.20914,89.414856 A 80.471258,80.003709 0 0 0 88.737882,9.4111468 80.471258,80.003709 0 0 0 8.2666238,89.414856 80.471258,80.003709 0 0 0 88.737882,169.41857 80.471258,80.003709 0 0 0 169.20914,89.414856 Z"
     id="path3374"
     inkscape:connector-curvature="0" /><path
     d="m 160.93086,29.049113 c 0,-6.702113 -5.4348,-12.133 -12.13496,-12.133 -3.04102,0 -5.8109,1.125441 -7.94127,2.973965 C 126.3862,8.9777635 108.39759,2.5001561 88.922014,2.5001561 c -47.653418,0 -86.4218728,38.7694269 -86.4218728,86.4228449 0,47.652449 38.7694258,86.422839 86.4228448,86.422839 47.653414,0 86.421874,-38.77039 86.421874,-86.422839 0,-19.475584 -6.4776,-37.464186 -17.38895,-51.933595 1.84852,-2.128427 2.97495,-4.90024 2.97495,-7.940293 z M 88.922014,172.43797 c -46.04981,0 -83.5159397,-37.46614 -83.5159397,-83.515941 0,-46.04981 37.4661297,-83.5159399 83.5159397,-83.5159399 18.724306,0 36.026786,6.1947889 49.971366,16.6415719 -1.40145,1.978755 -2.23241,4.390971 -2.23241,7.00048 0,6.70114 5.43283,12.132028 12.13299,12.132028 2.61047,0 5.01978,-0.83096 6.9995,-2.232418 10.44679,13.944592 16.64157,31.247044 16.64157,49.973306 0.001,46.050773 -37.46223,83.516913 -83.513016,83.516913 z"
     id="path4140"
     inkscape:connector-curvature="0"
     style="fill:#273547;fill-opacity:1" /><circle
     cx="88.923004"
     cy="88.921997"
     r="33.38129"
     id="circle4150"
     style="fill:#a4bbd7;fill-opacity:1" /></svg>