<?xml version="1.0" encoding="UTF-8" standalone="no"?>
<!-- Generator: Adobe Illustrator 16.2.1, SVG Export Plug-In . SVG Version: 6.00 Build 0)  -->

<svg
   xmlns:dc="http://purl.org/dc/elements/1.1/"
   xmlns:cc="http://creativecommons.org/ns#"
   xmlns:rdf="http://www.w3.org/1999/02/22-rdf-syntax-ns#"
   xmlns:svg="http://www.w3.org/2000/svg"
   xmlns="http://www.w3.org/2000/svg"
   xmlns:sodipodi="http://sodipodi.sourceforge.net/DTD/sodipodi-0.dtd"
   xmlns:inkscape="http://www.inkscape.org/namespaces/inkscape"
   version="1.1"
   id="Layer_1"
   x="0px"
   y="0px"
   width="177.845"
   height="177.84599"
   viewBox="0 0 177.845 177.846"
   enable-background="new 0 0 512 177.846"
   xml:space="preserve"
   inkscape:version="0.91 r13725"
   sodipodi:docname="lotto-ionic-mono-splash.svg"><metadata
     id="metadata27"><rdf:RDF><cc:Work
         rdf:about=""><dc:format>image/svg+xml</dc:format><dc:type
           rdf:resource="http://purl.org/dc/dcmitype/StillImage" /><dc:title></dc:title></cc:Work></rdf:RDF></metadata><defs
     id="defs25" /><sodipodi:namedview
     pagecolor="#ffffff"
     bordercolor="#666666"
     borderopacity="1"
     objecttolerance="10"
     gridtolerance="10"
     guidetolerance="10"
     inkscape:pageopacity="0"
     inkscape:pageshadow="2"
     inkscape:window-width="1680"
     inkscape:window-height="986"
     id="namedview23"
     showgrid="false"
     showguides="true"
     inkscape:guide-bbox="true"
     fit-margin-top="0"
     fit-margin-left="0"
     fit-margin-right="0"
     fit-margin-bottom="0"
     inkscape:zoom="6.7628488"
     inkscape:cx="101.92872"
     inkscape:cy="96.862112"
     inkscape:window-x="0"
     inkscape:window-y="27"
     inkscape:window-maximized="1"
     inkscape:current-layer="Layer_1"><sodipodi:guide
       position="88.95408,84.445103"
       orientation="1,0"
       id="guide4203" /><sodipodi:guide
       position="59.749999,88.937503"
       orientation="0,1"
       id="guide4205" /><sodipodi:guide
       position="5.2644787,86.08398"
       orientation="1,0"
       id="guide4142" /><sodipodi:guide
       position="52.839768,84.329154"
       orientation="1,0"
       id="guide4144" /><sodipodi:guide
       position="58.006756,103.72973"
       orientation="1,0"
       id="guide4146" /><sodipodi:guide
       position="55.569498,88.937503"
       orientation="1,0"
       id="guide4148" /><sodipodi:guide
       position="15.526001,103.21095"
       orientation="0,1"
       id="guide4869" /><sodipodi:guide
       position="68.265401,66.063294"
       orientation="0,1"
       id="guide4871" /><sodipodi:guide
       position="40.975419,108.50899"
       orientation="1,0"
       id="guide4756" /></sodipodi:namedview><circle
     style="fill:#61616b;fill-opacity:1"
     id="circle19"
     r="19.576223"
     cy="88.922462"
     cx="88.922775" /><path
     style="fill:#a4bbd7;fill-opacity:1"
     inkscape:connector-curvature="0"
     id="path21"
     d="m 128.87269,55.704998 c 0,-3.718329 -3.01521,-6.731383 -6.73246,-6.731383 -1.68716,0 -3.22388,0.624395 -4.40581,1.649954 -8.02708,-6.054146 -18.007145,-9.647919 -28.81219,-9.647919 -26.438092,0 -47.94681,21.509258 -47.94681,47.94735 0,26.43755 21.509258,47.94735 47.94735,47.94735 26.43809,0 47.94681,-21.5098 47.94681,-47.94735 0,-10.805044 -3.59377,-20.785111 -9.64738,-28.812732 1.02556,-1.18085 1.65049,-2.71865 1.65049,-4.40527 z M 88.92223,135.25706 c -25.54841,0 -46.3346,-20.78619 -46.3346,-46.334599 0,-25.548411 20.78619,-46.334601 46.3346,-46.334601 10.388242,0 19.98763,3.436866 27.72409,9.232735 -0.77753,1.097813 -1.23855,2.436109 -1.23855,3.883863 0,3.71779 3.01413,6.730843 6.73138,6.730843 1.4483,0 2.78498,-0.461016 3.88333,-1.238544 5.79587,7.736453 9.23273,17.335844 9.23273,27.725165 0.001,25.548948 -20.78403,46.335138 -46.33298,46.335138 z" /><path
     style="fill:none;fill-opacity:1;stroke:none;stroke-width:1.886518;stroke-linejoin:round;stroke-miterlimit:4;stroke-dasharray:none;stroke-opacity:1;image-rendering:auto"
     d="M 132.21312,89.188209 A 43.390164,43.138061 0 0 0 88.822954,46.050148 43.390164,43.138061 0 0 0 45.43279,89.188209 43.390164,43.138061 0 0 0 88.822954,132.32627 43.390164,43.138061 0 0 0 132.21312,89.188209 Z"
     id="path3374"
     inkscape:connector-curvature="0" /><path
     d="m 127.74946,56.638954 c 0,-3.613784 -2.93045,-6.542123 -6.54318,-6.542123 -1.63972,0 -3.13324,0.606839 -4.28194,1.603564 -7.80138,-5.883928 -17.500857,-9.376659 -28.002102,-9.376659 -25.69476,0 -46.59874,20.904505 -46.59874,46.599265 0,25.694239 20.904504,46.599259 46.599264,46.599259 25.694758,0 46.598738,-20.90502 46.598738,-46.599259 0,-10.50125 -3.49272,-20.200718 -9.37613,-28.002635 0.99672,-1.147649 1.60409,-2.642213 1.60409,-4.281412 z M 88.922238,133.95434 c -24.830093,0 -45.031859,-20.20178 -45.031859,-45.031864 0,-24.830092 20.201766,-45.031858 45.031859,-45.031858 10.09616,0 19.425672,3.340234 26.944602,8.973148 -0.75567,1.066946 -1.20372,2.367615 -1.20372,3.774664 0,3.61326 2.92939,6.541599 6.54212,6.541599 1.40756,0 2.70667,-0.448054 3.77413,-1.203722 5.63292,7.518935 8.97315,16.84843 8.97315,26.945645 5.4e-4,24.830608 -20.19966,45.032388 -45.030282,45.032388 z"
     id="path4140"
     inkscape:connector-curvature="0"
     style="fill:#61616b;fill-opacity:1;stroke:none" /><circle
     cx="88.922775"
     cy="88.922462"
     r="17.999218"
     id="circle4150"
     style="fill:#a4bbd7;fill-opacity:1" /><ellipse
     style="fill:none;fill-opacity:1;stroke:none;stroke-width:2.0999999;stroke-linejoin:round;stroke-miterlimit:4;stroke-dasharray:none;stroke-opacity:1"
     id="path4193"
     cx="88.732704"
     cy="-88.900993"
     rx="38.731544"
     ry="37.839455"
     transform="scale(1,-1)" /><g
     transform="matrix(-0.00203244,-0.53919694,0.53919694,-0.00203244,41.404741,136.95483)"
     inkscape:transform-center-x="-0.33498261"
     inkscape:transform-center-y="24.695334"
     style="font-style:normal;font-variant:normal;font-weight:normal;font-stretch:normal;font-size:35px;line-height:125%;font-family:'OCR A Extended';-inkscape-font-specification:'OCR A Extended, Normal';text-align:center;letter-spacing:0px;word-spacing:0px;writing-mode:lr-tb;text-anchor:middle;fill:#273582;fill-opacity:1;stroke:none;stroke-width:1px;stroke-linecap:butt;stroke-linejoin:miter;stroke-opacity:1"
     id="text4195"><path
       d="m 46.089321,31.106831 2.034442,2.074045 q -2.084994,3.170317 -0.878772,5.913133 2.026141,4.188823 9.206523,11.508981 L 59.491209,53.701856 48.657376,64.328822 30.790192,46.11383 33.254645,43.696434 49.087388,59.837382 55.004515,54.03324 52.802531,51.788391 q -6.773494,-6.905348 -8.688435,-11.346883 -1.832102,-4.259462 1.975225,-9.334677 z"
       style="font-style:normal;font-variant:normal;font-weight:normal;font-stretch:normal;font-size:35px;line-height:125%;font-family:'OCR A Extended';-inkscape-font-specification:'OCR A Extended, Normal';text-align:center;writing-mode:lr-tb;text-anchor:middle"
       id="path4154"
       inkscape:connector-curvature="0" /><path
       d="m 41.49973,76.911164 q 0.986303,-3.628092 -1.135459,-6.507207 -2.126246,-2.862624 -6.79329,-4.131368 -4.650553,-1.26426 -7.933462,0.127877 -3.287392,1.408628 -4.273695,5.036719 -0.986302,3.628092 1.144426,6.474225 2.126246,2.862624 6.776799,4.126884 4.667044,1.268744 7.949953,-0.123394 3.278426,-1.375645 4.264728,-5.003736 z m 2.704577,0.735243 q -1.407722,5.178276 -5.730232,7.332691 -4.306018,2.158898 -10.143946,0.571848 -5.821437,-1.582567 -8.458266,-5.628889 -2.620338,-4.04184 -1.212616,-9.220115 1.412206,-5.194767 5.722707,-7.370157 4.306018,-2.158898 10.143947,-0.571848 5.837928,1.58705 8.458266,5.62889 2.632346,4.062813 1.22014,9.25758 z"
       style="font-style:normal;font-variant:normal;font-weight:normal;font-stretch:normal;font-size:35px;line-height:125%;font-family:'OCR A Extended';-inkscape-font-specification:'OCR A Extended, Normal';text-align:center;writing-mode:lr-tb;text-anchor:middle"
       id="path4156"
       inkscape:connector-curvature="0" /><path
       d="m 40.928715,89.776903 5.636617,20.835497 -2.804462,0.75869 -2.365326,-8.74332 -21.825309,5.90439 -0.905964,-3.34886 21.825308,-5.904387 -2.365326,-8.743321 2.804462,-0.758689 z"
       style="font-style:normal;font-variant:normal;font-weight:normal;font-stretch:normal;font-size:35px;line-height:125%;font-family:'OCR A Extended';-inkscape-font-specification:'OCR A Extended, Normal';text-align:center;writing-mode:lr-tb;text-anchor:middle"
       id="path4158"
       inkscape:connector-curvature="0" /><path
       d="m 53.656781,121.61744 q -2.662429,-2.65467 -6.214624,-2.23862 -3.540092,0.42811 -6.954971,3.85296 -3.402813,3.41275 -3.820602,6.95408 -0.405686,3.55339 2.256743,6.20807 2.66243,2.65467 6.19042,2.21449 3.540093,-0.42811 6.942905,-3.84086 3.414879,-3.42485 3.832668,-6.96618 0.429891,-3.52926 -2.232539,-6.18394 z m 1.978941,-1.98472 q 3.800013,3.78895 3.529104,8.611 -0.258843,4.80996 -4.530458,9.09405 -4.259549,4.27199 -9.080792,4.55696 -4.809176,0.27287 -8.609189,-3.51608 -3.812115,-3.80102 -3.565375,-8.62303 0.258842,-4.80996 4.530458,-9.09405 4.271615,-4.28409 9.080792,-4.55696 4.833345,-0.2729 8.64546,3.52811 z"
       style="font-style:normal;font-variant:normal;font-weight:normal;font-stretch:normal;font-size:35px;line-height:125%;font-family:'OCR A Extended';-inkscape-font-specification:'OCR A Extended, Normal';text-align:center;writing-mode:lr-tb;text-anchor:middle"
       id="path4160"
       inkscape:connector-curvature="0" /></g><path
     style="fill:#a0a0a0;stroke:none;stroke-width:1px;stroke-linecap:butt;stroke-linejoin:miter;stroke-opacity:1;fill-opacity:0"
     d="m 84.869305,133.71306 c -0.275945,-0.0399 -1.314503,-0.17378 -2.307907,-0.2976 -4.187954,-0.52199 -9.100496,-2.05333 -13.446066,-4.19142 C 55.830078,122.68749 46.609927,110.06912 44.442338,95.457464 42.678671,83.568635 45.805684,71.504248 53.211111,61.626512 55.080473,59.133061 59.145267,55.063384 61.607563,53.219972 77.177264,41.563627 97.712848,40.871479 113.77402,51.46171 l 1.95833,1.291259 -0.51763,1.259021 c -1.39049,3.382073 0.0142,7.000108 3.34278,8.610031 1.3533,0.654545 3.71431,0.651517 5.31449,-0.0068 0.65528,-0.269588 1.23226,-0.402465 1.30715,-0.301031 1.0125,1.371302 2.89601,4.477678 3.82148,6.302556 5.46444,10.774982 6.35678,23.139609 2.50655,34.731837 -0.91133,2.74386 -3.41223,7.84146 -5.03206,10.25694 -7.63913,11.39136 -19.39792,18.56573 -32.817815,20.02305 -1.801568,0.19564 -7.630562,0.25169 -8.78799,0.0845 z m -1.045283,-7.27491 c 2.401544,-1.2309 3.931544,-4.08292 3.942176,-7.34849 0.01204,-3.69957 -2.255098,-6.06449 -6.017141,-6.27665 -1.356015,-0.0765 -1.781393,-0.0196 -2.651837,0.35491 -3.809255,1.6387 -5.539848,7.80368 -3.156155,11.24336 1.588873,2.29274 5.434864,3.28163 7.882957,2.02687 z m 15.446769,-0.0367 0.613942,-0.21402 -0.683642,-2.59158 c -0.376003,-1.42537 -1.086998,-4.05674 -1.579991,-5.84749 -0.492993,-1.79076 -0.877122,-3.26879 -0.853619,-3.28453 0.02351,-0.0157 0.990983,-0.28398 2.149954,-0.5961 1.158975,-0.31211 2.176075,-0.62514 2.260245,-0.69562 0.0842,-0.0705 0.0935,-0.42567 0.0208,-0.78932 -0.12413,-0.62065 -0.17361,-0.65447 -0.80702,-0.55168 -0.974753,0.15818 -9.737012,2.54959 -10.153752,2.77118 -0.370674,0.19709 -0.461108,0.89262 -0.174791,1.34433 0.138781,0.21895 0.53714,0.17154 2.154317,-0.2564 1.09123,-0.28876 2.121624,-0.56727 2.289768,-0.61891 0.245837,-0.0755 0.619073,1.04586 1.905557,5.72513 1.716722,6.24416 1.612282,6.03935 2.858242,5.60501 z m -28.04824,-11.03811 4.916845,-4.81015 -2.859595,-2.80599 c -1.572776,-1.54329 -2.948706,-2.80599 -3.057619,-2.80599 -0.108915,0 -1.125083,0.88052 -2.258153,1.95671 -3.277502,3.11296 -5.473281,4.66598 -6.597136,4.66598 -0.291298,0 -0.901955,-0.13136 -1.357017,-0.29192 -0.7875,-0.27784 -0.85315,-0.26975 -1.36186,0.16782 -0.66791,0.57451 -0.528044,0.8248 0.808733,1.44724 1.461144,0.68034 2.749348,0.64434 4.277987,-0.11952 1.296831,-0.64804 3.414478,-2.31875 5.432867,-4.28625 l 1.256396,-1.22472 1.55323,1.56805 1.553229,1.56805 -4.369078,4.24817 -4.369081,4.24818 0.652501,0.65223 c 0.358874,0.35873 0.699391,0.64775 0.756703,0.64225 0.05731,-0.005 2.316783,-2.17455 5.021048,-4.82014 z m 42.884939,2.70613 c 1.47565,-0.71219 2.98163,-2.41844 3.39764,-3.84949 0.41243,-1.41869 0.26393,-3.34579 -0.3566,-4.62763 -0.66006,-1.36349 -2.89459,-3.53841 -4.30579,-4.19092 -0.96098,-0.44434 -1.46272,-0.54515 -2.6868,-0.53984 -0.93365,0.004 -1.7893,0.13014 -2.25349,0.33209 -0.98779,0.42974 -2.66411,2.01543 -3.33249,3.15231 -0.4662,0.79299 -0.53499,1.12935 -0.53499,2.61585 0,1.45627 0.0811,1.87089 0.554,2.83394 1.49146,3.03703 4.75018,5.16538 7.4735,4.88113 0.55189,-0.0576 1.47215,-0.33096 2.04502,-0.60744 z M 93.799902,107.85835 C 104.00442,105.26063 110.3229,94.907603 108.012,84.571394 106.36384,77.199484 100.30921,71.27417 92.855097,69.738221 90.926421,69.34081 87.206252,69.323898 85.238163,69.703595 79.16784,70.874719 73.888226,74.97251 71.204192,80.596111 c -1.372956,2.876621 -1.650486,4.254095 -1.67027,8.290066 -0.01927,3.93098 0.235436,5.241199 1.58796,8.16856 1.367891,2.960623 3.812149,5.930433 6.422327,7.803223 2.06349,1.48055 5.235044,2.84174 7.626128,3.27304 0.662269,0.11945 1.429899,0.25743 1.705844,0.30661 1.260316,0.22462 4.992452,-0.0876 6.923721,-0.57926 z"
     id="path4783"
     inkscape:connector-curvature="0" /><path
     style="fill:#a0a0a0;stroke:none;stroke-width:1px;stroke-linecap:butt;stroke-linejoin:miter;stroke-opacity:1;fill-opacity:0"
     d="m 84.869305,133.71306 c -0.275945,-0.0399 -1.314503,-0.17378 -2.307907,-0.2976 -4.187954,-0.52199 -9.100496,-2.05333 -13.446066,-4.19142 C 55.830078,122.68749 46.609927,110.06912 44.442338,95.457464 42.678671,83.568635 45.805684,71.504248 53.211111,61.626512 55.080473,59.133061 59.145267,55.063384 61.607563,53.219972 77.177264,41.563627 97.712848,40.871479 113.77402,51.46171 l 1.95833,1.291259 -0.51763,1.259021 c -1.39049,3.382073 0.0142,7.000108 3.34278,8.610031 1.3533,0.654545 3.71431,0.651517 5.31449,-0.0068 0.65528,-0.269588 1.23226,-0.402465 1.30715,-0.301031 1.0125,1.371302 2.89601,4.477678 3.82148,6.302556 5.46444,10.774982 6.35678,23.139609 2.50655,34.731837 -0.91133,2.74386 -3.41223,7.84146 -5.03206,10.25694 -7.63913,11.39136 -19.39792,18.56573 -32.817815,20.02305 -1.801568,0.19564 -7.630562,0.25169 -8.78799,0.0845 z m -1.045283,-7.27491 c 2.401544,-1.2309 3.931544,-4.08292 3.942176,-7.34849 0.01204,-3.69957 -2.255098,-6.06449 -6.017141,-6.27665 -1.356015,-0.0765 -1.781393,-0.0196 -2.651837,0.35491 -3.809255,1.6387 -5.539848,7.80368 -3.156155,11.24336 1.588873,2.29274 5.434864,3.28163 7.882957,2.02687 z m 15.446769,-0.0367 0.613942,-0.21402 -0.683642,-2.59158 c -0.376003,-1.42537 -1.086998,-4.05674 -1.579991,-5.84749 -0.492993,-1.79076 -0.877122,-3.26879 -0.853619,-3.28453 0.02351,-0.0157 0.990983,-0.28398 2.149954,-0.5961 1.158975,-0.31211 2.176075,-0.62514 2.260245,-0.69562 0.0842,-0.0705 0.0935,-0.42567 0.0208,-0.78932 -0.12413,-0.62065 -0.17361,-0.65447 -0.80702,-0.55168 -0.974753,0.15818 -9.737012,2.54959 -10.153752,2.77118 -0.370674,0.19709 -0.461108,0.89262 -0.174791,1.34433 0.138781,0.21895 0.53714,0.17154 2.154317,-0.2564 1.09123,-0.28876 2.121624,-0.56727 2.289768,-0.61891 0.245837,-0.0755 0.619073,1.04586 1.905557,5.72513 1.716722,6.24416 1.612282,6.03935 2.858242,5.60501 z m -28.04824,-11.03811 4.916845,-4.81015 -2.859595,-2.80599 c -1.572776,-1.54329 -2.948706,-2.80599 -3.057619,-2.80599 -0.108915,0 -1.125083,0.88052 -2.258153,1.95671 -3.277502,3.11296 -5.473281,4.66598 -6.597136,4.66598 -0.291298,0 -0.901955,-0.13136 -1.357017,-0.29192 -0.7875,-0.27784 -0.85315,-0.26975 -1.36186,0.16782 -0.66791,0.57451 -0.528044,0.8248 0.808733,1.44724 1.461144,0.68034 2.749348,0.64434 4.277987,-0.11952 1.296831,-0.64804 3.414478,-2.31875 5.432867,-4.28625 l 1.256396,-1.22472 1.55323,1.56805 1.553229,1.56805 -4.369078,4.24817 -4.369081,4.24818 0.652501,0.65223 c 0.358874,0.35873 0.699391,0.64775 0.756703,0.64225 0.05731,-0.005 2.316783,-2.17455 5.021048,-4.82014 z m 42.884939,2.70613 c 1.47565,-0.71219 2.98163,-2.41844 3.39764,-3.84949 0.41243,-1.41869 0.26393,-3.34579 -0.3566,-4.62763 -0.66006,-1.36349 -2.89459,-3.53841 -4.30579,-4.19092 -0.96098,-0.44434 -1.46272,-0.54515 -2.6868,-0.53984 -0.93365,0.004 -1.7893,0.13014 -2.25349,0.33209 -0.98779,0.42974 -2.66411,2.01543 -3.33249,3.15231 -0.4662,0.79299 -0.53499,1.12935 -0.53499,2.61585 0,1.45627 0.0811,1.87089 0.554,2.83394 1.49146,3.03703 4.75018,5.16538 7.4735,4.88113 0.55189,-0.0576 1.47215,-0.33096 2.04502,-0.60744 z M 93.799902,107.85835 C 104.00442,105.26063 110.3229,94.907603 108.012,84.571394 106.36384,77.199484 100.30921,71.27417 92.855097,69.738221 90.926421,69.34081 87.206252,69.323898 85.238163,69.703595 79.16784,70.874719 73.888226,74.97251 71.204192,80.596111 c -1.372956,2.876621 -1.650486,4.254095 -1.67027,8.290066 -0.01927,3.93098 0.235436,5.241199 1.58796,8.16856 1.367891,2.960623 3.812149,5.930433 6.422327,7.803223 2.06349,1.48055 5.235044,2.84174 7.626128,3.27304 0.662269,0.11945 1.429899,0.25743 1.705844,0.30661 1.260316,0.22462 4.992452,-0.0876 6.923721,-0.57926 z"
     id="path4785"
     inkscape:connector-curvature="0" /><path
     style="fill:#ffffff;stroke:none;stroke-width:1px;stroke-linecap:butt;stroke-linejoin:miter;stroke-opacity:1;fill-opacity:0"
     d="M 83.163461,133.52619 C 78.320846,132.86831 73.527608,131.40335 69.115332,129.23267 45.186893,117.46072 36.735074,87.823091 50.819217,65.074473 c 3.411144,-5.509659 8.742477,-10.840992 14.252136,-14.252136 15.027266,-9.303693 33.806396,-9.103619 48.546447,0.517217 2.06302,1.346533 2.38542,1.659621 1.97205,1.915097 -0.3589,0.221811 -0.85824,2.15393 -0.85824,3.320828 0,2.594658 1.30827,4.730245 3.58413,5.850645 1.18561,0.583675 1.54177,0.664588 2.86843,0.651665 1.07033,-0.01043 1.86031,-0.148983 2.69259,-0.472265 0.64781,-0.25163 1.23603,-0.379266 1.30715,-0.283635 2.89547,3.893427 5.64005,9.547418 7.04147,14.505845 1.22223,4.324412 1.48178,6.4212 1.49267,12.058443 0.0108,5.594894 -0.15068,7.000388 -1.3144,11.439193 -3.05912,11.6685 -10.87634,21.80615 -21.38087,27.72749 -5.32537,3.00188 -11.215376,4.91092 -17.222878,5.58221 -2.491847,0.27844 -8.216779,0.21984 -10.636441,-0.10888 z m -0.165208,-6.80974 c 2.815875,-0.83622 4.69446,-3.91238 4.70916,-7.71119 0.0059,-1.52633 -0.05844,-1.81769 -0.664834,-3.01031 -0.51156,-1.00611 -0.902628,-1.47523 -1.642888,-1.97079 -2.020453,-1.35255 -4.67233,-1.65304 -6.509374,-0.73761 -1.99599,0.99465 -3.422859,3.14319 -3.887719,5.85404 -0.626264,3.65209 0.946777,6.44589 4.218539,7.49235 1.403195,0.44881 2.467778,0.47235 3.777116,0.0835 z m 16.351928,-0.36092 0.533093,-0.24181 -1.585191,-5.81994 c -0.871855,-3.20097 -1.585871,-5.82868 -1.586702,-5.83936 -8.03e-4,-0.0107 0.931092,-0.2666 2.070939,-0.56872 1.139847,-0.30213 2.17947,-0.61546 2.31026,-0.6963 0.37152,-0.22961 0.0606,-1.42484 -0.37058,-1.42484 -0.40822,0 -9.70896,2.5132 -10.383958,2.8059 -0.288376,0.12505 -0.451547,0.36979 -0.451547,0.67726 0,0.9215 0.368163,0.96706 2.718758,0.33645 1.202646,-0.32264 2.198735,-0.56899 2.21353,-0.54744 0.01479,0.0215 0.674228,2.38722 1.465406,5.25705 0.791181,2.86983 1.537662,5.46623 1.65885,5.76977 0.238675,0.59781 0.577775,0.66818 1.407142,0.29198 z m -28.105777,-11.03955 4.894992,-4.77711 -2.90671,-2.79885 c -1.598691,-1.53936 -2.958986,-2.79884 -3.022875,-2.79884 -0.06389,0 -1.239376,1.04381 -2.612195,2.31957 -2.69569,2.50512 -4.783475,4.0281 -5.800854,4.23158 -0.352145,0.0704 -1.134392,0.01 -1.738325,-0.13537 -1.036316,-0.24861 -1.121955,-0.23953 -1.522974,0.16149 -0.562926,0.56292 -0.28659,0.89523 1.216009,1.46229 2.548903,0.96193 4.376403,0.1414 8.829892,-3.96455 l 1.874284,-1.72802 1.537405,1.55207 1.537405,1.55206 -4.359797,4.25735 -4.359794,4.25735 0.64418,0.64418 c 0.3543,0.3543 0.700474,0.62117 0.769274,0.59305 0.0688,-0.0281 2.327837,-2.20084 5.020083,-4.82825 z m 42.865606,2.74148 c 1.13368,-0.53549 2.58679,-2.00253 3.1939,-3.22452 0.28393,-0.57151 0.37542,-1.18435 0.36819,-2.46632 -0.008,-1.47058 -0.0883,-1.85807 -0.57998,-2.80962 -0.74133,-1.43464 -2.76361,-3.40697 -4.22769,-4.12327 -0.96277,-0.47105 -1.41614,-0.56649 -2.69101,-0.56649 -1.31115,0 -1.68756,0.084 -2.59944,0.58035 -4.25288,2.31471 -4.81679,7.15764 -1.24717,10.71082 2.48149,2.47007 5.18023,3.12854 7.7832,1.89905 z M 93.048385,108.03489 c 9.672885,-1.99799 16.470565,-11.458024 15.297585,-21.288984 -0.55532,-4.654199 -2.50796,-8.606416 -5.84443,-11.829321 -2.768168,-2.673949 -5.974513,-4.390442 -9.602719,-5.140747 -2.753397,-0.569394 -6.791582,-0.424462 -9.333985,0.335002 -6.701786,2.001951 -11.896785,7.35147 -13.656082,14.06227 -0.533245,2.034053 -0.538814,7.459109 -0.0097,9.429225 2.424805,9.028205 10.704759,15.280645 19.655749,14.842665 1.086932,-0.0532 2.659034,-0.23774 3.493559,-0.41011 l -4e-6,0 z"
     id="path4789"
     inkscape:connector-curvature="0" /><path
     style="fill:#ffffff;stroke:none;stroke-width:1px;stroke-linecap:butt;stroke-linejoin:miter;stroke-opacity:1;fill-opacity:0"
     d="m 83.66518,133.6149 c -5.851584,-0.67342 -12.780414,-3.06716 -17.99464,-6.21671 -4.123663,-2.49081 -8.666442,-6.4615 -11.687175,-10.21538 C 42.845414,103.34164 40.807257,84.789568 48.680897,68.917765 59.647842,46.810429 86.558141,37.664677 108.65078,48.53636 c 2.32743,1.145314 7.12441,4.028011 7.12441,4.281338 0,0.03851 -0.20181,0.470793 -0.44848,0.960632 -0.65798,1.306667 -0.65306,4.300805 0.009,5.64547 0.64874,1.31707 1.88382,2.518798 3.21509,3.128274 1.47204,0.673923 3.61819,0.701207 5.20887,0.06622 0.58357,-0.232959 1.13801,-0.423562 1.23209,-0.423562 0.27868,0 2.7007,3.838971 3.89182,6.168638 3.66322,7.164807 5.14515,13.862178 4.89423,22.118718 -0.20682,6.805271 -1.58284,12.340993 -4.54193,18.272163 -6.7921,13.61401 -19.6576,22.84923 -34.501403,24.76609 -2.6731,0.3452 -8.462043,0.39465 -11.069577,0.0946 z m 0.13263,-7.21578 c 1.195189,-0.57858 2.708536,-2.30336 3.266323,-3.72266 0.333163,-0.84774 0.491548,-1.74947 0.564265,-3.21252 0.09219,-1.85493 0.05766,-2.12884 -0.392392,-3.11188 -0.956359,-2.08896 -2.802765,-3.31018 -5.318726,-3.51785 -2.330067,-0.19231 -3.952395,0.56072 -5.369223,2.49223 -1.588936,2.16614 -2.122143,5.86375 -1.150402,7.97765 0.501838,1.09169 1.391969,2.11529 2.363572,2.71798 1.656467,1.0275 4.345917,1.19549 6.036583,0.37705 z m 15.771859,-0.1243 c 0.08278,-0.0465 0.150516,-0.22182 0.150516,-0.38972 0,-0.23016 -2.328969,-9.09562 -2.922659,-11.1254 -0.0732,-0.25026 0.337067,-0.43444 1.966977,-0.88305 1.132705,-0.31176 2.163537,-0.64734 2.290747,-0.74572 0.14547,-0.11253 0.17549,-0.38054 0.0809,-0.72246 -0.20384,-0.73696 -0.51016,-0.69695 -5.836034,0.76225 -5.628136,1.54202 -5.455425,1.47276 -5.376791,2.15614 0.08705,0.75653 0.635208,0.78678 2.964015,0.16355 1.040185,-0.27838 1.908863,-0.48552 1.930393,-0.46032 0.02153,0.0252 0.728966,2.52244 1.572078,5.54944 0.843111,3.02699 1.6316,5.62251 1.752199,5.76783 0.196219,0.23642 0.944695,0.19839 1.427639,-0.0725 z m -28.36187,-10.93742 4.851573,-4.7557 -2.831707,-2.77009 c -1.55744,-1.52355 -2.894075,-2.79171 -2.970301,-2.81814 -0.07623,-0.0264 -1.222307,0.95579 -2.546845,2.18272 -2.808029,2.60109 -4.88264,4.12474 -5.867949,4.30959 -0.384924,0.0722 -1.198544,0.0117 -1.808044,-0.13456 -1.077815,-0.25856 -1.118809,-0.25272 -1.496035,0.21313 -0.385953,0.47663 -0.385574,0.48073 0.07731,0.83688 0.760025,0.58477 2.33271,1.02542 3.279024,0.91876 1.647693,-0.18572 3.47745,-1.3706 6.747537,-4.36943 l 1.813032,-1.66265 1.537535,1.54859 1.537534,1.54859 -4.264611,4.19451 c -2.345535,2.30698 -4.26461,4.26057 -4.26461,4.3413 0,0.21898 1.063347,1.28732 1.219817,1.22555 0.07435,-0.0293 2.318379,-2.19342 4.986745,-4.80905 z m 42.806431,2.77237 c 1.16427,-0.56938 2.42086,-1.78482 3.06077,-2.96055 0.50236,-0.923 0.58544,-1.29722 0.59509,-2.68027 0.01,-1.38311 -0.0705,-1.77406 -0.57452,-2.80086 -0.70612,-1.43867 -2.71304,-3.48504 -4.07055,-4.15058 -0.71157,-0.34885 -1.39571,-0.49094 -2.6238,-0.54493 -1.47112,-0.0647 -1.78444,-0.0128 -2.73768,0.45361 -1.2059,0.58999 -2.4648,1.84767 -3.16065,3.15759 -0.376,0.7078 -0.46218,1.17649 -0.45573,2.47837 0.007,1.36451 0.0965,1.78358 0.59817,2.79181 0.7642,1.53597 2.57167,3.33223 4.15675,4.13096 1.15114,0.58006 1.38463,0.62588 2.85902,0.56106 1.01914,-0.0448 1.87854,-0.20412 2.35313,-0.43621 z m -21.619141,-9.97453 c 5.846629,-0.98394 11.239471,-5.01416 13.941411,-10.41881 1.51748,-3.03539 2.08179,-5.509044 2.0602,-9.030941 -0.0337,-5.504149 -2.20508,-10.360971 -6.33229,-14.163934 -2.760521,-2.543652 -6.491427,-4.347972 -10.17104,-4.918862 -2.054659,-0.318778 -5.90177,-0.120721 -7.927159,0.408106 -3.761081,0.982015 -7.815618,3.62689 -10.24625,6.683888 -1.557696,1.95911 -3.156484,5.074086 -3.682271,7.174301 -0.840448,3.357097 -0.720133,8.092106 0.28036,11.033678 2.485881,7.308794 8.609057,12.389874 16.206864,13.448624 1.386131,0.19316 4.013133,0.0965 5.870175,-0.21605 z"
     id="path4793"
     inkscape:connector-curvature="0" /><path
     style="fill:none;stroke:none;stroke-width:1px;stroke-linecap:butt;stroke-linejoin:miter;stroke-opacity:1;fill-opacity:1"
     d="m 88.080306,133.59258 c -5.637682,-0.15044 -6.476113,-0.20317 -7.051296,-0.44338 -0.180544,-0.0754 -0.654263,-0.15397 -1.052708,-0.1746 -0.398447,-0.0206 -0.724854,-0.10523 -0.725349,-0.18802 -4.02e-4,-0.0828 -0.126261,-0.15051 -0.27948,-0.15051 -1.03346,0 -6.589712,-1.95757 -9.692386,-3.4148 -1.124093,-0.52795 -2.094919,-0.9088 -2.157392,-0.84633 -0.06247,0.0625 -0.113583,0.0105 -0.113583,-0.1154 0,-0.27589 -1.100683,-0.8779 -1.279026,-0.69956 -0.06918,0.0692 -0.125787,0.0337 -0.125787,-0.0789 0,-0.11258 -0.619893,-0.61689 -1.377541,-1.12069 -3.903218,-2.59547 -8.74563,-7.20767 -11.452572,-10.90811 -0.817495,-1.11753 -2.143552,-3.19464 -2.946795,-4.61581 -0.803243,-1.42117 -1.550223,-2.68721 -1.659956,-2.81342 -0.109732,-0.12621 -0.153129,-0.27586 -0.09644,-0.33255 0.101797,-0.1018 -0.469764,-1.3508 -0.707098,-1.54519 -0.06738,-0.0552 -0.123741,-0.19066 -0.125242,-0.30103 -0.0041,-0.30115 -1.343073,-4.19899 -1.482208,-4.31479 -0.06631,-0.0552 -0.123759,-0.2358 -0.127665,-0.40137 -0.01361,-0.57703 -0.57591,-2.809628 -0.707629,-2.809628 -0.07299,0 -0.08955,-0.225773 -0.0368,-0.501718 0.05275,-0.275946 0.01765,-0.502331 -0.078,-0.50308 -0.09565,-8.03e-4 -0.199014,-0.51016 -0.229696,-1.132026 -0.03068,-0.621869 -0.111191,-1.220319 -0.17891,-1.329891 -0.17383,-0.281261 -0.222064,-1.292281 -0.280619,-5.881994 -0.02828,-2.216768 0.01509,-4.138101 0.09638,-4.269625 0.08129,-0.131527 0.128566,-0.530388 0.105062,-0.886357 -0.0235,-0.355972 0.02511,-0.80661 0.108022,-1.001421 0.08292,-0.194811 0.103876,-0.533472 0.04658,-0.752578 -0.0573,-0.219107 -0.03273,-0.398377 0.0546,-0.398377 0.139728,0 0.483063,-1.791968 0.499864,-2.608939 0.0034,-0.165567 0.0557,-0.346186 0.116207,-0.401375 0.197095,-0.179766 0.804563,-2.628682 0.695739,-2.804763 -0.05822,-0.0942 -0.03511,-0.201558 0.05134,-0.238581 0.08645,-0.03702 0.549919,-1.105871 1.029924,-2.37522 4.074806,-10.775632 11.881355,-19.405024 22.195489,-24.534987 0.993403,-0.494091 2.596395,-1.196944 3.562204,-1.561896 0.965809,-0.364951 1.756016,-0.743665 1.756016,-0.841587 0,-0.09792 0.08954,-0.122698 0.198986,-0.05506 0.212076,0.131071 2.409334,-0.495822 2.410852,-0.687833 4.01e-4,-0.06263 0.337502,-0.131481 0.748903,-0.153011 0.411402,-0.02153 0.779948,-0.134979 0.818992,-0.252109 0.03904,-0.117131 0.147116,-0.165915 0.240163,-0.108409 0.201613,0.124603 4.087689,-0.532746 4.164666,-0.704474 0.02934,-0.06545 0.36756,-0.08231 0.751609,-0.03748 0.384048,0.04483 0.852252,0.02243 1.040455,-0.04979 0.386761,-0.148414 7.850181,-0.182214 8.299304,-0.03758 0.160074,0.05155 0.878056,0.151777 1.595514,0.222732 0.717458,0.07096 2.140323,0.308838 3.161921,0.52863 1.0216,0.219792 1.939557,0.348878 2.039907,0.286859 0.100346,-0.06202 0.212746,-0.03783 0.249766,0.05376 0.037,0.09159 0.8801,0.41677 1.8735,0.722621 3.94244,1.213807 7.65313,2.963207 11.87873,5.600212 1.49442,0.932604 2.12743,1.621529 1.63939,1.78421 -0.77307,0.25769 -0.96446,4.627662 -0.26313,6.008141 0.49993,0.984059 1.67852,2.377857 2.0107,2.377857 0.15818,0 0.2876,0.08002 0.2876,0.177821 0,0.225416 1.11024,0.756657 2.01589,0.964589 1.05703,0.242685 3.19884,0.127377 4.18048,-0.225063 0.48299,-0.173407 0.99298,-0.315284 1.13332,-0.315284 0.38578,0 2.6269,3.572266 4.15486,6.622689 0.74639,1.490105 1.42535,2.799592 1.50878,2.90997 0.0834,0.110378 0.15674,0.290997 0.1629,0.401375 0.0278,0.499245 0.35137,1.304469 0.52412,1.304469 0.10493,0 0.14193,0.07903 0.0822,0.17563 -0.10985,0.177749 0.45024,2.047611 0.66875,2.232621 0.0652,0.05519 0.12156,0.190653 0.12529,0.301031 0.0187,0.555522 0.34627,1.906663 0.46241,1.907572 0.0731,6.02e-4 0.15506,0.384254 0.18216,0.852625 0.0271,0.468373 0.14056,0.88201 0.25211,0.919195 0.11156,0.03719 0.15512,0.144806 0.0968,0.239159 -0.0583,0.09435 0.0314,1.220131 0.19943,2.501731 0.41488,3.164902 0.40082,9.1925 -0.0289,12.375766 -0.18389,1.362259 -0.34193,2.702608 -0.35121,2.978553 -0.009,0.275945 -0.0647,0.546874 -0.12309,0.602063 -0.0584,0.05519 -0.2751,0.777664 -0.48149,1.605502 -1.25032,5.01497 -4.39976,11.36235 -7.91639,15.95466 -2.81902,3.68131 -6.76772,7.37734 -10.66156,9.97935 -1.15897,0.77447 -2.17356,1.51007 -2.25466,1.63467 -0.0811,0.1246 -0.14882,0.15698 -0.15051,0.072 -0.005,-0.23591 -1.60858,0.63447 -1.60858,0.87292 0,0.11465 -0.0903,0.15264 -0.20068,0.0844 -0.11038,-0.0682 -0.20069,-0.0231 -0.20069,0.10034 0,0.12341 -0.0903,0.16856 -0.20069,0.10034 -0.11038,-0.0682 -0.20069,-0.0231 -0.20069,0.10035 0,0.1234 -0.0903,0.16856 -0.20068,0.10034 -0.11038,-0.0682 -0.20069,-0.0231 -0.20069,0.10034 0,0.12341 -0.0903,0.16857 -0.20069,0.10035 -0.11038,-0.0682 -0.20069,-0.0231 -0.20069,0.10034 0,0.12341 -0.0841,0.1724 -0.1869,0.10887 -0.19746,-0.12204 -1.61929,0.48211 -1.61929,0.68805 0,0.0663 -0.15804,0.13035 -0.3512,0.14238 -0.38734,0.0241 -4.70638,1.50408 -4.86667,1.66761 -0.0552,0.0563 -0.41291,0.12788 -0.79493,0.15905 -0.38202,0.0312 -0.743258,0.12149 -0.80275,0.20069 -0.05949,0.0792 -0.373074,0.16328 -0.696851,0.18683 -0.323777,0.0236 -0.73017,0.1005 -0.903094,0.17101 -0.172925,0.0705 -0.75427,0.16552 -1.291878,0.21115 -0.537606,0.0456 -1.078162,0.1452 -1.201236,0.22126 -0.123071,0.0761 -0.530888,0.11184 -0.906259,0.0795 -0.37537,-0.0323 -0.737908,0.0169 -0.80564,0.10945 -0.06773,0.0925 -2.606656,0.10197 -5.642056,0.021 z M 83.82579,126.4352 c 1.032991,-0.527 2.605768,-2.29064 3.202291,-3.59092 0.390251,-0.85065 0.508509,-1.50932 0.594521,-3.31134 0.09854,-2.06456 0.06885,-2.33126 -0.361229,-3.24444 -1.010647,-2.14589 -2.848543,-3.3042 -5.506793,-3.47058 -1.364751,-0.0854 -1.768099,-0.0326 -2.651837,0.34763 -1.642016,0.70637 -3.420962,2.85287 -3.766855,4.54512 -0.06478,0.31693 -0.180816,0.80201 -0.257858,1.07795 -0.20155,0.72191 -0.175108,3.44023 0.03807,3.91341 0.09945,0.22076 0.205,0.51869 0.234545,0.66208 0.0654,0.31741 0.958127,1.50533 1.556017,2.07055 0.581573,0.54979 1.760869,1.14551 2.691479,1.35961 1.173681,0.27002 3.358214,0.0845 4.22765,-0.35907 z m 15.461502,0.0489 c 0.412949,-0.11056 0.456396,-0.21408 0.356812,-0.85018 -0.195339,-1.24776 -0.236797,-1.41839 -1.511536,-6.22122 -0.685244,-2.5818 -1.172792,-4.76222 -1.083438,-4.84538 0.08935,-0.0832 0.975245,-0.39403 1.968649,-0.69082 2.125381,-0.63497 2.451181,-0.86714 2.110401,-1.5039 -0.20929,-0.39107 -0.35672,-0.43087 -1.273887,-0.34389 -1.06703,0.1012 -8.151688,1.96689 -9.31554,2.45318 -0.492391,0.20573 -0.652258,0.39708 -0.652258,0.78067 0,0.77298 0.75386,0.85564 2.957877,0.3243 1.035275,-0.24958 1.906271,-0.42149 1.935548,-0.38201 0.02928,0.0395 0.258997,0.8394 0.510489,1.77762 1.262296,4.70911 2.669891,9.15476 2.970603,9.38214 0.379793,0.28718 0.393845,0.28881 1.02628,0.11949 z m -28.054702,-11.0882 4.906806,-4.79757 -1.204125,-1.23871 c -0.662269,-0.68129 -1.995438,-1.96492 -2.962598,-2.85252 l -1.75847,-1.6138 -0.787356,0.67619 c -0.433046,0.3719 -1.809158,1.56702 -3.058029,2.6558 -1.248873,1.08878 -2.722222,2.24597 -3.274113,2.57152 -0.949489,0.56009 -1.090837,0.58589 -2.629039,0.47995 -1.45125,-0.0999 -1.664448,-0.069 -1.987807,0.28828 -0.345613,0.3819 -0.346062,0.41808 -0.0098,0.78966 0.475974,0.52594 1.982386,1.01539 3.125169,1.01539 1.655087,0 3.479361,-1.15677 7.728547,-4.90066 l 1.120493,-0.98724 1.461393,1.45163 1.461393,1.45164 -4.183808,4.15143 c -2.301094,2.28328 -4.182957,4.25199 -4.181916,4.37491 0.002,0.23981 0.972018,1.28167 1.193248,1.28167 0.07325,0 2.341252,-2.15891 5.039996,-4.79757 z m 43.19545,2.52528 c 1.37975,-0.80859 2.69734,-2.3949 3.07865,-3.70653 0.71659,-2.46499 -0.0202,-4.78962 -2.2129,-6.98238 -1.71832,-1.71832 -2.60463,-2.12918 -4.83682,-2.24215 -1.63779,-0.0829 -1.89974,-0.0439 -2.80963,0.41835 -0.89272,0.45352 -2.70928,2.08822 -2.70928,2.43807 0,0.0735 -0.13308,0.26673 -0.29573,0.42938 -0.48609,0.48609 -0.76137,1.89381 -0.64535,3.30018 0.10461,1.26812 0.6394,2.79743 0.97825,2.79743 0.0899,0 0.16352,0.1381 0.16352,0.3069 0,0.49362 2.43862,2.75401 3.62604,3.36103 1.00383,0.51317 1.23552,0.55133 2.92703,0.48202 1.53799,-0.063 1.98326,-0.16103 2.73622,-0.6023 z m -22.936045,-9.63982 c 1.996928,-0.25147 2.438617,-0.34927 3.820254,-0.84583 0.823881,-0.29611 1.543121,-0.59465 1.59831,-0.66343 0.05519,-0.0688 0.235808,-0.15458 0.401375,-0.19069 0.459131,-0.10012 2.251807,-1.16049 2.751066,-1.62726 0.24373,-0.22787 0.50193,-0.41431 0.57377,-0.41431 0.0718,0 0.32397,-0.17078 0.56028,-0.37952 1.83032,-1.6167 2.53689,-2.31567 2.53689,-2.50964 0,-0.12391 0.18062,-0.33809 0.40137,-0.47596 0.22076,-0.13786 0.40138,-0.33555 0.40138,-0.43931 0,-0.10375 0.22408,-0.43043 0.49795,-0.72595 0.27388,-0.295521 0.44917,-0.616256 0.38954,-0.712748 -0.0596,-0.09649 -0.0323,-0.175439 0.0608,-0.175439 0.24122,0 0.8731,-1.121994 0.71878,-1.276309 -0.0707,-0.07068 -0.0178,-0.128504 0.11748,-0.128504 0.13529,0 0.19017,-0.09031 0.12195,-0.200688 -0.0682,-0.110378 -0.0369,-0.200687 0.0695,-0.200687 0.24787,0 1.42406,-3.237695 1.56408,-4.305431 0.31185,-2.378186 0.36111,-2.919322 0.36621,-4.023103 0.005,-1.096728 -0.10499,-2.285557 -0.37677,-4.069436 -0.15546,-1.020348 -0.75777,-3.054973 -0.90437,-3.054973 -0.0724,0 -0.14584,-0.189832 -0.16331,-0.421847 -0.0384,-0.509092 -1.57859,-3.245684 -2.21058,-3.927616 -0.2486,-0.268245 -0.452,-0.555495 -0.452,-0.638333 0,-0.274003 -3.83238,-3.842456 -4.12665,-3.842456 -0.15866,0 -0.288477,-0.09031 -0.288477,-0.200688 0,-0.110378 -0.135464,-0.200688 -0.301032,-0.200688 -0.165567,0 -0.301031,-0.07912 -0.301031,-0.175828 0,-0.156456 -2.760056,-1.714095 -3.010313,-1.69887 -0.05519,0.0034 -0.396521,-0.117647 -0.758513,-0.268898 -1.807878,-0.75538 -3.908689,-1.059831 -6.767271,-0.98072 -1.545294,0.04277 -3.080554,0.13286 -3.411689,0.200208 -0.331134,0.06735 -0.782681,0.154287 -1.003437,0.193198 -0.220757,0.03891 -0.44653,0.09269 -0.501719,0.11951 -0.05519,0.02682 -0.190654,0.06349 -0.301032,0.08149 -0.842356,0.137393 -1.505156,0.38946 -1.505156,0.572425 0,0.120005 -0.05509,0.163103 -0.12242,0.09577 -0.138248,-0.138249 -2.95166,1.23862 -3.055133,1.495165 -0.03679,0.09122 -0.194835,0.165858 -0.351203,0.165858 -0.15637,0 -0.284308,0.09031 -0.284308,0.200687 0,0.110379 -0.135464,0.200688 -0.301031,0.200688 -0.165568,0 -0.301032,0.09031 -0.301032,0.200688 0,0.110378 -0.100157,0.200687 -0.222572,0.200687 -0.24266,0 -0.462053,0.179555 -2.336194,1.911967 -0.689864,0.637694 -1.254298,1.2715 -1.254298,1.408455 0,0.136957 -0.135464,0.300993 -0.301031,0.364529 -0.165567,0.06353 -0.301031,0.212436 -0.301031,0.330894 0,0.118457 -0.164861,0.392334 -0.366357,0.608615 -0.503194,0.540116 -2.559762,4.715716 -2.833522,5.753106 -0.763211,2.892131 -0.665117,9.577617 0.161335,10.99566 0.06433,0.110378 0.141107,0.355598 0.17062,0.544933 0.09118,0.58499 1.306009,3.167786 1.489981,3.167786 0.0956,0 0.15124,0.06927 0.123646,0.153932 -0.07169,0.219939 1.260225,2.254316 1.475906,2.254316 0.09887,0 0.179766,0.10017 0.179766,0.22261 0,0.558 5.210423,5.20233 5.220949,4.65371 0.0016,-0.0881 0.06942,-0.0589 0.150516,0.0648 0.166239,0.25365 2.656037,1.54614 2.656037,1.37878 0,-0.0593 0.203197,0.0251 0.451547,0.18759 0.508493,0.33271 2.777711,0.96657 2.926754,0.81753 0.05324,-0.0532 0.217517,0.003 0.365056,0.12583 0.147542,0.12245 0.449268,0.1753 0.670501,0.11744 0.221234,-0.0579 0.459796,-0.0121 0.530139,0.10175 0.118787,0.1922 2.983752,0.12455 4.889694,-0.11547 z"
     id="path4795"
     inkscape:connector-curvature="0" /><path
     style="fill:none;stroke:none;stroke-width:1px;stroke-linecap:butt;stroke-linejoin:miter;stroke-opacity:1"
     d="m 87.662208,133.55913 c -0.04599,-0.0442 -1.551072,-0.11193 -3.344625,-0.15051 -1.793551,-0.0386 -3.261269,-0.1153 -3.261592,-0.17049 -4.01e-4,-0.0552 -0.745454,-0.27307 -1.655843,-0.48418 -2.299795,-0.53329 -6.285543,-1.91284 -9.320117,-3.22588 -1.406415,-0.60854 -2.627793,-1.10644 -2.714173,-1.10644 -0.08638,0 -0.3151,-0.13823 -0.508261,-0.30718 -0.193162,-0.16894 -1.118833,-0.81366 -2.057048,-1.43269 -4.816893,-3.17821 -9.914527,-8.13798 -12.801043,-12.45484 -3.583852,-5.35974 -5.666465,-10.102 -6.898221,-15.70774 -0.254661,-1.158971 -0.513986,-2.131222 -0.576276,-2.16056 -0.06229,-0.02934 -0.07652,-0.367997 -0.03162,-0.752578 0.0449,-0.38458 0.004,-0.699326 -0.09084,-0.699433 -0.267034,-3.03e-4 -0.335714,-8.893112 -0.08447,-10.937277 0.661543,-5.382411 2.125217,-10.158088 4.667078,-15.227747 4.307386,-8.590945 11.153772,-15.437161 19.763762,-19.763273 4.081259,-2.050639 7.976436,-3.401996 11.700021,-4.059097 1.266465,-0.223494 2.350178,-0.469277 2.408251,-0.546186 0.191032,-0.252997 9.050168,-0.294462 10.84237,-0.05075 5.674457,0.771644 10.048932,2.042926 14.549852,4.228384 2.34546,1.138862 5.92989,3.204058 6.90762,3.979884 0.48319,0.383417 0.48385,0.389059 0.13081,1.133023 -0.27114,0.571395 -0.34819,1.203934 -0.32679,2.682719 0.0154,1.064269 0.0299,2.093075 0.0322,2.286237 0.002,0.193162 0.086,0.351203 0.18607,0.351203 0.10006,0 0.13023,0.134703 0.0671,0.29934 -0.0655,0.170668 0.023,0.352239 0.20583,0.422404 0.17639,0.06768 0.27035,0.204549 0.20879,0.30414 -0.0616,0.09959 0.0293,0.235255 0.20184,0.301474 0.17257,0.06622 0.31376,0.230457 0.31376,0.364975 0,0.134518 0.22577,0.456681 0.50171,0.715918 0.27595,0.259237 0.50172,0.414548 0.50172,0.345136 0,-0.06941 0.22167,0.09546 0.4926,0.366393 0.27093,0.270928 0.63217,0.503885 0.80275,0.517682 0.38445,0.0311 0.51131,0.06648 0.99886,0.278571 0.77132,0.335548 3.61717,0.157536 4.82542,-0.301837 0.72941,-0.277325 0.89903,-0.115368 2.40861,2.299942 1.70899,2.734368 3.78391,6.975378 4.61778,9.438461 0.41105,1.214159 0.82867,2.237853 0.92805,2.274876 0.0994,0.03702 0.12751,0.153357 0.0625,0.258525 -0.13059,0.211298 0.32536,2.182756 0.50482,2.182756 0.0619,0 0.11944,0.248351 0.12782,0.551891 0.008,0.30354 0.1417,1.545294 0.29626,2.759454 0.39419,3.096698 0.34834,10.530002 -0.0844,13.675975 -0.94777,6.890694 -4.51162,14.862944 -9.36205,20.942634 -2.58989,3.24625 -6.74294,7.01559 -10.58264,9.60487 -0.68986,0.46521 -1.25429,0.93278 -1.25429,1.03904 0,0.10627 -0.0695,0.17064 -0.15439,0.14304 -0.0849,-0.0276 -1.37183,0.55052 -2.8598,1.28469 -6.03649,2.97842 -12.520624,4.58542 -18.501862,4.58542 -1.485138,0 -2.73788,-0.0362 -2.78387,-0.0804 z m -3.83003,-7.12719 c 0.639969,-0.32649 1.384526,-1.05002 2.657858,-2.58281 0.669076,-0.80541 1.017406,-2.15022 1.126542,-4.34929 0.104417,-2.10397 0.0768,-2.36083 -0.348193,-3.23876 -1.027258,-2.12203 -2.878777,-3.27823 -5.513805,-3.44316 -1.364751,-0.0854 -1.768099,-0.0326 -2.651837,0.34763 -1.165523,0.50139 -2.59424,1.90124 -3.247653,3.18204 -0.52206,1.02332 -0.9761,3.01575 -0.99073,4.34757 -0.04145,3.77281 2.917801,6.50527 6.747343,6.23023 0.857554,-0.0616 1.772504,-0.26491 2.220475,-0.49345 z m 15.570561,0.0617 c 0.174597,-0.067 0.318301,-0.31534 0.319349,-0.55189 0.001,-0.23654 -0.595834,-2.80016 -1.326397,-5.69694 -0.730563,-2.89677 -1.283936,-5.38246 -1.229717,-5.52375 0.05422,-0.1413 0.926163,-0.52138 1.937655,-0.84463 2.081971,-0.66536 2.360541,-0.87605 2.014121,-1.52333 -0.21357,-0.39906 -0.34255,-0.42907 -1.36857,-0.31845 -1.207663,0.13021 -7.895614,1.89787 -9.126596,2.4122 -0.57287,0.23936 -0.736089,0.42023 -0.736089,0.8157 0,0.75227 0.732742,0.84334 2.952328,0.36694 1.348241,-0.28938 1.917353,-0.34102 1.973399,-0.17908 0.04332,0.12517 0.394456,1.35644 0.780308,2.73617 0.848021,3.03236 1.674986,5.81146 1.851252,6.22132 0.07121,0.16556 0.14998,0.39134 0.175056,0.50171 0.02508,0.11038 0.187446,0.53935 0.360822,0.95327 0.314377,0.75054 0.684007,0.91437 1.423079,0.63076 z m -28.154963,-11.10016 4.89162,-4.79997 -1.806188,-1.83729 c -0.993403,-1.01051 -2.324588,-2.29045 -2.958186,-2.84432 -1.350391,-1.18045 -0.814724,-1.39452 -4.494547,1.79621 -1.309526,1.13548 -2.865387,2.39934 -3.457466,2.80858 -1.062295,0.73426 -1.099605,0.74339 -2.825705,0.69165 -1.537964,-0.0461 -1.793422,-0.004 -2.115424,0.35225 -0.349521,0.38622 -0.350151,0.42244 -0.01381,0.7941 0.475349,0.52525 1.984707,1.01637 3.107053,1.01098 1.634982,-0.008 3.17991,-0.92277 6.712766,-3.97533 l 2.182877,-1.88611 1.425477,1.42547 1.425478,1.42548 -4.160245,4.17747 c -2.288133,2.29761 -4.160243,4.27314 -4.160243,4.39006 0,0.24011 0.97856,1.27075 1.206543,1.27075 0.08161,0 2.349604,-2.15999 5.039996,-4.79998 z m 43.196494,2.51818 c 1.26346,-0.74044 2.64529,-2.35953 3.04766,-3.57096 0.76278,-2.2965 0.0704,-4.70097 -1.99648,-6.93347 -1.60969,-1.73865 -2.71872,-2.27286 -5.00124,-2.40903 -1.6507,-0.0985 -1.95089,-0.0615 -2.73044,0.33617 -1.28953,0.65787 -2.74747,2.1162 -3.35303,3.35392 -0.47795,0.97689 -0.52123,1.24542 -0.42448,2.63393 0.0592,0.85038 0.22839,1.81707 0.37586,2.1482 0.75845,1.703 2.74932,3.7363 4.58481,4.68252 0.81187,0.41853 1.10414,0.45792 2.76112,0.37216 1.52099,-0.0787 2.01143,-0.18868 2.73622,-0.61344 z m -22.318602,-9.67865 c 0.117553,-0.0726 0.585538,-0.15982 1.039969,-0.19372 0.454429,-0.0339 0.858487,-0.15838 0.897906,-0.27664 0.03942,-0.11825 0.154795,-0.16364 0.256389,-0.10085 0.235334,0.14545 1.587189,-0.33595 1.587189,-0.5652 0,-0.0947 0.08354,-0.12058 0.185648,-0.0575 0.242628,0.14995 1.219165,-0.29707 1.219165,-0.55809 0,-0.11106 0.05634,-0.14558 0.125193,-0.0767 0.170934,0.17094 1.680995,-0.61686 1.680995,-0.87697 0,-0.11465 0.09095,-0.15224 0.202105,-0.0835 0.111159,0.0687 0.256284,-0.0163 0.322503,-0.18885 0.06622,-0.17256 0.239769,-0.31375 0.38567,-0.31375 0.1459,0 0.58778,-0.30417 0.98197,-0.67593 0.39418,-0.37176 0.71669,-0.62351 0.71669,-0.55943 0,0.0641 0.44947,-0.32622 0.99881,-0.8673 0.54935,-0.54109 0.95881,-1.02381 0.9099,-1.07271 -0.0489,-0.0489 0.13856,-0.26784 0.41657,-0.48653 0.27802,-0.21868 0.45941,-0.44368 0.40311,-0.49999 -0.0563,-0.0563 0.0714,-0.2492 0.28389,-0.42866 0.90849,-0.767419 3.20676,-5.562493 2.90225,-6.055203 -0.065,-0.105254 -0.0319,-0.191373 0.0737,-0.191373 0.17791,0 0.49405,-1.55808 0.65153,-3.211001 0.10531,-1.105237 0.0647,-3.216651 -0.083,-4.314783 -0.0742,-0.551891 -0.14247,-1.138902 -0.15167,-1.304469 -0.009,-0.165567 -0.0651,-0.436496 -0.12418,-0.602063 -0.0591,-0.165567 -0.13287,-0.568973 -0.16394,-0.896457 -0.0311,-0.327486 -0.15068,-0.626826 -0.26581,-0.665201 -0.11512,-0.03838 -0.15958,-0.199403 -0.0988,-0.35784 0.0608,-0.158435 0.005,-0.288065 -0.12346,-0.288065 -0.1287,0 -0.17967,-0.08791 -0.11327,-0.195347 0.16261,-0.263116 -1.21527,-3.216342 -1.50064,-3.216342 -0.12408,0 -0.17025,-0.08955 -0.1026,-0.199005 0.0676,-0.109453 -0.10354,-0.425536 -0.38041,-0.702407 -0.27687,-0.27687 -0.43978,-0.506405 -0.36201,-0.510077 0.0778,-0.0037 -0.0718,-0.184292 -0.33238,-0.401375 -0.26058,-0.217084 -0.40619,-0.394699 -0.32358,-0.394699 0.0826,0 -0.53152,-0.67732 -1.36474,-1.505156 -0.83323,-0.827837 -1.59157,-1.505157 -1.6852,-1.505157 -0.0936,0 -0.28305,-0.180619 -0.42091,-0.401375 -0.13787,-0.220757 -0.38536,-0.401375 -0.55,-0.401375 -0.16463,0 -0.299327,-0.09031 -0.299327,-0.200688 0,-0.110378 -0.135464,-0.200688 -0.301032,-0.200688 -0.165567,0 -0.301031,-0.07084 -0.301031,-0.157417 0,-0.232803 -1.126489,-0.856759 -1.276309,-0.70694 -0.07068,0.07068 -0.128504,0.01782 -0.128504,-0.117476 0,-0.13529 -0.09031,-0.190166 -0.200688,-0.121948 -0.110378,0.06822 -0.200687,0.02378 -0.200687,-0.09874 0,-0.276153 -1.35152,-0.860978 -1.614335,-0.698552 -0.105519,0.06522 -0.191853,0.02994 -0.191853,-0.07839 0,-0.254589 -1.333569,-0.697191 -1.601577,-0.531551 -0.112536,0.06955 -0.204611,0.02028 -0.204611,-0.109481 0,-0.135204 -0.167263,-0.192199 -0.391752,-0.133494 -0.215465,0.05634 -0.424511,0.0042 -0.464546,-0.115933 -0.04861,-0.145818 -1.135376,-0.214756 -3.270796,-0.207479 -4.025409,0.01373 -6.509347,0.282107 -6.509347,0.703334 0,0.104608 -0.09576,0.131013 -0.212801,0.05868 -0.271328,-0.167691 -1.3927,0.288847 -1.3927,0.567 0,0.115384 -0.05615,0.153635 -0.124785,0.085 -0.143907,-0.143905 -2.017885,0.767078 -2.434059,1.183251 -0.153699,0.153699 -0.408464,0.279452 -0.566148,0.279452 -0.157682,0 -0.286696,0.09031 -0.286696,0.200687 0,0.110379 -0.125803,0.200688 -0.27956,0.200688 -0.153759,0 -0.333739,0.141188 -0.399958,0.313751 -0.06622,0.172563 -0.204113,0.262012 -0.306432,0.198775 -0.102321,-0.06324 -0.373885,0.123838 -0.603482,0.41572 -0.229594,0.291882 -0.417444,0.453612 -0.417444,0.359398 0,-0.09421 -0.539494,0.362568 -1.198877,1.015069 -0.659383,0.652502 -1.167966,1.217279 -1.130186,1.255058 0.03778,0.03778 -0.190356,0.346001 -0.506967,0.684935 -0.316613,0.338933 -0.575658,0.742156 -0.575658,0.896052 0,0.153893 -0.08423,0.279806 -0.187164,0.279806 -0.10294,0 -0.250576,0.203196 -0.32808,0.451547 -0.07751,0.248351 -0.196477,0.496702 -0.264383,0.551891 -0.178279,0.14489 -1.027535,1.869567 -1.037625,2.107219 -0.0047,0.110379 -0.141662,0.403884 -0.304387,0.652235 -0.162726,0.248351 -0.226051,0.45293 -0.140722,0.45462 0.08533,0.0016 0.04449,0.07337 -0.09075,0.159289 -0.13524,0.08592 -0.270704,0.378041 -0.301032,0.64916 -0.03033,0.271121 -0.120081,0.541706 -0.199453,0.6013 -0.238902,0.179375 -0.452207,2.755631 -0.43136,5.209868 0.03045,3.584488 0.05764,4.013751 0.254231,4.013751 0.100938,0 0.136289,0.180619 0.07856,0.401375 -0.06101,0.233289 -0.0062,0.401375 0.130977,0.401375 0.129765,0 0.189333,0.07541 0.132372,0.167574 -0.144066,0.233101 0.307768,1.638614 0.526768,1.638614 0.09837,0 0.127228,0.08354 0.06412,0.185648 -0.143072,0.231497 0.291541,1.219165 0.536482,1.219165 0.09918,0 0.124505,0.09031 0.05629,0.200688 -0.06822,0.110378 -0.01335,0.200687 0.121948,0.200687 0.135289,0 0.188152,0.05783 0.117476,0.128504 -0.154316,0.154315 0.477562,1.276309 0.718783,1.276309 0.09309,0 0.113916,0.08955 0.04627,0.199006 -0.06764,0.109453 0.103539,0.425536 0.38041,0.702406 0.27687,0.276873 0.439774,0.506403 0.362008,0.510073 -0.07777,0.004 0.05796,0.17308 0.301619,0.37647 0.243657,0.20338 0.401805,0.41099 0.35144,0.46135 -0.05036,0.0504 0.60822,0.74799 1.463518,1.55028 0.855301,0.80229 1.758288,1.65091 2.006639,1.88583 0.248351,0.23491 0.454293,0.3387 0.45765,0.23065 0.0034,-0.10806 0.09922,-0.0365 0.213022,0.15895 0.113806,0.19549 0.282215,0.30889 0.374244,0.25202 0.09203,-0.0569 0.221304,0.0373 0.287278,0.20918 0.06598,0.17193 0.210903,0.25639 0.322062,0.1877 0.111157,-0.0687 0.202104,-0.0239 0.202104,0.0995 0,0.12341 0.09031,0.16856 0.200688,0.10035 0.110378,-0.0682 0.200687,-0.0421 0.200687,0.058 0,0.17887 1.312615,0.84993 1.705845,0.87209 0.110378,0.006 0.253968,0.0975 0.319089,0.20289 0.06512,0.10536 0.31347,0.20627 0.551891,0.22423 0.238418,0.018 0.433489,0.1134 0.433489,0.2121 0,0.0987 0.12963,0.12971 0.288065,0.0689 0.158436,-0.0608 0.317345,-0.0227 0.353131,0.0847 0.03579,0.10736 0.335127,0.21517 0.665201,0.23958 0.330073,0.0244 0.645289,0.10205 0.700478,0.17253 0.05519,0.0705 0.597046,0.22428 1.204126,0.34179 1.127519,0.21826 6.067022,0.15084 6.453612,-0.0881 z"
     id="path4797"
     inkscape:connector-curvature="0" /><path
     style="fill:#ffffff;stroke:none;stroke-width:1px;stroke-linecap:butt;stroke-linejoin:miter;stroke-opacity:1;fill-opacity:0"
     d="m 85.764604,133.81843 c -2.816418,-0.28518 -3.826623,-0.42723 -5.692868,-0.80053 -6.592908,-1.31873 -12.653518,-4.05565 -18.311199,-8.26917 -2.658665,-1.98003 -6.724351,-6.07365 -8.79137,-8.85179 -5.037171,-6.7701 -8.009369,-14.39238 -8.825279,-22.632639 -0.195282,-1.972247 -0.195001,-6.798793 5.1e-4,-8.766735 1.324473,-13.33163 8.663754,-25.519655 19.88711,-33.025662 5.858893,-3.918337 12.67779,-6.405147 19.883856,-7.251522 2.150633,-0.252598 7.2453,-0.287431 9.485674,-0.06485 6.064565,0.602504 12.527392,2.657633 17.665672,5.617552 1.95155,1.124196 4.6409,2.913513 4.6409,3.087755 0,0.06968 -0.16327,0.484067 -0.36282,0.92086 -1.49765,3.278244 -0.1498,7.117241 3.05223,8.693418 1.67216,0.823112 3.99756,0.800196 5.84801,-0.05763 l 0.77442,-0.359006 0.94155,1.360096 c 4.46373,6.447973 7.08627,13.821881 7.79358,21.913562 0.21665,2.478476 0.106,7.078063 -0.22901,9.519521 -1.31322,9.570356 -5.5255,18.276696 -12.19903,25.214096 -7.12787,7.40971 -16.281,12.04894 -26.594562,13.47936 -1.505951,0.20886 -7.730331,0.39858 -8.967374,0.27332 z m -2.130885,-7.35703 c 2.337354,-1.10574 3.847824,-3.65522 4.074721,-6.87759 0.242704,-3.44687 -1.489986,-5.84121 -4.78895,-6.61768 -2.209344,-0.52001 -4.13302,0.0115 -5.65722,1.56305 -2.383796,2.42658 -3.099401,6.77008 -1.550763,9.41263 0.801095,1.36697 2.441613,2.52205 4.064496,2.86179 1.177371,0.24648 2.944744,0.0897 3.857716,-0.3422 z m 15.638621,-0.11073 c 0.274504,-0.0957 0.465665,-0.26488 0.465665,-0.41215 0,-0.1374 -0.665291,-2.70932 -1.478423,-5.71537 -0.813132,-3.00605 -1.478532,-5.53964 -1.478667,-5.6302 -1.34e-4,-0.0906 0.648521,-0.34537 1.441456,-0.56625 0.792935,-0.22089 1.797879,-0.51044 2.233209,-0.64345 l 0.7915,-0.24184 -0.0779,-0.58098 c -0.0429,-0.31954 -0.1575,-0.63017 -0.25477,-0.69028 -0.0973,-0.0601 -0.58472,-0.0149 -1.083243,0.10042 -1.597891,0.36972 -9.025772,2.4339 -9.408733,2.61465 -0.27996,0.13214 -0.380732,0.30758 -0.415263,0.72295 -0.04046,0.48664 -0.0013,0.55956 0.346483,0.64687 0.32605,0.0818 2.155418,-0.31378 4.227702,-0.91427 0.198413,-0.0575 0.37534,0.4158 1.011939,2.70698 2.502153,9.00551 2.421481,8.76525 2.94315,8.76525 0.148643,0 0.479808,-0.0731 0.735925,-0.16233 z m -28.122344,-10.99786 4.855407,-4.80192 -2.764412,-2.73928 c -1.520426,-1.5066 -2.873899,-2.73928 -3.007715,-2.73928 -0.133818,0 -1.152192,0.84456 -2.263055,1.87678 -3.498464,3.25082 -5.472599,4.62936 -6.62947,4.62936 -0.272882,0 -0.894949,-0.11088 -1.382374,-0.24639 -0.883977,-0.24577 -0.887162,-0.24552 -1.254634,0.0997 -0.59797,0.56176 -0.479981,0.81637 0.629692,1.3588 0.880543,0.43044 1.137426,0.48732 2.181033,0.48292 1.076496,-0.005 1.276066,-0.0545 2.218,-0.55531 1.395875,-0.74215 2.600959,-1.66833 4.858173,-3.7338 l 1.89672,-1.73559 1.465188,1.45969 c 0.805852,0.80283 1.465187,1.53832 1.465187,1.63443 0,0.0961 -1.928004,2.06293 -4.284453,4.3707 l -4.284454,4.19595 0.622578,0.62258 c 0.342419,0.34242 0.667714,0.62258 0.72288,0.62258 0.05517,0 2.285236,-2.16087 4.955709,-4.80193 z m 41.827974,3.09377 c 0.48472,-0.12622 1.14746,-0.38677 1.47277,-0.57901 0.84356,-0.49848 2.18567,-1.89447 2.68155,-2.78918 0.40536,-0.73139 0.42365,-0.84736 0.42365,-2.68665 0,-1.91133 -0.003,-1.92774 -0.51388,-2.8834 -0.73145,-1.36807 -2.75655,-3.35683 -4.08317,-4.00993 -0.98324,-0.48404 -1.07242,-0.50001 -2.79317,-0.50001 -1.69615,0 -1.81465,0.0203 -2.58883,0.4436 -1.11521,0.60977 -2.52277,2.04932 -3.04627,3.11551 -0.39662,0.80779 -0.43055,1.00567 -0.43055,2.51109 0,1.58524 0.0163,1.66724 0.54486,2.73665 0.67405,1.36385 1.88874,2.72742 3.19412,3.58562 1.86716,1.22752 3.32723,1.52747 5.13892,1.05571 z M 92.49396,108.11547 c 9.45353,-1.67381 16.40096,-10.423015 15.91923,-20.047803 -0.18855,-3.767177 -1.23006,-6.963141 -3.27674,-10.054934 -0.92858,-1.402748 -3.81703,-4.30204 -5.18886,-5.208332 -2.327855,-1.537889 -4.541103,-2.489722 -7.046142,-3.030273 -0.959615,-0.207071 -1.857507,-0.260802 -4.179511,-0.250104 -2.67923,0.01235 -3.090616,0.0492 -4.374649,0.391931 -6.215425,1.658999 -10.967289,5.718225 -13.45859,11.496849 -1.137887,2.639354 -1.241962,3.279376 -1.238445,7.615996 0.0031,3.768319 0.01118,3.870916 0.409697,5.175334 0.521888,1.708221 2.09792,4.880939 3.084988,6.210396 1.126505,1.51727 3.431504,3.73852 4.878752,4.70149 2.394705,1.59338 5.114313,2.66601 7.962714,3.14053 1.517458,0.2528 4.668841,0.18448 6.507556,-0.14108 z"
     id="path4171"
     inkscape:connector-curvature="0" /><path
     style="fill:#ffffff;stroke:none;stroke-width:1px;stroke-linecap:butt;stroke-linejoin:miter;stroke-opacity:1;fill-opacity:0"
     d="m 85.764604,133.81843 c -2.816418,-0.28518 -3.826623,-0.42723 -5.692868,-0.80053 -6.592908,-1.31873 -12.653518,-4.05565 -18.311199,-8.26917 -2.658665,-1.98003 -6.724351,-6.07365 -8.79137,-8.85179 -5.037171,-6.7701 -8.009369,-14.39238 -8.825279,-22.632639 -0.195282,-1.972247 -0.195001,-6.798793 5.1e-4,-8.766735 1.324473,-13.33163 8.663754,-25.519655 19.88711,-33.025662 5.858893,-3.918337 12.67779,-6.405147 19.883856,-7.251522 2.150633,-0.252598 7.2453,-0.287431 9.485674,-0.06485 6.064565,0.602504 12.527392,2.657633 17.665672,5.617552 1.95155,1.124196 4.6409,2.913513 4.6409,3.087755 0,0.06968 -0.16327,0.484067 -0.36282,0.92086 -1.49765,3.278244 -0.1498,7.117241 3.05223,8.693418 1.67216,0.823112 3.99756,0.800196 5.84801,-0.05763 l 0.77442,-0.359006 0.94155,1.360096 c 4.46373,6.447973 7.08627,13.821881 7.79358,21.913562 0.21665,2.478476 0.106,7.078063 -0.22901,9.519521 -1.31322,9.570356 -5.5255,18.276696 -12.19903,25.214096 -7.12787,7.40971 -16.281,12.04894 -26.594562,13.47936 -1.505951,0.20886 -7.730331,0.39858 -8.967374,0.27332 z m -2.130885,-7.35703 c 2.337354,-1.10574 3.847824,-3.65522 4.074721,-6.87759 0.242704,-3.44687 -1.489986,-5.84121 -4.78895,-6.61768 -2.209344,-0.52001 -4.13302,0.0115 -5.65722,1.56305 -2.383796,2.42658 -3.099401,6.77008 -1.550763,9.41263 0.801095,1.36697 2.441613,2.52205 4.064496,2.86179 1.177371,0.24648 2.944744,0.0897 3.857716,-0.3422 z m 15.638621,-0.11073 c 0.274504,-0.0957 0.465665,-0.26488 0.465665,-0.41215 0,-0.1374 -0.665291,-2.70932 -1.478423,-5.71537 -0.813132,-3.00605 -1.478532,-5.53964 -1.478667,-5.6302 -1.34e-4,-0.0906 0.648521,-0.34537 1.441456,-0.56625 0.792935,-0.22089 1.797879,-0.51044 2.233209,-0.64345 l 0.7915,-0.24184 -0.0779,-0.58098 c -0.0429,-0.31954 -0.1575,-0.63017 -0.25477,-0.69028 -0.0973,-0.0601 -0.58472,-0.0149 -1.083243,0.10042 -1.597891,0.36972 -9.025772,2.4339 -9.408733,2.61465 -0.27996,0.13214 -0.380732,0.30758 -0.415263,0.72295 -0.04046,0.48664 -0.0013,0.55956 0.346483,0.64687 0.32605,0.0818 2.155418,-0.31378 4.227702,-0.91427 0.198413,-0.0575 0.37534,0.4158 1.011939,2.70698 2.502153,9.00551 2.421481,8.76525 2.94315,8.76525 0.148643,0 0.479808,-0.0731 0.735925,-0.16233 z m -28.122344,-10.99786 4.855407,-4.80192 -2.764412,-2.73928 c -1.520426,-1.5066 -2.873899,-2.73928 -3.007715,-2.73928 -0.133818,0 -1.152192,0.84456 -2.263055,1.87678 -3.498464,3.25082 -5.472599,4.62936 -6.62947,4.62936 -0.272882,0 -0.894949,-0.11088 -1.382374,-0.24639 -0.883977,-0.24577 -0.887162,-0.24552 -1.254634,0.0997 -0.59797,0.56176 -0.479981,0.81637 0.629692,1.3588 0.880543,0.43044 1.137426,0.48732 2.181033,0.48292 1.076496,-0.005 1.276066,-0.0545 2.218,-0.55531 1.395875,-0.74215 2.600959,-1.66833 4.858173,-3.7338 l 1.89672,-1.73559 1.465188,1.45969 c 0.805852,0.80283 1.465187,1.53832 1.465187,1.63443 0,0.0961 -1.928004,2.06293 -4.284453,4.3707 l -4.284454,4.19595 0.622578,0.62258 c 0.342419,0.34242 0.667714,0.62258 0.72288,0.62258 0.05517,0 2.285236,-2.16087 4.955709,-4.80193 z m 41.827974,3.09377 c 0.48472,-0.12622 1.14746,-0.38677 1.47277,-0.57901 0.84356,-0.49848 2.18567,-1.89447 2.68155,-2.78918 0.40536,-0.73139 0.42365,-0.84736 0.42365,-2.68665 0,-1.91133 -0.003,-1.92774 -0.51388,-2.8834 -0.73145,-1.36807 -2.75655,-3.35683 -4.08317,-4.00993 -0.98324,-0.48404 -1.07242,-0.50001 -2.79317,-0.50001 -1.69615,0 -1.81465,0.0203 -2.58883,0.4436 -1.11521,0.60977 -2.52277,2.04932 -3.04627,3.11551 -0.39662,0.80779 -0.43055,1.00567 -0.43055,2.51109 0,1.58524 0.0163,1.66724 0.54486,2.73665 0.67405,1.36385 1.88874,2.72742 3.19412,3.58562 1.86716,1.22752 3.32723,1.52747 5.13892,1.05571 z M 92.49396,108.11547 c 9.45353,-1.67381 16.40096,-10.423015 15.91923,-20.047803 -0.18855,-3.767177 -1.23006,-6.963141 -3.27674,-10.054934 -0.92858,-1.402748 -3.81703,-4.30204 -5.18886,-5.208332 -2.327855,-1.537889 -4.541103,-2.489722 -7.046142,-3.030273 -0.959615,-0.207071 -1.857507,-0.260802 -4.179511,-0.250104 -2.67923,0.01235 -3.090616,0.0492 -4.374649,0.391931 -6.215425,1.658999 -10.967289,5.718225 -13.45859,11.496849 -1.137887,2.639354 -1.241962,3.279376 -1.238445,7.615996 0.0031,3.768319 0.01118,3.870916 0.409697,5.175334 0.521888,1.708221 2.09792,4.880939 3.084988,6.210396 1.126505,1.51727 3.431504,3.73852 4.878752,4.70149 2.394705,1.59338 5.114313,2.66601 7.962714,3.14053 1.517458,0.2528 4.668841,0.18448 6.507556,-0.14108 z"
     id="path4173"
     inkscape:connector-curvature="0" /><path
     style="fill:#ffffff;stroke:none;stroke-width:1px;stroke-linecap:butt;stroke-linejoin:miter;stroke-opacity:1;fill-opacity:0"
     d="m 85.764604,133.81843 c -2.816418,-0.28518 -3.826623,-0.42723 -5.692868,-0.80053 -6.592908,-1.31873 -12.653518,-4.05565 -18.311199,-8.26917 -2.658665,-1.98003 -6.724351,-6.07365 -8.79137,-8.85179 -5.037171,-6.7701 -8.009369,-14.39238 -8.825279,-22.632639 -0.195282,-1.972247 -0.195001,-6.798793 5.1e-4,-8.766735 1.324473,-13.33163 8.663754,-25.519655 19.88711,-33.025662 5.858893,-3.918337 12.67779,-6.405147 19.883856,-7.251522 2.150633,-0.252598 7.2453,-0.287431 9.485674,-0.06485 6.064565,0.602504 12.527392,2.657633 17.665672,5.617552 1.95155,1.124196 4.6409,2.913513 4.6409,3.087755 0,0.06968 -0.16327,0.484067 -0.36282,0.92086 -1.49765,3.278244 -0.1498,7.117241 3.05223,8.693418 1.67216,0.823112 3.99756,0.800196 5.84801,-0.05763 l 0.77442,-0.359006 0.94155,1.360096 c 4.46373,6.447973 7.08627,13.821881 7.79358,21.913562 0.21665,2.478476 0.106,7.078063 -0.22901,9.519521 -1.31322,9.570356 -5.5255,18.276696 -12.19903,25.214096 -7.12787,7.40971 -16.281,12.04894 -26.594562,13.47936 -1.505951,0.20886 -7.730331,0.39858 -8.967374,0.27332 z m -2.130885,-7.35703 c 2.337354,-1.10574 3.847824,-3.65522 4.074721,-6.87759 0.242704,-3.44687 -1.489986,-5.84121 -4.78895,-6.61768 -2.209344,-0.52001 -4.13302,0.0115 -5.65722,1.56305 -2.383796,2.42658 -3.099401,6.77008 -1.550763,9.41263 0.801095,1.36697 2.441613,2.52205 4.064496,2.86179 1.177371,0.24648 2.944744,0.0897 3.857716,-0.3422 z m 15.638621,-0.11073 c 0.274504,-0.0957 0.465665,-0.26488 0.465665,-0.41215 0,-0.1374 -0.665291,-2.70932 -1.478423,-5.71537 -0.813132,-3.00605 -1.478532,-5.53964 -1.478667,-5.6302 -1.34e-4,-0.0906 0.648521,-0.34537 1.441456,-0.56625 0.792935,-0.22089 1.797879,-0.51044 2.233209,-0.64345 l 0.7915,-0.24184 -0.0779,-0.58098 c -0.0429,-0.31954 -0.1575,-0.63017 -0.25477,-0.69028 -0.0973,-0.0601 -0.58472,-0.0149 -1.083243,0.10042 -1.597891,0.36972 -9.025772,2.4339 -9.408733,2.61465 -0.27996,0.13214 -0.380732,0.30758 -0.415263,0.72295 -0.04046,0.48664 -0.0013,0.55956 0.346483,0.64687 0.32605,0.0818 2.155418,-0.31378 4.227702,-0.91427 0.198413,-0.0575 0.37534,0.4158 1.011939,2.70698 2.502153,9.00551 2.421481,8.76525 2.94315,8.76525 0.148643,0 0.479808,-0.0731 0.735925,-0.16233 z m -28.122344,-10.99786 4.855407,-4.80192 -2.764412,-2.73928 c -1.520426,-1.5066 -2.873899,-2.73928 -3.007715,-2.73928 -0.133818,0 -1.152192,0.84456 -2.263055,1.87678 -3.498464,3.25082 -5.472599,4.62936 -6.62947,4.62936 -0.272882,0 -0.894949,-0.11088 -1.382374,-0.24639 -0.883977,-0.24577 -0.887162,-0.24552 -1.254634,0.0997 -0.59797,0.56176 -0.479981,0.81637 0.629692,1.3588 0.880543,0.43044 1.137426,0.48732 2.181033,0.48292 1.076496,-0.005 1.276066,-0.0545 2.218,-0.55531 1.395875,-0.74215 2.600959,-1.66833 4.858173,-3.7338 l 1.89672,-1.73559 1.465188,1.45969 c 0.805852,0.80283 1.465187,1.53832 1.465187,1.63443 0,0.0961 -1.928004,2.06293 -4.284453,4.3707 l -4.284454,4.19595 0.622578,0.62258 c 0.342419,0.34242 0.667714,0.62258 0.72288,0.62258 0.05517,0 2.285236,-2.16087 4.955709,-4.80193 z m 41.827974,3.09377 c 0.48472,-0.12622 1.14746,-0.38677 1.47277,-0.57901 0.84356,-0.49848 2.18567,-1.89447 2.68155,-2.78918 0.40536,-0.73139 0.42365,-0.84736 0.42365,-2.68665 0,-1.91133 -0.003,-1.92774 -0.51388,-2.8834 -0.73145,-1.36807 -2.75655,-3.35683 -4.08317,-4.00993 -0.98324,-0.48404 -1.07242,-0.50001 -2.79317,-0.50001 -1.69615,0 -1.81465,0.0203 -2.58883,0.4436 -1.11521,0.60977 -2.52277,2.04932 -3.04627,3.11551 -0.39662,0.80779 -0.43055,1.00567 -0.43055,2.51109 0,1.58524 0.0163,1.66724 0.54486,2.73665 0.67405,1.36385 1.88874,2.72742 3.19412,3.58562 1.86716,1.22752 3.32723,1.52747 5.13892,1.05571 z M 92.49396,108.11547 c 9.45353,-1.67381 16.40096,-10.423015 15.91923,-20.047803 -0.18855,-3.767177 -1.23006,-6.963141 -3.27674,-10.054934 -0.92858,-1.402748 -3.81703,-4.30204 -5.18886,-5.208332 -2.327855,-1.537889 -4.541103,-2.489722 -7.046142,-3.030273 -0.959615,-0.207071 -1.857507,-0.260802 -4.179511,-0.250104 -2.67923,0.01235 -3.090616,0.0492 -4.374649,0.391931 -6.215425,1.658999 -10.967289,5.718225 -13.45859,11.496849 -1.137887,2.639354 -1.241962,3.279376 -1.238445,7.615996 0.0031,3.768319 0.01118,3.870916 0.409697,5.175334 0.521888,1.708221 2.09792,4.880939 3.084988,6.210396 1.126505,1.51727 3.431504,3.73852 4.878752,4.70149 2.394705,1.59338 5.114313,2.66601 7.962714,3.14053 1.517458,0.2528 4.668841,0.18448 6.507556,-0.14108 z"
     id="path4175"
     inkscape:connector-curvature="0" /></svg>