<?xml version="1.0" encoding="UTF-8" standalone="no"?>
<!-- Generator: Adobe Illustrator 16.2.1, SVG Export Plug-In . SVG Version: 6.00 Build 0)  -->

<svg
   xmlns:dc="http://purl.org/dc/elements/1.1/"
   xmlns:cc="http://creativecommons.org/ns#"
   xmlns:rdf="http://www.w3.org/1999/02/22-rdf-syntax-ns#"
   xmlns:svg="http://www.w3.org/2000/svg"
   xmlns="http://www.w3.org/2000/svg"
   xmlns:sodipodi="http://sodipodi.sourceforge.net/DTD/sodipodi-0.dtd"
   xmlns:inkscape="http://www.inkscape.org/namespaces/inkscape"
   version="1.1"
   id="Layer_1"
   x="0px"
   y="0px"
   width="177.845"
   height="177.84599"
   viewBox="0 0 177.845 177.846"
   enable-background="new 0 0 512 177.846"
   xml:space="preserve"
   inkscape:version="0.91 r13725"
   sodipodi:docname="lotto-ionic-splash.svg"><metadata
     id="metadata27"><rdf:RDF><cc:Work
         rdf:about=""><dc:format>image/svg+xml</dc:format><dc:type
           rdf:resource="http://purl.org/dc/dcmitype/StillImage" /><dc:title></dc:title></cc:Work></rdf:RDF></metadata><defs
     id="defs25" /><sodipodi:namedview
     pagecolor="#ffffff"
     bordercolor="#666666"
     borderopacity="1"
     objecttolerance="10"
     gridtolerance="10"
     guidetolerance="10"
     inkscape:pageopacity="0"
     inkscape:pageshadow="2"
     inkscape:window-width="1680"
     inkscape:window-height="986"
     id="namedview23"
     showgrid="false"
     showguides="true"
     inkscape:guide-bbox="true"
     fit-margin-top="0"
     fit-margin-left="0"
     fit-margin-right="0"
     fit-margin-bottom="0"
     inkscape:zoom="3.6701343"
     inkscape:cx="92.373712"
     inkscape:cy="89.014668"
     inkscape:window-x="0"
     inkscape:window-y="27"
     inkscape:window-maximized="1"
     inkscape:current-layer="Layer_1"><sodipodi:guide
       position="88.95408,84.445103"
       orientation="1,0"
       id="guide4203" /><sodipodi:guide
       position="59.749999,88.937503"
       orientation="0,1"
       id="guide4205" /><sodipodi:guide
       position="5.2644787,86.08398"
       orientation="1,0"
       id="guide4142" /><sodipodi:guide
       position="52.839768,84.329154"
       orientation="1,0"
       id="guide4144" /><sodipodi:guide
       position="58.006756,103.72973"
       orientation="1,0"
       id="guide4146" /><sodipodi:guide
       position="55.569498,88.937503"
       orientation="1,0"
       id="guide4148" /><sodipodi:guide
       position="-9.6342299,101.84758"
       orientation="0,1"
       id="guide4869" /><sodipodi:guide
       position="68.265401,66.063294"
       orientation="0,1"
       id="guide4871" /><sodipodi:guide
       position="41.142908,186.91415"
       orientation="1,0"
       id="guide4154" /></sodipodi:namedview><circle
     style="fill:#61616b;fill-opacity:1"
     id="circle19"
     r="20.06407"
     cy="88.922447"
     cx="88.922775" /><path
     style="fill:#a4bbd7;fill-opacity:1"
     inkscape:connector-curvature="0"
     id="path21"
     d="m 129.86827,54.877192 c 0,-3.81099 -3.09035,-6.899131 -6.90024,-6.899131 -1.7292,0 -3.30422,0.639955 -4.5156,1.691072 -8.22712,-6.205018 -18.455896,-9.888349 -29.530206,-9.888349 -27.09694,0 -49.141664,22.045277 -49.141664,49.142216 0,27.09639 22.045277,49.14222 49.142216,49.14222 27.096944,0 49.141664,-22.04583 49.141664,-49.14222 0,-11.07431 -3.68333,-21.303084 -9.8878,-29.530756 1.05112,-1.210277 1.69163,-2.7864 1.69163,-4.515052 z M 88.922224,136.41172 c -26.185087,0 -47.489276,-21.30419 -47.489276,-47.489273 0,-26.185086 21.304189,-47.489276 47.489276,-47.489276 10.647121,0 20.485736,3.522514 28.414976,9.462818 -0.7969,1.125171 -1.2694,2.496818 -1.2694,3.980651 0,3.810438 3.08924,6.898578 6.89913,6.898578 1.48438,0 2.85437,-0.472505 3.98009,-1.269409 5.94031,7.929248 9.46282,17.76786 9.46282,28.416086 0.001,26.185635 -21.30198,47.489825 -47.487616,47.489825 z" /><path
     style="fill:none;fill-opacity:1;stroke:none;stroke-width:1.886518;stroke-linejoin:round;stroke-miterlimit:4;stroke-dasharray:none;stroke-opacity:1;image-rendering:auto"
     d="M 133.29194,89.194818 A 44.471463,44.213078 0 0 0 88.820473,44.98174 44.471463,44.213078 0 0 0 44.34901,89.194818 44.471463,44.213078 0 0 0 88.820473,133.4079 44.471463,44.213078 0 0 0 133.29194,89.194818 Z"
     id="path3374"
     inkscape:connector-curvature="0" /><path
     d="m 128.71705,55.834424 c 0,-3.703842 -3.00348,-6.705156 -6.70624,-6.705156 -1.68059,0 -3.21133,0.621962 -4.38865,1.643526 -7.9958,-6.030558 -17.936988,-9.610329 -28.699929,-9.610329 -26.335082,0 -47.759998,21.425453 -47.759998,47.760536 0,26.334549 21.425452,47.760529 47.760536,47.760529 26.335081,0 47.760001,-21.42598 47.760001,-47.760529 0,-10.762945 -3.57977,-20.704128 -9.60979,-28.700471 1.02156,-1.176249 1.64407,-2.708058 1.64407,-4.388106 z M 88.922231,135.07653 c -25.448868,0 -46.154069,-20.7052 -46.154069,-46.154067 0,-25.448868 20.705201,-46.154069 46.154069,-46.154069 10.347761,0 19.909769,3.423474 27.616069,9.196762 -0.77449,1.093535 -1.23371,2.426617 -1.23371,3.86873 0,3.703304 3.00238,6.704618 6.70515,6.704618 1.44264,0 2.77412,-0.45922 3.86818,-1.233718 5.7733,7.706309 9.19677,17.268299 9.19677,27.61714 5.5e-4,25.449404 -20.70305,46.154604 -46.152459,46.154604 z"
     id="path4140"
     inkscape:connector-curvature="0"
     style="fill:#61616b;fill-opacity:1" /><circle
     cx="88.922775"
     cy="88.922447"
     r="18.447765"
     id="circle4150"
     style="fill:#a4bbd7;fill-opacity:1" /><ellipse
     style="fill:none;fill-opacity:1;stroke:none;stroke-width:2.0999999;stroke-linejoin:round;stroke-miterlimit:4;stroke-dasharray:none;stroke-opacity:1"
     id="path4193"
     cx="88.727974"
     cy="-88.900444"
     rx="39.696751"
     ry="38.782429"
     transform="scale(1,-1)" /><g
     transform="matrix(-0.00208309,-0.55263393,0.55263393,-0.00208309,40.220581,138.1518)"
     inkscape:transform-center-x="-0.34333085"
     inkscape:transform-center-y="25.310749"
     style="font-style:normal;font-variant:normal;font-weight:normal;font-stretch:normal;font-size:35px;line-height:125%;font-family:'OCR A Extended';-inkscape-font-specification:'OCR A Extended, Normal';text-align:center;letter-spacing:0px;word-spacing:0px;writing-mode:lr-tb;text-anchor:middle;fill:#273582;fill-opacity:1;stroke:none;stroke-width:1px;stroke-linecap:butt;stroke-linejoin:miter;stroke-opacity:1"
     id="text4195"><path
       d="m 46.089321,31.106831 2.034442,2.074045 q -2.084994,3.170317 -0.878772,5.913133 2.026141,4.188823 9.206523,11.508981 L 59.491209,53.701856 48.657376,64.328822 30.790192,46.11383 33.254645,43.696434 49.087388,59.837382 55.004515,54.03324 52.802531,51.788391 q -6.773494,-6.905348 -8.688435,-11.346883 -1.832102,-4.259462 1.975225,-9.334677 z"
       style="font-style:normal;font-variant:normal;font-weight:normal;font-stretch:normal;font-size:35px;line-height:125%;font-family:'OCR A Extended';-inkscape-font-specification:'OCR A Extended, Normal';text-align:center;writing-mode:lr-tb;text-anchor:middle"
       id="path4154"
       inkscape:connector-curvature="0" /><path
       d="m 41.49973,76.911164 q 0.986303,-3.628092 -1.135459,-6.507207 -2.126246,-2.862624 -6.79329,-4.131368 -4.650553,-1.26426 -7.933462,0.127877 -3.287392,1.408628 -4.273695,5.036719 -0.986302,3.628092 1.144426,6.474225 2.126246,2.862624 6.776799,4.126884 4.667044,1.268744 7.949953,-0.123394 3.278426,-1.375645 4.264728,-5.003736 z m 2.704577,0.735243 q -1.407722,5.178276 -5.730232,7.332691 -4.306018,2.158898 -10.143946,0.571848 -5.821437,-1.582567 -8.458266,-5.628889 -2.620338,-4.04184 -1.212616,-9.220115 1.412206,-5.194767 5.722707,-7.370157 4.306018,-2.158898 10.143947,-0.571848 5.837928,1.58705 8.458266,5.62889 2.632346,4.062813 1.22014,9.25758 z"
       style="font-style:normal;font-variant:normal;font-weight:normal;font-stretch:normal;font-size:35px;line-height:125%;font-family:'OCR A Extended';-inkscape-font-specification:'OCR A Extended, Normal';text-align:center;writing-mode:lr-tb;text-anchor:middle"
       id="path4156"
       inkscape:connector-curvature="0" /><path
       d="m 40.928715,89.776903 5.636617,20.835497 -2.804462,0.75869 -2.365326,-8.74332 -21.825309,5.90439 -0.905964,-3.34886 21.825308,-5.904387 -2.365326,-8.743321 2.804462,-0.758689 z"
       style="font-style:normal;font-variant:normal;font-weight:normal;font-stretch:normal;font-size:35px;line-height:125%;font-family:'OCR A Extended';-inkscape-font-specification:'OCR A Extended, Normal';text-align:center;writing-mode:lr-tb;text-anchor:middle"
       id="path4158"
       inkscape:connector-curvature="0" /><path
       d="m 53.656781,121.61744 q -2.662429,-2.65467 -6.214624,-2.23862 -3.540092,0.42811 -6.954971,3.85296 -3.402813,3.41275 -3.820602,6.95408 -0.405686,3.55339 2.256743,6.20807 2.66243,2.65467 6.19042,2.21449 3.540093,-0.42811 6.942905,-3.84086 3.414879,-3.42485 3.832668,-6.96618 0.429891,-3.52926 -2.232539,-6.18394 z m 1.978941,-1.98472 q 3.800013,3.78895 3.529104,8.611 -0.258843,4.80996 -4.530458,9.09405 -4.259549,4.27199 -9.080792,4.55696 -4.809176,0.27287 -8.609189,-3.51608 -3.812115,-3.80102 -3.565375,-8.62303 0.258842,-4.80996 4.530458,-9.09405 4.271615,-4.28409 9.080792,-4.55696 4.833345,-0.2729 8.64546,3.52811 z"
       style="font-style:normal;font-variant:normal;font-weight:normal;font-stretch:normal;font-size:35px;line-height:125%;font-family:'OCR A Extended';-inkscape-font-specification:'OCR A Extended, Normal';text-align:center;writing-mode:lr-tb;text-anchor:middle"
       id="path4160"
       inkscape:connector-curvature="0" /></g><path
     style="fill:#ffffff;fill-opacity:1;stroke:none;stroke-width:1px;stroke-linecap:butt;stroke-linejoin:miter;stroke-opacity:1"
     d="M 84.38473,134.74282 C 77.819936,134.10963 70.466928,131.61503 64.812703,128.10274 57.253911,123.40737 51.409958,116.92767 47.539433,108.95036 35.818311,84.792633 47.127219,55.941958 72.191148,46.060233 c 4.527361,-1.784962 8.652845,-2.696711 13.723727,-3.033001 9.931061,-0.658608 20.057765,2.004937 28.247485,7.42971 l 2.22122,1.471309 -0.50043,0.980908 c -0.69963,1.371394 -0.84211,3.188516 -0.37578,4.792611 0.74023,2.546331 2.82033,4.379827 5.46922,4.820822 1.51754,0.252645 2.38995,0.08712 4.56907,-0.866905 0.30606,-0.133996 0.69006,0.275188 1.71227,1.824569 3.88109,5.882626 6.28997,12.280307 7.27288,19.315832 0.49168,3.519457 0.36589,10.830766 -0.24274,14.107964 -1.83543,9.883018 -6.60011,18.647978 -13.8681,25.511318 -9.65637,9.11873 -22.774739,13.60646 -36.03524,12.32745 z m -0.783226,-7.26279 c 2.431314,-1.13221 3.98363,-3.77081 4.157461,-7.0668 0.123628,-2.34413 -0.291869,-3.71013 -1.553176,-5.10624 -1.72727,-1.91189 -5.49598,-2.65346 -7.660635,-1.50741 -1.403909,0.7433 -2.843188,2.42114 -3.480139,4.05698 -0.818072,2.10102 -0.813883,5.08491 0.0094,6.68566 1.507358,2.93089 5.550605,4.32389 8.527106,2.93781 l -7e-6,0 z m 16.525456,-0.85556 c -0.0852,-0.34169 -0.825639,-3.05308 -1.645511,-6.02532 l -1.490663,-5.40408 1.350559,-0.403 c 0.742806,-0.22166 1.817145,-0.52499 2.387425,-0.67409 1.00475,-0.2627 1.03178,-0.29484 0.87262,-1.03809 -0.0903,-0.42185 -0.20704,-0.8134 -0.25933,-0.87012 -0.0523,-0.0567 -2.66065,0.59576 -5.796339,1.44995 l -5.701253,1.55308 0.06738,0.81909 c 0.03706,0.4505 0.106625,0.85834 0.154587,0.9063 0.04796,0.048 1.134811,-0.19819 2.415219,-0.54702 1.280409,-0.34882 2.366703,-0.59552 2.41399,-0.54824 0.04728,0.0473 0.815805,2.73814 1.707823,5.97967 l 1.621843,5.8937 1.028243,-0.23529 c 0.949164,-0.21721 1.016334,-0.28307 0.873404,-0.85654 z m -29.319612,-10.52591 4.985195,-4.98096 -2.937954,-2.94502 c -1.615875,-1.61976 -3.034863,-2.94503 -3.153306,-2.94503 -0.118443,0 -1.348013,1.09095 -2.732376,2.42433 -2.505164,2.41291 -4.796234,4.11075 -5.931533,4.3957 -0.327672,0.0822 -1.056964,-0.009 -1.620648,-0.20357 -0.971201,-0.33461 -1.053477,-0.32624 -1.570848,0.15981 -0.300281,0.28209 -0.545966,0.58224 -0.545966,0.66699 0,0.35434 1.990506,1.23407 3.08572,1.36379 1.998837,0.23673 4.085783,-0.98001 7.976996,-4.65078 0.922981,-0.87069 1.702633,-1.53789 1.732561,-1.48267 0.02993,0.0552 0.691946,0.76558 1.471144,1.57856 l 1.416726,1.47815 -4.418991,4.31679 -4.418991,4.31678 0.705434,0.74404 c 0.387989,0.40922 0.765331,0.74404 0.838539,0.74404 0.07321,0 2.376443,-2.24143 5.118298,-4.98095 z m 43.943602,2.79497 c 3.17471,-1.61962 4.53698,-4.91843 3.4041,-8.24326 -0.52843,-1.55085 -2.84207,-4.00567 -4.57387,-4.85296 -2.48221,-1.21443 -5.08301,-0.81972 -7.11352,1.07958 -1.6943,1.58482 -2.19816,2.66597 -2.19757,4.71546 4.8e-4,2.05105 0.74309,3.66289 2.49379,5.41359 2.45814,2.45814 5.47237,3.1705 7.98707,1.88759 z M 92.126189,108.8164 c 7.857706,-1.26043 14.276161,-7.14573 16.356071,-14.997456 0.70897,-2.676376 0.70712,-7.143816 -0.004,-9.834466 C 105.35915,72.184382 92.896369,65.803109 81.530157,70.186384 75.98402,72.325201 71.210284,77.576581 69.544699,83.37106 c -0.725614,2.524377 -0.906948,6.933525 -0.388284,9.441106 1.326492,6.413186 5.374571,11.582874 11.201365,14.304944 3.81041,1.7801 7.733326,2.34654 11.768412,1.69929 l -3e-6,0 z"
     id="path4873"
     inkscape:connector-curvature="0" /><path
     style="fill:#ffffff;fill-opacity:1;stroke:none;stroke-width:1px;stroke-linecap:butt;stroke-linejoin:miter;stroke-opacity:1"
     d="m 79.958667,126.12399 c -1.261725,-0.28483 -2.288826,-1.02854 -2.820378,-2.04221 -1.232656,-2.35068 -0.169346,-6.67406 2.033994,-8.27015 1.922575,-1.3927 4.742529,-0.76877 5.919759,1.30979 0.988656,1.7456 0.612862,4.92535 -0.843918,7.14073 -0.991156,1.50728 -2.657026,2.23036 -4.289457,1.86184 z"
     id="path4875"
     inkscape:connector-curvature="0" /><path
     style="fill:#ffffff;fill-opacity:1;stroke:none;stroke-width:1px;stroke-linecap:butt;stroke-linejoin:miter;stroke-opacity:1"
     d="m 110.42786,116.96513 c -1.28081,-0.63398 -3.03142,-2.35769 -3.67429,-3.61782 -1.48553,-2.91189 0.37146,-6.19831 3.50236,-6.19831 2.10944,0 4.82267,2.02191 5.90127,4.39765 1.69693,3.73768 -2.02113,7.25401 -5.72934,5.41848 z"
     id="path4877"
     inkscape:connector-curvature="0" /></svg>