<!--?xml version="1.0" standalone="no"?-->

<svg version="1.0" xmlns="http://www.w3.org/2000/svg" width="300.000000pt" height="300.000000pt" viewBox="0 0 300.000000 300.000000" preserveAspectRatio="xMidYMid meet">
<g transform="translate(0.000000,300.000000) scale(0.100000,-0.100000)" fill="#030303" stroke="none">
<path class="node" id="node1" d="M976 2852 c-3 -5 1 -20 8 -33 7 -14 16 -37 20 -52 3 -14 11 -39 18
-54 18 -45 58 -155 69 -193 20 -64 -3 -60 417 -58 l386 3 13 45 c7 25 19 59
27 75 8 17 17 41 21 55 3 14 10 34 15 45 16 35 60 157 60 166 0 11 -1047 12
-1054 1z"></path>
<path class="node" id="node2" d="M728 2663 c-103 -103 -188 -191 -188 -195 0 -4 18 -50 41 -100 22
-51 47 -108 55 -125 8 -18 20 -48 28 -65 8 -18 29 -67 46 -108 18 -41 40 -93
50 -115 25 -57 42 -96 95 -220 25 -60 52 -123 60 -140 7 -16 34 -79 60 -140
26 -60 51 -114 55 -119 5 -4 23 3 42 17 87 66 212 121 301 133 47 7 61 25 38
49 -5 6 -16 33 -24 60 -21 67 -45 133 -62 172 -8 17 -15 37 -15 45 0 7 -6 25
-14 40 -8 14 -19 43 -26 65 -6 21 -16 47 -21 58 -5 11 -15 40 -23 65 -19 60
-44 130 -56 155 -5 11 -12 31 -15 45 -4 14 -13 39 -20 55 -7 17 -20 50 -28 75
-30 86 -87 245 -96 265 -5 11 -15 38 -22 60 -6 22 -15 45 -19 50 -4 6 -13 31
-20 58 -7 26 -17 47 -23 47 -6 0 -95 -84 -199 -187z"></path>
<path class="node" id="node3" d="M2065 2838 c-2 -7 -11 -33 -20 -58 -9 -25 -23 -65 -32 -90 -8 -25
-21 -58 -28 -75 -7 -16 -16 -41 -20 -55 -3 -14 -10 -34 -16 -45 -9 -20 -66
-177 -96 -265 -8 -25 -21 -58 -28 -75 -7 -16 -16 -41 -20 -55 -3 -14 -10 -34
-15 -45 -11 -24 -36 -93 -56 -155 -8 -25 -21 -59 -29 -77 -8 -17 -15 -37 -15
-45 0 -7 -6 -25 -14 -40 -8 -14 -19 -43 -26 -65 -6 -21 -15 -47 -20 -58 -15
-31 -41 -108 -43 -124 -1 -10 17 -18 58 -27 115 -23 201 -62 291 -129 23 -18
34 -21 43 -12 6 6 11 15 11 20 0 6 9 28 19 51 11 23 41 91 66 151 26 61 55
128 65 150 9 22 25 57 34 78 9 20 22 52 30 70 90 201 156 358 156 369 0 8 4
18 9 24 12 12 91 194 91 208 0 12 -371 386 -383 386 -4 0 -10 -6 -12 -12z"></path>
<path class="node" id="node4" d="M1330 1440 c-247 -72 -429 -260 -489 -508 -26 -109 -27 -193 -1 -302
76 -317 344 -530 667 -530 53 0 110 4 127 9 17 5 56 17 86 25 116 34 233 117
321 229 263 336 160 811 -222 1021 -91 50 -174 69 -309 72 -88 2 -130 -2 -180
-16z"></path>
</g>
<g transform="translate(0.000000,300.000000) scale(0.100000,-0.100000)" fill="#FFFFFF" stroke="none">

</g>
</svg>