<?xml version="1.0" encoding="UTF-8" standalone="no"?>
<!-- Generator: Adobe Illustrator 16.2.1, SVG Export Plug-In . SVG Version: 6.00 Build 0)  -->

<svg
   xmlns:dc="http://purl.org/dc/elements/1.1/"
   xmlns:cc="http://creativecommons.org/ns#"
   xmlns:rdf="http://www.w3.org/1999/02/22-rdf-syntax-ns#"
   xmlns:svg="http://www.w3.org/2000/svg"
   xmlns="http://www.w3.org/2000/svg"
   xmlns:sodipodi="http://sodipodi.sourceforge.net/DTD/sodipodi-0.dtd"
   xmlns:inkscape="http://www.inkscape.org/namespaces/inkscape"
   version="1.1"
   id="Layer_1"
   x="0px"
   y="0px"
   width="257.84497"
   height="257.84598"
   viewBox="0 0 257.84497 257.84599"
   enable-background="new 0 0 512 177.846"
   xml:space="preserve"
   inkscape:version="0.91 r13725"
   sodipodi:docname="qq-splash.svg"><metadata
     id="metadata27"><rdf:RDF><cc:Work
         rdf:about=""><dc:format>image/svg+xml</dc:format><dc:type
           rdf:resource="http://purl.org/dc/dcmitype/StillImage" /><dc:title></dc:title></cc:Work></rdf:RDF></metadata><defs
     id="defs25" /><sodipodi:namedview
     pagecolor="#ffffff"
     bordercolor="#666666"
     borderopacity="1"
     objecttolerance="10"
     gridtolerance="10"
     guidetolerance="10"
     inkscape:pageopacity="0"
     inkscape:pageshadow="2"
     inkscape:window-width="1680"
     inkscape:window-height="986"
     id="namedview23"
     showgrid="false"
     showguides="true"
     inkscape:guide-bbox="true"
     fit-margin-top="40"
     fit-margin-left="40"
     fit-margin-right="40"
     fit-margin-bottom="40"
     inkscape:zoom="3.8102947"
     inkscape:cx="145.59149"
     inkscape:cy="128.92299"
     inkscape:window-x="0"
     inkscape:window-y="27"
     inkscape:window-maximized="1"
     inkscape:current-layer="Layer_1"
     showborder="true"><sodipodi:guide
       position="128.95408,124.4453"
       orientation="1,0"
       id="guide4203" /><sodipodi:guide
       position="170.7875,128.55009"
       orientation="0,1"
       id="guide4205" /><sodipodi:guide
       position="157.21928,120.631"
       orientation="0,1"
       id="guide4209" /><sodipodi:guide
       position="60.100337,239.61402"
       orientation="1,0"
       id="guide4143" /></sodipodi:namedview><circle
     style="fill:#4e8ef7"
     id="circle19"
     r="27.626579"
     cy="128.9222"
     cx="128.92288" /><path
     style="fill:#4e8ef7"
     inkscape:connector-curvature="0"
     id="path21"
     d="m 185.30146,82.044717 c 0,-5.247421 -4.25516,-9.499537 -9.50106,-9.499537 -2.38097,0 -4.54964,0.881165 -6.21761,2.328467 -11.32807,-8.543801 -25.41225,-13.615446 -40.66067,-13.615446 -37.310267,0 -67.664045,30.354538 -67.664045,67.664799 0,37.3095 30.354539,67.6648 67.664805,67.6648 37.31026,0 67.66404,-30.3553 67.66404,-67.6648 0,-15.24842 -5.07164,-29.332597 -13.61468,-40.661427 1.4473,-1.666452 2.32922,-3.836645 2.32922,-6.216856 z M 128.92212,194.31108 c -36.054721,0 -65.388843,-29.33412 -65.388843,-65.38884 0,-36.054716 29.334122,-65.388837 65.388843,-65.388837 14.66021,0 28.20717,4.850212 39.1251,13.029524 -1.09727,1.549268 -1.74788,3.437913 -1.74788,5.481029 0,5.246661 4.25364,9.498777 9.49954,9.498777 2.04388,0 3.93024,-0.650601 5.48027,-1.747872 8.17931,10.917919 13.02953,24.464879 13.02953,39.126619 0.002,36.05548 -29.33108,65.3896 -65.38656,65.3896 z" /><path
     style="fill:none;fill-opacity:1;stroke:none;stroke-width:1.886518;stroke-linejoin:round;stroke-miterlimit:4;stroke-dasharray:none;stroke-opacity:1;image-rendering:auto"
     d="M 190.01558,129.29731 A 61.233558,60.877783 0 0 0 128.78202,68.419531 61.233558,60.877783 0 0 0 67.548455,129.29731 61.233558,60.877783 0 0 0 128.78202,190.17508 61.233558,60.877783 0 0 0 190.01558,129.29731 Z"
     id="path3374"
     inkscape:connector-curvature="0" /><g
     transform="matrix(0.02261193,-0.76060096,0.76060096,0.02261193,58.433716,195.68799)"
     inkscape:transform-center-x="1.0360406"
     inkscape:transform-center-y="44.324132"
     style="font-style:normal;font-variant:normal;font-weight:600;font-stretch:normal;font-size:50px;line-height:125%;font-family:'URW Gothic L';-inkscape-font-specification:'URW Gothic L, Semi-Bold';text-align:center;letter-spacing:2px;word-spacing:0px;writing-mode:lr-tb;text-anchor:middle;fill:#4e8ef7;fill-opacity:1;stroke:none;stroke-width:1px;stroke-linecap:butt;stroke-linejoin:miter;stroke-opacity:1"
     id="text4193"><path
       d="M 70.53519,50.188952 75.769393,48.198195 75.999858,8.5782579 69.690774,10.977832 69.959449,40.939438 49.735374,18.567596 43.940364,20.77165 70.53519,50.188952 Z"
       id="path4141"
       inkscape:connector-curvature="0" /><path
       d="m 49.841769,71.536834 c 4.741495,-9.925635 0.870917,-21.194669 -8.874252,-25.849954 -9.609819,-4.590629 -20.941498,-0.472917 -25.618336,9.317369 -4.633733,9.700052 -0.676946,20.78862 9.068223,25.443906 9.519586,4.547524 20.876841,0.608266 25.424365,-8.911321 z M 43.929493,68.601705 C 40.976835,74.782668 33.707927,77.239389 27.301381,74.17897 20.894834,71.118551 18.3088,64.120342 21.326115,57.804029 c 3.017314,-6.316313 10.350879,-8.908384 16.667192,-5.891069 6.451663,3.081971 8.996605,10.282198 5.936186,16.688745 z"
       id="path4143"
       inkscape:connector-curvature="0" /><path
       d="m 12.208917,114.43579 2.417525,6.40922 28.443828,-10.72887 3.299833,8.74835 6.128522,-2.31165 -9.017191,-23.905916 -6.128522,2.311647 3.299833,8.748349 -28.443828,10.72887 z"
       id="path4145"
       inkscape:connector-curvature="0" /><path
       d="m 70.765616,127.93451 c -9.975309,-4.63608 -21.202707,-0.64633 -25.754493,9.14761 -4.488567,9.65791 -0.25104,20.94533 9.588241,25.51819 9.748597,4.53071 20.794626,0.45668 25.346412,-9.33726 4.44642,-9.56723 0.387067,-20.88212 -9.18016,-25.32854 z m -2.872332,5.94304 c 6.211896,2.88701 8.745485,10.12949 5.753107,16.5681 -2.992378,6.4386 -9.962799,9.09863 -16.310722,6.1484 -6.347924,-2.95023 -9.017539,-10.25593 -6.067307,-16.60385 3.013451,-6.48395 10.186314,-9.10503 16.624922,-6.11265 z"
       id="path4147"
       inkscape:connector-curvature="0" /></g></svg>