<?xml version="1.0" encoding="UTF-8" standalone="no"?>
<!--?xml version="1.0" standalone="no"?-->

<svg
   xmlns:dc="http://purl.org/dc/elements/1.1/"
   xmlns:cc="http://creativecommons.org/ns#"
   xmlns:rdf="http://www.w3.org/1999/02/22-rdf-syntax-ns#"
   xmlns:svg="http://www.w3.org/2000/svg"
   xmlns="http://www.w3.org/2000/svg"
   xmlns:sodipodi="http://sodipodi.sourceforge.net/DTD/sodipodi-0.dtd"
   xmlns:inkscape="http://www.inkscape.org/namespaces/inkscape"
   version="1.0"
   width="300.000000pt"
   height="300.000000pt"
   viewBox="0 0 300.000000 300.000000"
   preserveAspectRatio="xMidYMid meet"
   id="svg2"
   inkscape:version="0.91 r13725"
   sodipodi:docname="stats.svg">
  <defs
     id="defs17" />
  <sodipodi:namedview
     pagecolor="#ffffff"
     bordercolor="#666666"
     borderopacity="1"
     objecttolerance="10"
     gridtolerance="10"
     guidetolerance="10"
     inkscape:pageopacity="0"
     inkscape:pageshadow="2"
     inkscape:window-width="1680"
     inkscape:window-height="986"
     id="namedview15"
     showgrid="false"
     inkscape:zoom="1.8515643"
     inkscape:cx="188.58017"
     inkscape:cy="175.66641"
     inkscape:window-x="0"
     inkscape:window-y="27"
     inkscape:window-maximized="1"
     inkscape:current-layer="svg2" />
  <metadata
     id="metadata4">
    <rdf:rdf>
      <rdf:description
         dc:title="statistics graph icon"
         dc:publisher="Hiox"
         dc:date="2015-03-14"
         dc:format="image/svg+xml"
         dc:language="en">
        <dc:creator>
          <rdf:bag>
            <rdf:li>svgimages.com</rdf:li>
          </rdf:bag>
        </dc:creator>
      </rdf:description>
    </rdf:rdf>
    <rdf:RDF>
      <cc:Work
         rdf:about="">
        <dc:format>image/svg+xml</dc:format>
        <dc:type
           rdf:resource="http://purl.org/dc/dcmitype/StillImage" />
      </cc:Work>
    </rdf:RDF>
  </metadata>
  <g
     transform="translate(0.000000,300.000000) scale(0.100000,-0.100000)"
     fill="#070707"
     stroke="none"
     id="g6"
     style="fill:#ffffff;fill-opacity:1">
    <path
       d="M1899 2208 c-1 -222 0 -415 1 -430 1 -14 -3 -29 -9 -33 -6 -3 -68 38 -138 91 -218 166 -335 255 -418 318 -44 34 -82 63 -85 66 -10 10 -331 253 -346 263 -7 4 -39 -30 -82 -86 -130 -172 -313 -412 -325 -427 -7 -8 -58 -76 -115 -150 -56 -74 -164 -217 -241 -316 l-139 -182 50 -37 c27 -21 52 -34 57 -29 23 28 89 112 101 131 8 12 101 133 205 269 355 464 397 519 447 587 27 37 52 67 55 67 6 0 156 -112 510 -381 110 -85 262 -200 337 -257 l135 -103 1 -495 0 -495 187 0 188 0 3 608 2 608 293 293 c160 160 295 292 299 292 5 0 8 -27 8 -60 l0 -60 58 0 57 0 -3 175 -3 175 -179 0 -180 0 0 -57 0 -58 65 2 c35 1 66 -1 69 -5 5 -8 -25 -41 -273 -301 -97 -101 -180 -190 -184 -197 -23 -39 -27 5 -29 299 l-3 312 -187 3 -188 2 -1 -402z"
       id="node1"
       class="node"
       style="fill:#ffffff;fill-opacity:1" />
    <path
       d="M820 1205 c0 -338 1 -618 3 -621 1 -4 199 -7 325 -5 l22 1 0 620 0 620 -175 0 -175 0 0 -615z"
       id="node2"
       class="node"
       style="fill:#ffffff;fill-opacity:1" />
    <path
       d="M2618 1703 l-188 -3 0 -560 0 -559 190 -3 190 -3 0 568 c0 312 -1 566 -2 565 -2 -2 -87 -4 -190 -5z"
       id="node3"
       class="node"
       style="fill:#ffffff;fill-opacity:1" />
    <path
       d="M1363 1463 c-10 -4 -13 -102 -13 -444 l0 -439 175 0 175 0 0 440 0 440 -149 0 c-82 0 -155 2 -163 4 -7 3 -19 2 -25 -1z"
       id="node4"
       class="node"
       style="fill:#ffffff;fill-opacity:1" />
    <path
       d="M240 855 l0 -275 23 -1 c12 0 98 0 190 -1 l169 -1 1 277 2 276 -192 0 -193 0 0 -275z"
       id="node5"
       class="node"
       style="fill:#ffffff;fill-opacity:1" />
  </g>
  <g
     transform="translate(0.000000,300.000000) scale(0.100000,-0.100000)"
     fill="#A1A1A1"
     stroke="none"
     id="g13" />
</svg>
